<?xml version="1.0" encoding="utf-8"?>
<!-- Generator: Adobe Illustrator 28.0.0, SVG Export Plug-In . SVG Version: 6.00 Build 0)  -->
<svg version="1.1" xmlns="http://www.w3.org/2000/svg" xmlns:xlink="http://www.w3.org/1999/xlink" x="0px" y="0px"
	 viewBox="0 0 371.6 393" style="enable-background:new 0 0 371.6 393;" xml:space="preserve">
<style type="text/css">
	.st0{fill:#FFFFFF;}
</style>
<g id="Layer_3">
</g>
<g id="Layer_2">
</g>
<g id="Layer_4">
	<g>
		<path class="st0" d="M186.6,14.4C86.3,14.4,5,95.7,5,196s81.3,181.6,181.6,181.6S368.1,296.3,368.1,196S286.8,14.4,186.6,14.4z
			 M205.3,334v-86c0,0,22.4,19.4,47.7,28c0,0,11.3,4.1,17.9-8c0,0,5.3-9.8-2.4-17.8c0,0-50.1-21.9-79.8-85.9c0,0-2.3-4.8-4.7,0
			c-2.3,4.8-21,53.4-76.3,85c0,0-11,5.3-5.7,18.3c0,0,6.6,12.2,19.1,7.4c0,0,12.4-2.9,46.2-27.2l0.2,86.2
			c-68.4-9.2-121.2-67.8-121.2-138.7c0-77.3,62.7-140,140-140s140,62.7,140,140C326.3,266.2,273.7,324.8,205.3,334z"/>
		<path class="st0" d="M187.3,108.5c0,0,8.3,34.8,34.7,70c0,0,22.8,37.2,62.5,52.3c0,0,9.5,1.7,16.5-6.5c0,0,7.8-12.2-3.2-21.7
			c0,0-37.5-14.3-64.3-62.2c0,0-2-2.3,1-1.5c0,0,15,9.8,24.3-1.8c0,0,9.8-15.2-5-22.5c0,0-22.7-5.8-61.5-44.3c0,0-6-6.8-13,0
			c0,0-27,30.3-63.2,46c0,0-10.8,8.3-2.3,21c0,0,10,13,24.3,1.3c0,0,2.2-1.3,1.3,1c0,0-16.3,38-62,62.5c0,0-13.8,7-5.5,21
			c0,0,8,14.2,22.3,5.7c0,0,32.8-14.7,58.5-52.2c0,0,26.2-38.9,32.7-68.2C185.5,108.5,186.3,105.8,187.3,108.5z"/>
	</g>
</g>
</svg>
