<svg id="" preserveAspectRatio="xMidYMax meet" class="svg-separator trees back" viewBox="0 0 1600 200" style="display: block;" data-height="200">
<path class="" style="opacity: 1;fill: #787f5d;" d="M1615.6,58.4c-8.6,20.7-19.2,31.4-26.8,36.8c-4.4-7.6-8.7-18.4-10.9-33.4
c-9.2,22.6-20.9,33.4-28.6,38.3c-2.4-7.7-4.4-16.4-6-26.2c-10.4,25.9-22.8,42.1-33.4,52.2c-2.8-6.5-5.2-14.5-6.8-24.4
c-5.2,13.2-11.2,22.4-16.8,28.8c-3.9-5.1-8.1-12.1-11.9-21.5c6.8,0.7,13.6,1.4,20.4,2.1c0,0-20-9.9-26.6-49.3
c-4.6,12-10,20.7-15.2,27c-8.1-12.1-16.5-30.2-21.1-56.8c-15.1,39.7-35.4,57-47.2,64.2c-3.8-7.1-7.4-16.7-9.7-29.2
c-8.5,22.9-19.8,34-27.3,39.2c-8.5-11.9-17.5-30.1-22.7-57.5c-8.3,22.9-18.3,38.4-27.6,48.9c-5.4-7.4-11.2-18.9-14.5-36.1
c-7.8,22-18.2,33.2-25.7,38.8c-2.7-4.1-5.5-9-8-14.9c6.8,0.5,13.6,1,20.4,1.4c0,0-20.4-9.2-28.3-48.4
c-8.5,24.4-20.4,35.7-27.8,40.6c-9-11.7-18.8-30-24.7-58c-17,50.2-43.2,65.9-51.6,69.7c-7.3-11.5-14.5-27.5-19.4-49.5
c-9.3,28.5-21.7,46-32.1,56.5c-4.5-7.1-9-17-12.1-30.5c-5.7,18-13.4,29-19.9,35.6c-8.8-11.5-18.2-29.1-24.3-55.3
c-5.6,17.9-12.4,31.5-19.2,41.8c-6.8-5.6-17.6-18-23.7-43.2c-4.8,15.8-11.2,26.3-17.1,33.2c-9.3-5.7-32.3-24.1-44.6-72.7
c-8.8,29.7-21.1,47.7-31.5,58.5C889,58.6,885,49.8,882,38.2c-11,38.5-32,46-32,46c6.8,0.1,13.6,0.1,20.4,0.2
c-8.5,15.8-17.6,23.9-23.2,27.7c-7.1-7.5-15-18-22.5-32.6c10.8,0,21.7,0.1,32.5,0.2c0,0-33.2-12.5-49.9-74
c-7.2,26.2-17.4,43.4-26.7,54.6c-4.1-6.6-8.2-15.2-11.3-26.6c-2.2,8.3-4.9,15.2-7.8,20.9C752,43.5,741.6,26.3,734.1,0
c-11.6,44.1-31.9,63.1-42.4,70.4c-6.3-6.8-13.5-17.9-18.7-35.6c-6,23.7-16,36-23,41.9c-7.9-10.8-16-25.9-22.3-46.9
c-5.8,23.6-14.1,40.1-22.2,51.6c-3.5-5.9-6.9-13.4-9.7-22.6c-8.3,34.8-25.7,45.2-29.2,47c-0.2,0-0.4,0-0.6,0
c-6.8-10.2-13.5-23.7-19.1-41.3c-3.4,14.8-7.9,26.9-12.7,36.6c-7.3-5.2-18.6-16.8-26.4-41C505,72.7,501,82,496.8,89
c-7.9-10.6-16-25.2-22.6-45.3c-4.7,21.5-11.7,37.2-18.8,48.6c-6.9-6.4-15.3-17.5-21.6-36.4c-5.7,26.8-17.1,39.4-23.7,44.7
c-10.5-10.4-22.8-27.6-32.4-55.4c-3.9,19.2-9.7,33.9-15.8,45c-6.6-6.5-14.4-17.2-20.5-34.5c-2.2,11.3-5.5,20-9,26.8
c-11.9-8.4-29.9-26.2-43.1-63.1c-12.1,62.6-44.2,77.5-44.3,77.6c10.8-0.9,21.7-1.8,32.5-2.7c-9,21.2-19.4,34.5-27.5,42.5
c-5.8-6.5-12.1-16.2-17.3-30.4c-0.8,4.3-1.7,8.3-2.8,12c-7.2-4-20.7-14.7-30.6-41.1c-6.9,39.4-27,49-27,49
c6.8-0.7,13.5-1.3,20.3-1.9c-0.9,2.1-1.8,4.1-2.7,6c-11.9,1.1-23.8,2.3-35.7,3.5c-7-3.7-21.1-14.1-31.6-41
c-4.5,27.3-15.4,40.4-21.7,45.9c-5.9-6.4-12.3-15.8-17.7-29.7c-1.5,9.8-3.9,17.7-6.6,24.2C66.7,123,55.2,107.3,45.5,83.1
c-2.2,14.5-5.6,26.5-9.5,36.4c-7.5-5.7-17.5-16.3-25.7-36.3C9.3,90.4,7.8,96.6,6,101.9c-10.5-10-22.5-25.7-32.8-50.4
c-0.4,2.5-0.7,4.9-1.2,7.2c7.3,57.9,10.2,77.5,17.5,135.4l1619.5-1.6c6.2-49.3,7.4-58.7,13.6-108
C1619.7,77.7,1617.1,69.1,1615.6,58.4z"></path>
</svg>