<svg id="" preserveAspectRatio="xMidYMax meet" class="svg-separator trees front" viewBox="0 0 1600 200" style="display: block;" data-height="200">
<path class="" style="fill: rgb(255, 255, 255);" d="M1475.4,177c0,0-16.4-8.1-30.8-35.3c6,0.6,12.1,1.2,18.1,1.8
c0,0-15-7.6-25.8-34.8c7,0.7,14,1.4,21,2.1c0,0-20.7-10.1-27.7-51c-14.7,38.8-36.9,44.7-37,44.7c7,0.6,14,1.3,21,2
c-15.9,24.6-32,29.2-32,29.2c6,0.5,12.1,1.1,18.1,1.7c-19.3,24-37,28.8-37,28.8c-10.7-0.9-21.3-1.9-32-2.7c0,0-18.1-8.4-34.4-37.7
c6.6,0.5,13.2,1,19.7,1.6c0,0-16.5-7.9-29-37.2c7.6,0.6,15.3,1.2,22.9,1.8c0,0-22.8-10.5-31.5-54.8c-15,42.6-39.1,49.6-39.1,49.7
c7.7,0.5,15.3,1.1,23,1.6c-16.7,27.2-34.1,32.6-34.1,32.6c6.6,0.4,13.2,0.9,19.7,1.3c-20.4,26.6-39.5,32.3-39.5,32.3
c-10.7-0.7-21.4-1.3-32.1-2c0,0-12.9-5.6-24.8-26c4.6,0.3,9.3,0.5,13.9,0.8c0,0-11.7-5.3-20.9-25.8c5.4,0.3,10.8,0.6,16.1,0.9
c0,0-16.2-7-22.9-38.1c-9.9,30.3-26.7,35.6-26.7,35.6c5.4,0.3,10.8,0.5,16.1,0.8c-11.3,19.4-23.5,23.4-23.5,23.4
c4.6,0.2,9.3,0.4,13.9,0.7c-14,19-27.4,23.3-27.4,23.3c-53.5-2.4-107-4.2-160.5-5.3c0,0-21.3-8.4-42.1-40.7
c7.6,0.1,15.1,0.2,22.7,0.4c0,0-19.4-7.9-35.9-40.5c8.8,0.1,17.6,0.2,26.4,0.4c0,0-26.9-10.4-40.1-60.5
c-14.1,49.9-41.2,59.7-41.2,59.7c8.8,0,17.6,0.1,26.4,0.1c-17.1,32.3-36.6,39.8-36.7,39.8c7.6,0,15.1,0,22.7,0.1
c-21.4,32-42.8,39.9-42.9,39.9c-46.2,0.1-92.3,0.6-138.5,1.7c0,0-20.7-7.1-41.9-37.2c7.2-0.2,14.5-0.4,21.7-0.6
c0,0-18.9-6.7-36-37.3c8.4-0.3,16.8-0.5,25.3-0.7c0,0-26.1-8.8-40.8-56.2c-11.5,48.3-36.9,58.8-36.9,58.8c8.4-0.3,16.8-0.7,25.3-1
c-15,31.6-33.4,39.6-33.4,39.6c7.2-0.3,14.5-0.6,21.7-0.9c-19.2,31.4-39.3,39.9-39.4,39.9c-12.7,0.6-25.4,1.2-38.1,1.8
c0,0-17.2-5.4-35.2-29.6c5.9-0.3,11.9-0.6,17.8-1c0,0-15.6-5.1-30.3-29.8c6.9-0.4,13.8-0.8,20.7-1.1c0,0-21.6-6.7-34.6-45.3
c-8.4,39.9-29,49-29,49c6.9-0.4,13.8-0.9,20.7-1.3c-11.7,26.3-26.6,33.2-26.6,33.2c5.9-0.4,11.9-0.8,17.8-1.1
c-15.1,26.2-31.5,33.5-31.5,33.5c-40.1,2.7-80.1,5.8-120.2,9.2c0,0-22.1-6.1-46.2-36c7.5-0.7,15.1-1.4,22.6-2.1
c0,0-20.2-5.8-40-36.5c8.8-0.8,17.6-1.6,26.3-2.4c0,0-27.9-7.4-46.3-55.9C156.2,83.3,130.3,96,130.3,96c8.8-0.9,17.6-1.8,26.3-2.7
c-13.6,34-32.3,43.5-32.3,43.5c7.5-0.8,15.1-1.6,22.6-2.3c-17.9,34.1-38.4,44.2-38.4,44.3c-38,4.1-75.9,7.6-113.8,12.3
c0.4,3.3,0.8,7.6,1.3,10.9c0,13.3,1608,13.3,1608,0c0.4-3.3,0.8-7.6,1.3-10.9C1562,185.6,1518.8,181.6,1475.4,177z"></path></svg>