<svg id="" preserveAspectRatio="xMidYMax meet" class="svg-separator trees mid" viewBox="0 0 1600 200" style="display: block;" data-height="200">
<path class="" style="opacity: 1;fill: #d3d9bf;" d="M85.8,155c5.1-0.6,10.1-1.1,15.2-1.7c0,0-13.6-3.6-27.3-24c5.9-0.7,11.7-1.3,17.6-1.9
c0,0-18.8-4.7-31.6-37c-5.3,34.4-22.6,43.1-22.6,43.1c5.9-0.7,11.7-1.4,17.6-2C46,154.4,33.5,161,33.5,161
c5.1-0.6,10.1-1.2,15.2-1.8c-11.7,23-25.4,30-25.5,30l94.1-10.6C117.3,178.6,102.4,174.9,85.8,155z"></path>
<path class="" style="opacity: 1;fill: #d3d9bf;" d="M367.5,131.9c4.7-0.3,9.5-0.6,14.2-0.9c0,0-12.6-3.9-24.5-23.6c5.5-0.4,11-0.7,16.5-1.1
c0,0-17.3-5.1-28-35.9c-6.3,32-22.8,39.4-22.8,39.4c5.5-0.4,11-0.8,16.5-1.2c-9.1,21.1-21,26.7-21,26.7c4.7-0.4,9.5-0.7,14.2-1
c-11.9,21.1-25,27.1-25,27.1l88.3-6.1C396,155.3,382.2,151.1,367.5,131.9z"></path>
<path class="" style="opacity: 1;fill: #d3d9bf;" d="M714.6,108.9c6.5-0.1,13-0.2,19.5-0.2c0,0-16.8-6.3-31.7-33.9c7.5-0.1,15.1-0.2,22.6-0.3
c0,0-23.3-8.2-35.7-50.9c-11,43.1-33.9,52.1-33.9,52.1c7.5-0.2,15.1-0.3,22.6-0.5c-13.9,28.1-30.5,34.9-30.5,34.9
c6.5-0.2,13-0.3,19.5-0.4c-17.7,27.9-35.9,35.1-35.9,35.1l120.6-2.1C751.7,142.8,733.3,136.1,714.6,108.9z"></path>
<path class="" style="opacity: 1;fill: #d3d9bf;" d="M997.7,115.2c5.7,0.2,11.5,0.3,17.2,0.5c0,0-14.6-6.2-26.7-31.1c6.7,0.2,13.3,0.4,20,0.6
c0,0-20.2-8.2-29.5-46.3c-11.3,37.6-31.9,44.7-31.9,44.7c6.7,0.1,13.3,0.3,20,0.5c-13.4,24.3-28.3,29.6-28.3,29.7
c5.7,0.1,11.5,0.2,17.2,0.4c-16.7,23.9-33,29.6-33,29.6l106.5,2.8C1029.2,146.5,1013.1,139.9,997.7,115.2z"></path>
<path class="" style="opacity: 1;fill: #d3d9bf;" d="M1224.6,124.7c5.9,0.4,11.9,0.8,17.8,1.2c0,0-15-6.9-26.6-33.2c6.9,0.4,13.8,0.9,20.7,1.3
c0,0-20.7-9.2-29-49.1c-13.1,38.6-34.7,45.2-34.7,45.2c6.9,0.4,13.8,0.8,20.7,1.2c-14.7,24.7-30.4,29.7-30.4,29.7
c5.9,0.3,11.9,0.7,17.8,1c-18.1,24.2-35.3,29.5-35.3,29.5l110.4,6.7C1256.1,158.3,1239.7,150.9,1224.6,124.7z"></path>
<path class="" style="opacity: 1;fill: #d3d9bf;" d="M1357.2,144.3c4.1,0.3,8.2,0.7,12.3,1.1c0,0-10.2-5-17.9-23.3c4.8,0.4,9.5,0.8,14.3,1.2
c0,0-14.1-6.6-19.2-34.3c-9.6,26.5-24.6,30.7-24.6,30.7c4.8,0.4,9.5,0.8,14.3,1.1c-10.5,16.8-21.4,20.1-21.4,20.1
c4.1,0.3,8.2,0.6,12.3,1c-12.9,16.4-24.9,19.8-24.9,19.8l76.2,6.3C1378.5,168,1367.2,162.7,1357.2,144.3z"></path>
<path class="" style="opacity: 1;fill: #d3d9bf;" d="M1593.7,159.5c5.8,0.7,11.6,1.4,17.4,2.1c0,0-14.3-7.6-24.2-34c6.8,0.8,13.5,1.6,20.3,2.5
c0,0-19.8-10.2-25.7-49.7c-15,37.1-36.6,42.4-36.6,42.4c6.8,0.8,13.5,1.5,20.3,2.3c-15.8,23.4-31.5,27.5-31.5,27.5
c5.8,0.7,11.6,1.3,17.4,2c-19.1,22.7-36.3,27-36.3,27l104,12.2c1.3,0.2,2.7,0.3,4,0.5C1622.7,194.2,1607,186,1593.7,159.5z"></path>
</svg>