<?xml version="1.0" encoding="utf-8"?>
<!-- Generator: Adobe Illustrator 28.0.0, SVG Export Plug-In . SVG Version: 6.00 Build 0)  -->
<svg version="1.1" id="Layer_1" xmlns="http://www.w3.org/2000/svg" xmlns:xlink="http://www.w3.org/1999/xlink" x="0px" y="0px"
	 viewBox="0 0 450 450" style="enable-background:new 0 0 450 450;" xml:space="preserve">
<style type="text/css">
	.st0{fill:#231F20;}
</style>
<path class="st0" d="M450,269.2v7.4c-1,19-7.4,35.6-19.2,49.7c-11.6,13.9-26.5,23.1-44.9,27.7c-3,0.8-6.2,1.2-9.4,1.6
	c-5.7,0.8-11.8,0.8-18.2,0c-17-2-32-8.5-45-19.7c-2.9-2.5-5.5-5.1-8-7.9c-9.8-11.2-16.1-23.9-18.9-38c-3.4-16.8-1.7-33.2,5-49.1
	c1.5-3.4,3.2-6.7,5.1-9.9c8.6-14.1,20.5-24.9,35.6-32.1c2.5-1.2,5-2.1,7.6-3.2c0.2-0.1,0.3-0.2,0.2-0.4l-6.4-26.6
	c0-0.2-0.2-0.3-0.4-0.2c-0.1,0-0.1,0.1-0.2,0.1c-0.4,0.5-0.8,1-1.5,1.6c-39,36-77.9,72.1-116.7,108.2c-1,0.9-2.3,1.8-4.1,2.7
	c-0.8,0.4-2.5,0.5-3.4,0.5c-14.1,0-28.2,0-42.2,0c-0.2,0-0.3,0.1-0.3,0.3c-1,10.3-3.8,19.9-8.4,28.8c-7,13.8-17,24.7-30,32.9
	c-13.7,8.6-28.9,12.8-45.7,12.6c-3.7,0-7.5-0.4-11.4-1.1c-15-2.6-28.1-8.5-39.3-17.9c-14.6-12.2-24-27.6-28.3-46.4
	c-0.9-4.1-1.5-9.1-1.8-15.2V271c0.7-16.2,5.4-30.7,14.1-43.6c9.6-14.2,22.6-24.6,39.1-31.1c3.3-1.3,6.8-2.4,10.5-3.2
	c19.1-4.4,37.5-2.3,55.3,6.3c1.9,0.9,3.7,2,5.6,3.1c0.2,0.1,0.3,0.1,0.5-0.1l39-49.4c0.2-0.2,0.2-0.4,0.1-0.7
	c-3.9-13.9-7.7-27.8-11.6-41.7c-0.9-3.1-0.4-5.9,1.3-8.5c2.3-3.3,5.7-4.3,9.6-4.3c12.6,0.1,24.9,0.1,36.8,0c2.1,0,3.8,0.2,5,0.7
	c4.1,1.7,6.6,5.7,6.1,10.1c-0.6,5.2-4.9,8.7-10.2,8.7c-8.9,0-17.6,0-26.3,0c-0.2,0-0.3,0.1-0.2,0.3l7.2,26c0,0.1,0.1,0.1,0.2,0.1
	h145c0.2,0,0.3-0.1,0.3-0.3l-7.1-29.8c0-0.2-0.2-0.3-0.4-0.3c-6.6-0.1-14.2,0-22.8,0c-2.6,0-4.6-0.2-5.9-0.6
	c-6.9-2.2-8.7-11-3.7-16.1c2.1-2.1,4.7-2.9,7.6-2.9c11.1,0.1,21.7,0.1,31.6,0c5.4,0,9.5,2.5,10.8,8c7.2,29.8,14.3,59.5,21.4,88.9
	c0.1,0.3,0.2,0.4,0.5,0.3c5.5-0.5,11.4-0.5,16.5,0.1c2,0.3,4,0.5,6,0.9c2.9,0.5,5.7,1.3,8.5,2c2.2,0.6,4.4,1.5,6.5,2.2
	c1.4,0.5,3,1.1,4.5,1.9c2,1,3.9,1.8,5.8,2.9c7,4,13.2,8.7,18.6,14.1c11.7,11.9,19.2,26,22.5,42.5C449,260.5,449.5,264.3,450,269.2z
	 M187.8,163.3c-0.1,0-0.2,0.1-0.2,0.2c0,0,0,0,0,0.1l25,89.8c0,0.1,0.1,0.2,0.2,0.1c0,0,0.1,0,0.1,0l96.8-89.8
	c0.1-0.1,0.1-0.2,0-0.3c0,0-0.1-0.1-0.1-0.1H187.8z M194.7,261.7l-23.8-85.5c0-0.1-0.1-0.1-0.2-0.1c0,0-0.1,0-0.1,0.1l-30,38
	c-0.1,0.2-0.1,0.4,0,0.5c13,13,20.9,28.7,23.7,46.9c0,0.2,0.2,0.3,0.4,0.3h29.8C194.6,261.9,194.7,261.8,194.7,261.7
	C194.7,261.7,194.7,261.7,194.7,261.7z M112.5,217.8c-8-4.5-17.4-6.9-26.4-7.4c-17.6-0.9-34.7,5.3-47.4,17.7
	c-7.9,7.7-13.4,16.7-16.5,27c-2.4,8-3.2,16.1-2.4,24.3c1.3,13,6.1,24.5,14.5,34.5c6.5,7.8,14.4,13.6,23.7,17.5
	c11.8,4.9,24,6.2,36.5,3.8c9.6-1.8,18.2-5.7,25.9-11.6c13.7-10.5,21.9-24.5,24.6-42c0-0.2-0.1-0.3-0.3-0.4c0,0,0,0,0,0
	c-20.4,0-40.8,0-61.4,0c-2.2,0-4.2-0.3-6.2-1.6c-2.6-1.8-4.1-4.2-4.4-7.4c-0.3-3.2,1.1-5.6,3-8.1c12.1-15.2,24.3-30.6,36.6-46.2
	C112.6,218,112.6,217.9,112.5,217.8z M395.7,217c-9.9-4.9-20.5-7.1-31.6-6.6c-0.2,0-0.3,0.1-0.2,0.3c4.2,17.9,8.6,35.6,12.8,53.4
	c0.5,2.1,0.6,3.9,0.3,5.3c-0.9,4.5-4.9,7.7-9.5,7.8c-3.3,0-5.9-1.3-8-4.1c-0.8-1-1.5-3-2.2-6c-4.2-17.5-8.3-35-12.5-52.3
	c0-0.1-0.1-0.2-0.2-0.1c0,0,0,0,0,0c-14.7,6-25.8,15.9-33.2,29.9c-1.7,3.3-3.2,6.9-4.3,10.7c-3.1,10.3-3.5,20.7-1.2,31.3
	c4.6,22,21.3,40.3,42.6,46.9c14.9,4.6,29.6,3.9,44-2.1c3.4-1.4,6.7-3.2,9.9-5.4c10.8-7.2,18.7-16.9,23.6-28.8
	c5.6-13.6,6.1-29.2,1.7-42.9c-5.2-15.9-15.2-28-30-36.4C396.9,217.7,396.3,217.3,395.7,217z M141.9,252c-3-8.3-7.6-15.6-13.6-22
	c-0.1-0.1-0.2-0.1-0.3,0c0,0,0,0,0,0c0,0.1-0.1,0.1-0.1,0.2c0,0.1-0.1,0.2-0.1,0.2c-8.2,10.4-16.4,20.8-24.6,31.2
	c-0.1,0.1,0,0.2,0,0.3c0,0,0.1,0,0.1,0h41.1c0.2,0,0.3-0.1,0.2-0.3C144.1,258.7,143.2,255.4,141.9,252z"/>
</svg>
