<?xml version="1.0" encoding="utf-8"?>
<!-- Generator: Adobe Illustrator 28.0.0, SVG Export Plug-In . SVG Version: 6.00 Build 0)  -->
<svg version="1.1" id="Layer_1" xmlns="http://www.w3.org/2000/svg" xmlns:xlink="http://www.w3.org/1999/xlink" x="0px" y="0px"
	 viewBox="0 0 450 450" style="enable-background:new 0 0 450 450;" xml:space="preserve">
<style type="text/css">
	.st0{fill:#1E191A;}
</style>
<ellipse transform="matrix(3.141081e-02 -0.9995 0.9995 3.141081e-02 274.795 380.8294)" class="st0" cx="333.9" cy="48.6" rx="34.6" ry="34.6"/>
<path class="st0" d="M245.8,109.2l-30.6-0.1c-0.1,0-0.3,0.1-0.3,0.2c-17.6,20.4-35.6,41.2-54,62.5c-3.6,4.2-8.9,6.3-14.3,5.9
	c-6-0.5-11.5-4-14.2-9.5c-2.9-5.8-2.5-12.9,1.4-18.2c1.1-1.5,2.4-2.7,3.6-4c18.8-21.7,37.3-43.1,55.5-64.2c1-1.2,1.9-2.2,2.7-2.9
	c2.7-2.6,5.8-4.2,9.6-4.7c1.3-0.2,3.3-0.3,6.2-0.2c26,0.1,52,0.1,78,0c2.7,0,4.8,0.1,6.4,0.5c4.6,0.9,8.5,3,11.8,6.3
	c17.7,17.8,35.4,35.5,53,53.2c0.1,0.1,0.1,0.1,0.2,0c14.4-14.4,28.7-28.7,43-43c1.2-1.2,2.2-2,3-2.6c10.8-7.1,25.2-0.6,27.4,12
	c0.8,4.5,0,8.6-2.3,12.5c-0.6,1-1.7,2.3-3.2,3.8c-16.2,16.4-32.4,32.8-48.6,49.1c-2.4,2.4-4.9,5-7.7,7c-5.6,3.9-11.9,5.2-18.3,2.6
	c-3-1.2-5.2-3-7.7-5.5c-10.4-10.5-20.8-21.1-31.3-31.5c-0.1-0.1-0.2-0.1-0.2,0c0,0,0,0,0,0l-51.1,59.2c0,0,0,0.1,0,0.1
	c31.3,31.4,47,47.1,47.1,47.3c5.6,6.1,6.7,15.3,5.1,23.3c-0.4,2-1,4-1.5,6.2c-8.9,39.6-17.5,78.4-26,116.4c-1,4.6-3.6,8.7-7.7,12
	c-6.8,5.7-16.6,6.7-24.5,2.4c-4-2.2-7.1-5.3-9.3-9.3c-2.6-4.8-3.2-10-1.9-15.7c7.2-32.2,14.4-64.4,21.7-96.7c0-0.1,0-0.3-0.1-0.4
	l-53-51.7c-0.1-0.1-0.2-0.1-0.3,0c-15.5,17.3-30.6,34.2-45.5,50.8c-1.1,1.3-2.4,2.3-3.7,3.2c-6.4,4.2-14.3,5.7-21.9,5.6
	c-1,0-1.9,0-2.9,0c-30,0-60,0.1-90.1,0.2c-2.8,0-5-0.1-6.5-0.4c-11-2.2-18.5-12-18.1-23c0.4-10.2,7.8-18.9,17.9-20.8
	c1.5-0.3,3.6-0.4,6.3-0.4c26.8,0.1,53,0.2,78.7,0.2c0.1,0,0.1,0,0.2-0.1l118.2-137.4C245.8,109.3,245.8,109.2,245.8,109.2
	C245.8,109.2,245.8,109.2,245.8,109.2z"/>
<path class="st0" d="M301.7,407.7l134.8-276.5c0-0.1,0.1-0.1,0.2-0.1l0,0l13.2,6.2c0.1,0,0.1,0.1,0.1,0.2c0,0,0,0,0,0L316.5,407.8
	c0,0-0.1,0.1-0.1,0.1l-14.5,0C301.8,407.9,301.7,407.8,301.7,407.7C301.7,407.7,301.7,407.7,301.7,407.7z"/>
<path class="st0" d="M0,164h121.7c0.1,0,0.1,0,0.1,0.1v9.2c0,0.1,0,0.1-0.1,0.1H0c-0.1,0-0.1,0-0.1-0.1L0,164
	C-0.1,164.1-0.1,164,0,164z"/>
<path class="st0" d="M98.9,385.7C65.9,352.6,33,319.4,0.1,286.3c-0.1-0.1-0.2-0.3-0.2-0.4l0-19.7c0-0.1,0-0.1,0.1-0.1
	c0,0,0.1,0,0.1,0c38.1,38.3,76.5,76.9,115.2,115.9c0.7,0.7,1.3,1.2,1.9,1.4c4,1.9,9.5-0.2,12.9-2.4c0.1-0.1,0.2-0.1,0.3,0l9.8,10.6
	c0.1,0.1,0.1,0.2,0,0.3c0,0,0,0,0,0c-8,5.5-20.3,10.5-29.6,5c-1-0.6-2.7-2-4.9-4.3C103.4,390.3,101.2,388,98.9,385.7z"/>
<path class="st0" d="M403.6,426.6c9.4,0,16.4-8,16.7-17c0-0.1,0.1-0.2,0.2-0.2l10.6-0.3c0.1,0,0.2,0.1,0.2,0.2
	c-0.2,13.3-9.7,24.1-22.8,26.3c-1.5,0.3-3.7,0.4-6.4,0.4c-89,0-179.3,0-270.8,0c-0.1,0-0.1,0-0.1-0.1c0,0,0,0,0,0l0-9.1
	c0-0.1,0.1-0.1,0.1-0.1c0,0,0,0,0,0C222.1,426.6,312.8,426.6,403.6,426.6z"/>
</svg>
