<?xml version="1.0" encoding="utf-8"?>
<!-- Generator: Adobe Illustrator 28.0.0, SVG Export Plug-In . SVG Version: 6.00 Build 0)  -->
<svg version="1.1" id="Layer_1" xmlns="http://www.w3.org/2000/svg" xmlns:xlink="http://www.w3.org/1999/xlink" x="0px" y="0px"
	 viewBox="0 0 450 450" style="enable-background:new 0 0 450 450;" xml:space="preserve">
<path d="M340.8,399.3c-10.8,7-22.3,12.6-34.5,16.9c-0.3,0.1-0.5,0.3-0.4,0.7c0.3,5.3,0.4,11.2,0.3,18c-0.1,4.2-3,7.5-7.2,7.5
	c-26.5,0-50.1,0-70.9,0c-7.3,0-13.1-2.6-17.5-7.7c-4-4.7-5.3-10-5.2-16.2c0.1-4.1,0.1-8.3,0-12.5c0-2.5-1.5-4-3.5-5.3
	c-8-5.8-13.4-13.2-16.2-22.4c-0.2-0.6-0.4-1.1-0.6-1.7c-0.1-0.3-0.4-0.5-0.7-0.5c-18.5-4.3-32.7-14.5-42.5-30.7
	c-1.6-2.6-4-7.4-7.4-14.4c-0.2-0.3-0.1-0.6,0.3-0.8l11.9-5.9c0.3-0.2,0.5-0.1,0.7,0.2c1.4,2.8,2.8,5.6,4.2,8.5
	c6.7,13.8,17.4,23.5,32.2,28.1c0.2,0.1,0.4,0,0.4-0.2c0,0,0,0,0-0.1c1.5-12.4,7-22.4,16.5-30.1c3.1-2.5,7.6-5,13.4-7.6
	c10.7-4.7,20.2-9.2,28.7-13.4c21-10.4,40.7-23.6,58.9-39.5c0.4-0.4,0.3-0.5-0.2-0.5c-10.5,0.1-20.6,0-30.3,0
	c-18.4-0.1-35.2-12.4-41.4-29.6c-7.1-19.8,0-40.8,16.9-52.7c27.8-19.6,55.5-39.2,83.1-58.7c35.2-24.9,19.6-79.1-23.3-81.8
	c-0.3,0-0.4,0.1-0.4,0.4c0,8.8,0.1,18.3,0,28.5c-0.2,46.9-35.1,86.6-81.6,92.5c-4.3,0.6-10,0.8-16.9,0.8
	c-61.3-0.1-121.8-0.1-181.6,0c-12.4,0-22.3-10-21.9-22.4c0.4-11.6,9.5-20.2,21-20.8c0.4,0,0.6-0.2,0.6-0.6v-42
	c0-0.2-0.2-0.4-0.4-0.4c-3.9-0.1-8.1-0.1-12.7,0C7.5,82.9,4,80,4,74.9c0-9.2,0.1-18.3,0-27.3c0-4.7,2.8-8,7.4-8
	c84.7,0,168.3,0,250.8,0c0.4,0,0.8-0.4,0.8-0.8c0,0,0,0,0,0c0-7.3,0-14.1,0-20.5c0-4.7,3.4-7.5,7.9-7.5c8.9,0.1,18,0.1,27.2,0
	c5.4,0,8.2,3.5,8.1,8.5c-0.1,4.8-0.1,9.1-0.1,12.7c0,0.3,0.2,0.5,0.5,0.5c22.5,1.2,40.7,13.1,50.8,33c7.9,15.5,8,33.6,1.2,49.9
	c-4.2,10-11.5,18.7-22,26c-28,19.7-55.8,39.3-83.3,58.8c-3.4,2.4-6.7,6.4-8.6,10.2c-8.6,17.5-0.4,37.3,18.1,43.4
	c3.1,1,7.4,1.5,12.7,1.5c13.4-0.1,26-0.1,38.1,0c0.4,0,0.6-0.2,0.7-0.6c2.1-14.1,4.3-28.5,6.6-43c4.3-27.1,25.1-47,52.4-50.3
	c5.7-0.7,10.6-0.3,14.7,1.2c6.1,2.3,11.9,7.4,14.3,13.7c1.9,4.9,3.9,8.1,9.5,9c4.7,0.8,9.4,1.5,14.2,2.2c3.7,0.5,6.9,1.4,9.4,2.5
	c11.9,5.3,17.9,19.8,12.7,32c-3.3,7.8-9.2,12.7-17.8,15c-6.5,1.7-13,3.3-19.5,4.7c-5.5,1.3-9.2,2.6-11.3,4.1
	c-8.7,6.1-9.4,18.5-1.8,26c5.9,5.9,9.1,14.1,9.1,22.3c-0.1,22.4-7.1,43-21.1,61.8c-0.3,0.4-0.4,0.9-0.4,1.4v36.2
	c0,0.3,0.2,0.5,0.5,0.6c10.1,3.1,17.1,9,20.1,19.3c1.8,6.2,0.9,14.1,1.1,20.9c0.1,5.3-3.3,8-8.3,8c-14.5-0.1-28.3-0.1-41.5,0
	c-4.5,0-7-2.6-7.9-6.8c-2.4-11.7-5-23.7-7.7-36C341.4,399.2,341.1,399.1,340.8,399.3z M276.5,86.1c-4.7,31.3-32.9,54.2-64,54.2
	c-60.9,0-123.2,0-186.7,0c-9.8,0-9.7,14.4,0.1,14.4c61.5,0,121.4,0,179.6,0c7.6,0,13.5-0.3,17.8-0.9c34.9-4.8,62.2-31.9,67.5-66.5
	c0.7-4.6,1-10.4,1-17.4c-0.1-14.7-0.1-29.5,0-44.4c0-0.2-0.2-0.5-0.4-0.5c0,0,0,0,0,0h-13.5c-0.3,0-0.5,0.2-0.5,0.5
	c-0.1,14.5,0,29.2,0,44.1C277.5,76.2,277.1,81.7,276.5,86.1z M19,54c-0.3,0-0.6,0.3-0.6,0.6l0,0l0,13.2c0,0.3,0.3,0.6,0.6,0.6
	c0,0,0,0,0,0h243.4c0.3,0,0.6-0.3,0.6-0.6c0,0,0,0,0,0l0-13.2c0-0.3-0.3-0.6-0.6-0.6h0H19z M54.4,83.5c0-0.4-0.3-0.7-0.7-0.7
	c0,0,0,0,0,0H40.7c-0.4,0-0.7,0.3-0.7,0.7l0,0v41.7c0,0.4,0.3,0.7,0.7,0.7c0,0,0,0,0,0h12.9c0.4,0,0.7-0.3,0.7-0.7l0,0V83.5z
	 M183.9,83.6c0-0.5-0.4-0.8-0.8-0.8l0,0H69.6c-0.5,0-0.8,0.4-0.8,0.8v0v41.5c0,0.5,0.4,0.8,0.8,0.8h0H183c0.5,0,0.8-0.4,0.8-0.8l0,0
	V83.6z M212.6,83.4c0-0.4-0.3-0.6-0.6-0.6l0,0h-13.1c-0.4,0-0.6,0.3-0.6,0.6l0,0v41.9c0,0.4,0.3,0.6,0.6,0.6l0,0H212
	c0.4,0,0.6-0.3,0.6-0.6l0,0V83.4z M227.4,123.7c18.3-6.1,32.1-21.1,34.9-40.4c0-0.4-0.1-0.5-0.5-0.5h-34.1c-0.4,0-0.7,0.2-0.7,0.7
	v40C227,123.6,227.1,123.7,227.4,123.7C227.3,123.7,227.3,123.7,227.4,123.7z M337.7,207.4c-0.4-1.2-0.7-1.2-1,0
	c-0.6,2.3-1.2,4.7-1.5,7.2c-1.9,12.6-4.1,26.3-6.4,41.2c0,0.2,0.1,0.3,0.2,0.3c0,0,0,0,0,0l48.7,4.4c0.2,0,0.3-0.1,0.3-0.3
	c-0.2-11.2,5.5-21.5,15-27.3c3.1-1.8,7.8-3.5,14.3-5c6.8-1.6,13.5-3.2,20.1-5c11.4-3,10.5-18.7-1.1-20.6c-5.6-0.9-11.1-1.8-16.6-2.6
	c-7.9-1.3-13.9-5.2-18.1-11.8c-1.4-2.2-2-4.8-3.2-7c-2-3.6-5.3-5.4-9.8-5.4c-0.4,0-0.7,0.2-0.7,0.6c-0.1,9.1-0.1,17.9,0,26.3
	c0.1,4.8-0.3,8.3-1.1,10.5c-6.3,18.2-31.5,17.8-37.6-0.2C338.9,211,338.3,209.2,337.7,207.4z M363.2,178.8
	c-6.3,2.6-11.6,6.2-15.9,10.8c-0.2,0.2-0.3,0.5-0.2,0.8c2,5.8,3.9,11.8,5.9,17.8c2,6.1,10.6,4.8,10.6-1.5c0-9.2,0-18.4,0-27.6
	c0-0.2-0.1-0.3-0.3-0.3C363.3,178.8,363.3,178.8,363.2,178.8z M371.5,320.1h13.2c0.3,0,0.5,0.2,0.5,0.5c0,0,0,0,0,0
	c-0.1,2.2-0.1,4.4,0.1,6.6c0,0.7,0.2,0.7,0.4,0.1c3.9-9,6.1-19.2,6.7-30.5c0.2-3.8-0.4-7.1-1.7-9.9c-2-4.2-5.7-6.9-8-11.1
	c-0.2-0.4-0.5-0.5-0.9-0.6l-58.4-5.3c-0.2,0-0.4,0.1-0.6,0.2c-23.8,23.2-51,41.9-81.7,56.2c-6.1,2.8-12.2,5.6-18.4,8.4
	c-7.2,3.2-12.1,6-14.6,8.3c-12.4,11.3-13.4,30-2,42.3c1.1,1.2,2.4,2.3,3.7,3.2c4.3,3,7.6,6.6,9,11.7c1.5,5.3,0.9,12.4,0.8,18.4
	c-0.1,5.4,2.1,9.3,7.9,9.3c21.1,0,42.3,0,63.7,0c0.2,0,0.4-0.2,0.4-0.4c0,0,0,0,0,0c-0.2-4.6,1.3-10.6-4-13.2
	c-1.1-0.5-2.2-0.8-3.3-0.8c-9.1,0-18.1,0-27.1,0c-1.3,0-2.6-0.1-3.8-0.5c-4.6-1.3-6.3-7-3.7-10.8c1-1.5,2.8-2.6,5.3-3.5
	c2.5-0.9,4.6-1.9,6.5-3.1c14.5-8.9,22.1-21.9,22.9-39.2c0-0.4,0.2-0.5,0.6-0.5h13.3c0.3,0,0.5,0.2,0.5,0.5
	c-0.4,16.5-6.2,30.5-17.5,42c-0.5,0.5-0.4,0.8,0.3,0.7c6-0.5,11.2,1,15.7,4.4c0.3,0.2,0.6,0.3,0.9,0.1c14.2-4.7,27.3-11.3,39.4-19.9
	c0.2-0.1,0.3-0.4,0.3-0.7l-10.1-47c0-0.2,0-0.3,0.2-0.4l13.4-2.9c0.2,0,0.4,0.1,0.4,0.3l20.2,94.4c0,0.2,0.2,0.3,0.4,0.3h29.2
	c0.4,0,0.6-0.2,0.6-0.6c0.1-3.6,0-6.2-0.1-7.8c-1-9.7-9.1-11-16.7-13.7c-3.1-1.1-4.7-4-4.7-7.1c0-25.8,0-51.8,0-78
	C370.8,320.4,371.1,320.1,371.5,320.1z"/>
</svg>
