<?xml version="1.0" encoding="utf-8"?>
<!-- Generator: Adobe Illustrator 28.0.0, SVG Export Plug-In . SVG Version: 6.00 Build 0)  -->
<svg version="1.1" id="Layer_1" xmlns="http://www.w3.org/2000/svg" xmlns:xlink="http://www.w3.org/1999/xlink" x="0px" y="0px"
	 viewBox="0 0 450 450" style="enable-background:new 0 0 450 450;" xml:space="preserve">
<g>
	<circle cx="264.3" cy="56.9" r="28.7"/>
	<path d="M294.5,160.2c-11.9,1.7-40.1,5.4-45.7-9.2c-1.4-3.6-2.6-7.3-3.7-11.1c-0.4-1.4-0.8-1.4-1.4-0.1l-12.3,28.8
		c-0.3,0.6,0,1.3,0.6,1.6c0.1,0,0.1,0,0.2,0.1c13.7,3.3,25.9,7.5,36.7,12.6c16.4,7.8,10.2,31.5,6.7,45.7c-4.8,19.1-9.4,35.2-14,48.4
		c-6,17.4-32.4,9.6-26-9.9c6.7-20.3,12.1-40.4,16-60.1c0.2-1.2-0.4-2.4-1.6-2.8c-14.2-4.8-28.6-9.1-43.4-12.8
		c-6.6-1.6-14-4.4-20.3-7.2c-8.3-3.7-11.4-10.3-9.5-19.7c5.8-28.6,19.5-53,41.1-73.1c6.4-6,13.4-8,21-6.1c7.6,1.9,19.6,6.8,21,15.8
		c1.9,12.5,4.3,24.9,7.2,37.3c0.2,0.8,0.9,1.4,1.7,1.4c8.8,0.3,17.6-0.4,26.4-1.9c4.3-0.8,7.7,0.5,10.4,3.9c0.7,0.9,1.3,0.8,1.9-0.1
		c12.5-20.3,25.7-41.6,41.5-59.3c8.9-10,15.8,13.9,16.6,18.5c0.2,0.9,0.7,1.7,1.5,2.2c24.6,15.4,46.5,33.3,65.5,53.8
		c7.2,7.7,12.6,15.3,16.4,22.7c3.6,7-5.8,26.5-15.5,19.7c-4.3-3-8.6-4.6-13-4.6c-17.9-0.3-34.9,2.1-46.8-14.1
		c-1.9-2.6-3-2.3-3.4,0.9c-3.1,26.1-2.5,52.7-7.9,77.9c-1.7,8.1-5.6,15.4-8.1,23.4c-6.2,19.4-13.5,38.4-21.8,56.9
		c-1.5,3.4-1.6,7.4-1,11c3.7,20.1,7.8,41,12.3,62.7c1.2,6-0.8,12-7.9,12.4c-7.2,0.5-13.4,1.1-16.4-7c-8.7-23.4-17.4-46.6-26-69.7
		c-0.8-2-1-4.2-0.7-6.4l4.6-35.8c0.1-0.7-0.4-1.3-1.1-1.4c-0.1,0-0.2,0-0.3,0c-38.6,6.7-80.3,7.3-116.1-4.4c-0.9-0.3-1.5,0-1.6,1
		c-2.1,12.1-6.2,23.3-12.1,33.5c-2.1,3.6-2.6,7.4-1.6,11.3c5,18.5,10.9,39.6,17.7,63.2c3.9,13.3-11.5,13.5-19.4,14.4
		c-4.5,0.6-7.1-2.3-8.7-6c-12-28.1-21.1-51.5-27.6-70.1c-2.6-7.6-5.7-24.7-9.4-51.5c-0.1-1-0.7-1.7-1.6-2.2
		c-2.8-1.4-5.3-3.3-7.5-5.6c-15.2-16.5-26.6-43.2-23.6-66.6c0.1-0.5-0.3-1-0.8-1.1c-0.1,0-0.3,0-0.4,0c-9.4,3.3-15.3,9.9-17.6,19.7
		c-5.5,24-6.2,47.2-31.9,59.1c-15.7,7.2-27.2-4.3-30.8-18.4c-0.4-1.6,0.1-3.3,1.3-4.4C19,264.9,30.9,247,37.9,227.3
		c8.8-24.8,33.2-30.6,57-27.5c0.8,0.1,1.5-0.1,2.1-0.6c17.5-15.6,49.2-16.9,71.4-14.8c0.9,0.1,1.7,0.5,2.2,1.3
		c2.2,3.3,4.8,5.8,8,7.5c17.5,9.1,39.7,13.6,59.4,19.3c0.9,0.3,1.4,1.1,1.2,2c-4.3,17.7-9.1,34.6-14.3,50.6
		c-10.3,32.1,36.9,48.6,48.2,14.7c8.2-24.5,13.9-46.8,17.2-66.8c2-12.2,0.3-22.8-5.2-31.8c-0.5-0.8-0.5-1.6,0-2.5l10.2-17.4
		C295.9,160.4,295.6,160,294.5,160.2z"/>
	<path d="M93.9,291.6c0.1-0.3,0.4-0.4,0.7-0.3c0.1,0,0.1,0.1,0.2,0.1l10.6,11.2c0.7,0.7,1.1,1.6,1.2,2.6c1.5,12,3.5,23.8,6.1,35.6
		c0.6,3,0.5,6.1-0.3,9.4c-6,22.5-11.7,43.9-17,64.2c-2.8,10.8-15.7,5.1-22.3,3.4c-5.2-1.4-7.3-4.9-6.3-10.5
		c4.2-23.2,8.6-46.9,13.1-71.1C82.8,320.8,88.6,306.2,93.9,291.6z"/>
	<path d="M344,343.2c4.3-10.2,8.5-20.4,12.2-30.9c0.3-0.9,0.9-1.1,1.6-0.4c5.8,5.4,9.9,10.9,12.2,16.3
		c10.7,25.7,21.1,51.1,31.3,76.1c2.1,5.2-1.2,10.2-6.3,11.7c-6.8,2-14.5,5.3-19.1-2.7c-9.8-17.1-19.6-34.2-29.5-51.4
		C344,357.7,342.1,347.7,344,343.2z"/>
</g>
</svg>
