<?xml version="1.0" encoding="utf-8"?>
<!-- Generator: Adobe Illustrator 28.0.0, SVG Export Plug-In . SVG Version: 6.00 Build 0)  -->
<svg version="1.1" id="Layer_1" xmlns="http://www.w3.org/2000/svg" xmlns:xlink="http://www.w3.org/1999/xlink" x="0px" y="0px"
	 viewBox="0 0 450 450" style="enable-background:new 0 0 450 450;" xml:space="preserve">
<path d="M11.4,284.2c-1.4-4.5-2.5-8.9-3.3-13.1c-1.6-9.2-2.8-18.1-3.5-26.5c-0.5-5.4-0.7-10.7-0.5-16.1c0.4-9.4,1.1-18.5,2.2-27.5
	c0.5-4,1.1-7.8,1.9-11.5c4-19.1,9.5-36.6,17.4-53.2c3.5-7.2,7.1-14.6,10.9-22.1c2-3.8,4.3-7.8,6.6-11.6c4.9-8,10.2-16,15.8-24
	c6.2-8.8,13.2-16.7,20.1-25.1c1.7-2,3.2-3.8,4.7-5.4c5.9-6.5,12.5-12.7,19.8-18.6c1.9-1.5,3.9-3,6.1-4.3c5.8-3.7,11.5-6.8,17.3-9.3
	c4.1-1.8,8.4-3.3,13-4.4c7.8-1.9,15.9-3.4,23.4-4.4c5.8-0.7,11.8-1.2,18.2-1.4c3.2-0.1,4.8-0.1,4.8-0.1c15.6-0.6,32.8-0.6,51.4-0.3
	c8.7,0.2,16.3,0.7,22.8,1.7c10.1,1.5,19.8,3.3,29.1,5.4c7.7,1.8,15.4,4.1,23.1,7c6.1,2.3,13.7,5.6,22.8,9.9
	c11.4,5.4,22.6,11.2,32.3,17c6.5,3.9,12.8,7.7,18.9,11.5c7,4.4,14.1,9.4,19.7,15.1c3.8,4,6.7,9,9,14.3c1.2,2.7,2.1,4.9,2.6,6.6
	c1.3,4,1.7,8,1.4,12.2c-0.1,1.5-1.4,2.3-2.5,2.9c-2.2,1.3-4.5,2.6-6.9,3.8c-1.1,0.6-2.3,1.1-3.6,1.5c-4.5,1.5-8.9,3-13.2,4.4
	c-0.7,0.2-1.3,0.5-1.9,0.9c-1.2,0.7-2,1.8-3.1,2.7c-1.3,1.1-2.4-0.6-3-1.7c-1-1.8-1.8-3.7-2.9-5.4c-1.6-2.6-3.2-5.2-4.8-7.8
	c-1.9-3-4.2-6-6.8-9c-2.5-2.9-5.1-5.8-7.6-8.7C358.3,84,352.7,79,346.4,75c-1.9-1.3-4-2.4-6.2-3.4c-3.8-1.8-7.5-3.6-11.2-5.6
	c-7.8-4.2-16.8-9-27-14.2c-15.1-7.7-31.7-14.7-49.6-20.9c-13.7-4.7-27.6-7.9-41.5-9.6c-9.2-1.1-18.2-1.4-27-0.9
	c-2.9,0.2-6,0.5-9.4,1.1c-4.1,0.7-7.9,1.3-11.4,1.9c-2.6,0.4-4.9,0.9-7,1.4c-3,0.8-6.6,2-10.8,3.6c-3.7,1.5-7.3,2.9-10.9,4.4
	c-9.2,3.8-17.8,8.5-25.9,13.9c-6,4-11.7,8.5-17.2,13.5c-16.9,15.4-30.6,33.2-41.2,53.6c-3.8,7.2-7.2,14.8-10.2,22.6
	c-3.2,8.4-5.7,17-8.2,25.5c-1.2,3.9-2.1,7.9-2.9,12c-1.6,8.5-2.9,17.1-3.8,25.7c-0.7,6.4-1,12.7-1.2,19.3
	c-0.1,5.2,0.1,10.1,0.4,15.2c0.6,11.4,1.6,21.5,3,30.1c1.9,12.5,5.9,25.4,10.5,37.8c0.9,2.4,1.8,4.6,2.8,6.7
	c4.3,9.5,9.2,18.7,14.7,27.5c1.3,2,2.6,4,4,5.7c3.6,4.7,7.4,9.1,11.3,13.1c3.6,3.7,7.9,7.2,12.8,10.3c16.6,10.6,33.4,21.5,50,31.2
	c5.3,3.1,11.3,6.4,18.1,10c7.2,3.8,14.2,7.1,20.9,9.7c7.1,2.8,14.3,5.6,21.6,7.8c6.4,2,11.7,3.4,16,4.3c5.3,1.1,11.7,2,18.9,2.7
	c7.2,0.7,14.2,0.8,20.8,0.4c5.4-0.4,10.9-0.8,16.7-1.2c5.9-0.5,11.6-1.2,17.1-2.2c8-1.4,16.1-3.3,24.1-5.5c2.7-0.8,5.4-1.7,7.9-2.8
	c7.3-3.2,14.3-6.6,20.9-10.1c2.4-1.3,4.6-2.6,6.5-3.8c9.1-5.9,17.4-12.9,24.9-20.9c3.5-3.8,6.6-7.1,9.1-10c6-6.9,11.8-15.3,17.4-25
	c3.4-5.9,6.1-11.1,8-15.6c3.5-8,6.6-16.4,9.5-25.2c2.9-8.7,4.9-16.4,6.1-23c0.9-5.1,1.9-10.6,2.8-16.7c0.9-5.7,1.3-10.8,1.7-16.6
	c0.7-9.9,0.5-20.5-0.7-32c-0.5-4.4-0.8-8-1.1-10.6c-0.2-1.8-0.3-3.4-0.4-4.8c-0.1-3.2,0.1-6.6-0.3-9.7c-0.2-1.6-0.9-3.4-2.5-4.1
	c-3-1.2-7-0.9-10-0.4c-3.7,0.6-7.3,1.3-10.7,2c-3.8,0.7-7.6,0.8-11.5,0.9c-1.5,0.1-2.9,0.1-4.4,0.1c-9.7,0.1-19.3,0.3-28.7,0.4
	c-7.3,0.1-14.6,0.3-22,0.5c-13,0.3-25.9,1.3-38.8,3c-10.9,1.4-21.5,3.7-31.9,6.8c-3.5,1-6.9,2.4-10.3,3.9c-2.6,1.1-5.3,1.6-8,2.5
	c-0.8,0.3-1.4,0.7-1.8,1.2c-1.3,1.5,1,5.6,1.8,7c2,3.2,4,6.1,5.8,9.6c1.9,3.6,3.9,7.2,5.8,10.8c3,5.5,6.1,12,9.3,19.3
	c8.4,19.1,14.3,39.3,17.8,60.6c0.6,3.6,1,6.7,1.3,9.1c0.4,3.6,0.8,7.4,1.2,11.2c0,0.5,0.2,1,0.3,1.5c0.3,0.8,0.6,1.4,0.6,2.3
	c-0.1,1.6-0.4,3.1-1.1,4.7c-0.2,0.5-0.6,1-1.3,1.5c-1.3,1-2.5,1.9-3.7,2.6c-2.3,1.3-4.5,2.7-6.7,4.2c-0.3,0.2-1,0.5-2,0.9
	c-2.2,0.9-3.5-0.2-4.2-2.1c-1-2.5-1.6-5.1-2.7-7.5c-2.4-5.5-4.9-11.6-6.6-17.4c-1.7-5.8-3.4-12-5.3-18.7c-1.3-4.6-2.3-9.2-3.3-14
	c-3.2-15.9-7.1-31.6-11.7-47c-2.8-9.5-7-18-11.6-26.9c-1.1-2.1-2.2-3.9-3.5-5.6c-0.3-0.4-0.7-0.7-1.2-0.7c-0.6-0.1-1.1,0-1.7,0.1
	c-9.1,2.6-18.1,5.6-27,9c-10.2,3.9-19.8,8-28.7,12.1c-4.3,2-8.6,3.7-12.7,5.7c-3.2,1.5-6.2,3.6-9.2,5.8c-6.6,4.9-13.4,9.9-20.6,14.8
	c-7.5,5.2-15.6,10.2-24.3,13c-5.1,1.7-9.8,2.7-15,1.9c-0.9-0.1-1.6-0.4-2.2-0.9c-1.1-0.9-2.1-1.7-3.1-2.6c-0.7-0.7-1.4-1.7-2.1-3.1
	c-2-4.4-3.8-8.4-6.1-12.4c-0.9-1.6-1.7-2.8-2.5-3.7c-0.9-1-1.9-1.9-2.8-2.9c-1.6-1.7-0.2-3.1,1.3-3.9c2-1,4.1-1.8,6.1-2.9
	c2.1-1.2,4.4-2.5,6.8-3.9c7.6-4.4,15.8-8,24.6-11c1.7-0.6,4.9-1.5,9.7-2.8c14.9-4,30.2-7.8,46-11.4c8.1-1.9,16.8-3.6,23.8-5.3
	c7.8-1.8,16.5-4.2,26-7.1c3.5-1.1,7.2-1.9,10.3-4c0.6-0.4,0.6-1.2,0.3-1.8c-0.7-1.5-1.5-2.9-2.1-4.5c-2.5-6.6-4.9-12.5-7.2-17.7
	c-2.8-6.3-6.6-14.2-10-21.6c-3.2-6.9-6.9-15.4-11.2-25.4c-3.5-8.2-6.4-15.7-8.5-22.7c-2.9-9.4-5.2-19.5-7.1-30.4
	c-0.4-2.3-0.6-4.9-0.5-7.3c0-0.2,0.1-0.3,0.3-0.3c0,0,0.1,0,0.1,0c1.9,0.7,3.8,1.1,5.6,1.2c1,0.1,2.1,0,3.2-0.3
	c2.1-0.5,4.3-0.9,6.6-1.1c2.7-0.3,5.3-0.6,7.9-0.8c1.7-0.2,2.9,0.4,3.8,1.5c0.7,1.1,0.8,2.9,1.2,4.3c2,7.1,3.6,14.7,5,22.8
	c1.7,10.2,4,24,7,41.2c2.5,14.4,6.6,28.2,12.1,41.4c1.4,3.4,2.8,6.7,4.1,10.2c0.8,2,3.2,7.4,5.8,7c2-0.3,4.2-1.9,5.9-3
	c1-0.6,2.2-1.2,3.7-1.8c13-5,25.9-9.5,38.7-13.5c2.2-0.7,4.4-1.4,6.8-2.1c9.8-2.9,19.2-5.4,28.3-7.6c6.1-1.5,12.8-2.8,20.2-4.1
	c9.7-1.7,19.9-3.5,30.5-5.5c2.3-0.4,4.7-0.8,7-1.2c11.3-1.8,22.5-3.6,33.7-5.4c5.4-0.9,11.2-1.7,16.9-2.1c0.9-0.1,1.8,0,2.7,0.1
	c1.4,0.2,2.4,2.5,2.8,3.6c1,2.7,1.9,5.6,2.5,8.4c1.5,6.3,3,12.2,4.5,17.8c2.6,9.4,4.6,19.1,6.3,28.6c1.4,8,2.5,16.1,3.2,24.3
	c1.1,12.5,1.4,24.7,1.1,36.4c-0.1,2.8-0.3,6.1-0.8,9.9c-0.8,7.4-1.8,14.6-2.9,21.5c-1.9,11.6-4.8,22.7-9.6,33.2
	c-3.2,6.9-6.4,13.3-9.7,19.2c-3.4,6.1-7.5,12.3-12.1,18.6c-3.6,4.8-7.2,9.7-11,14.2c-7.8,9.1-16.4,17.6-25.8,25.5
	c-6.3,5.2-13.4,9.9-21.3,14c-6.5,3.4-12.8,6.1-18.8,8c-8.5,2.7-17.4,4.8-26.7,6.1c-12.2,1.7-24.4,3-36.7,4.2
	c-12.1,1.2-23.7,2-35.7,1.8c-12.8-0.2-25.4-1.6-37.9-4.5c-8.9-2-17.8-4.2-26.4-7.1c-7.4-2.5-14.7-5-21.9-7.6
	c-10.1-3.6-19.1-7.6-27.2-11.8c-10.6-5.6-20.7-11.9-30.4-19.1c-2.8-2.1-7.1-5.5-12.6-10.1c-14.2-11.8-26.5-25.1-36.8-39.8
	c-5.9-8.5-11.2-17.2-16-26.4C19.9,309.1,15.5,297.3,11.4,284.2z"/>
</svg>
