<?xml version="1.0" encoding="utf-8"?>
<!-- Generator: Adobe Illustrator 28.0.0, SVG Export Plug-In . SVG Version: 6.00 Build 0)  -->
<svg version="1.1" id="Layer_1" xmlns="http://www.w3.org/2000/svg" xmlns:xlink="http://www.w3.org/1999/xlink" x="0px" y="0px"
	 viewBox="0 0 450 450" style="enable-background:new 0 0 450 450;" xml:space="preserve">
<path d="M244.3,396.8c-0.1,9.2-0.1,19.2,0.1,30c0.1,6-0.9,10.8-3.1,14.3c-8.1,13.1-28.8,11.9-34.1-3.4c-1-2.8-1.5-5.9-1.4-9.2
	c0.2-11,0.2-21.7,0.1-32c0-0.8-0.4-1.3-1.2-1.4C125,384.6,65.9,324.9,54.8,245.6c-0.1-0.9-0.7-1.4-1.6-1.4c-11.6,0-22.8,0-33.6,0
	c-26.3,0-26.9-38.9,2.1-38.5c11.5,0.2,22,0.2,31.6,0.1c0.9,0,1.4-0.5,1.5-1.4c4-30.3,14.5-57,31.7-80.3
	c29.1-39.3,68.4-62.4,117.9-69.4c0.8-0.1,1.3-0.6,1.3-1.5c0-11.2,0-22.3-0.1-33.3c-0.2-26.8,39.2-27.7,38.6,2.5
	c-0.2,10.8-0.2,21.1-0.1,30.9c0,0.8,0.4,1.3,1.3,1.4c79.8,11.1,138.8,70.2,149.6,149.6c0.1,1,0.7,1.5,1.7,1.5
	c12.5-0.2,24.2-0.2,35.1,0c14.1,0.2,22,15.4,16.1,27.8c-3.6,7.5-11.1,10.7-19.2,10.6c-11.3-0.1-22.1-0.2-32.3-0.1
	c-0.7,0-1.4,0.6-1.5,1.3c-10.6,79.8-70.2,138.4-149.5,149.7C244.7,395.3,244.3,395.9,244.3,396.8z M241.9,118.1
	c-9.3,16.8-35.4,11.5-35.9-8.3c-0.1-4.8-0.1-9.7,0-14.7c0-1-0.5-1.5-1.5-1.3c-3.8,0.4-7.5,1.1-11.1,2
	c-52.5,14.2-90.7,54.5-99.6,108.6c-0.2,0.9,0.2,1.4,1.2,1.4c10.8,0.3,22.2-2.4,29.7,7.8c7.6,10.3,3.2,23.9-8.1,28.9
	c-6.2,2.8-14.9,1.4-21.6,1.5c-0.9,0-1.3,0.5-1.2,1.4c0.4,3.2,1,6.3,1.8,9.4c13.6,53.4,54.5,92.6,109,101.4c0.9,0.1,1.4-0.3,1.4-1.2
	c0.2-7.1-1.1-15.2,1.6-21.9c2.5-6.2,9-11,15.6-11.4c13.5-0.9,21.8,9,21.3,21.9c-0.2,4-0.2,7.8-0.1,11.3c0,0.9,0.5,1.3,1.4,1.2
	c4.1-0.5,8-1.3,11.8-2.4c51.9-14.5,90.2-54.3,98.9-108.4c0.1-0.7-0.3-1.3-1-1.4c-0.1,0-0.1,0-0.2,0c-3.6-0.1-7.3,0-11.1,0.1
	c-22.2,1-31.2-25.3-12.1-36.2c6.5-3.7,15.9-2.1,23.3-2.3c0.9,0,1.3-0.5,1.2-1.4C346.2,146.3,304,104.2,245.8,93.5
	c-1-0.2-1.5,0.2-1.6,1.2C244,102.5,245.6,111.3,241.9,118.1z"/>
<path d="M293.3,225c0,37.7-30.6,68.3-68.3,68.3s-68.3-30.6-68.3-68.3v0c0-37.7,30.6-68.3,68.3-68.3h0
	C262.7,156.7,293.3,187.3,293.3,225z M254.9,225c0-16.5-13.4-29.9-29.9-29.9l0,0c-16.5,0-29.9,13.4-29.9,29.9l0,0
	c0,16.5,13.4,29.9,29.9,29.9l0,0C241.5,254.9,254.9,241.5,254.9,225L254.9,225z"/>
</svg>
