<?xml version="1.0" encoding="utf-8"?>
<!-- Generator: Adobe Illustrator 28.0.0, SVG Export Plug-In . SVG Version: 6.00 Build 0)  -->
<svg version="1.1" id="Layer_1" xmlns="http://www.w3.org/2000/svg" xmlns:xlink="http://www.w3.org/1999/xlink" x="0px" y="0px"
	 viewBox="0 0 450 450" style="enable-background:new 0 0 450 450;" xml:space="preserve">
<g>
	<path d="M168.7,198.5l1.5,24.7c0,0.2,0.1,0.2,0.2,0.2l135.7,0c0.3,0,0.5,0.1,0.6,0.4l59,132.7c0.1,0.2,0.3,0.2,0.4,0.2l42.4-14.6
		c0.1,0,0.3,0,0.4,0.2L422,370c0.1,0.1,0,0.2-0.1,0.3c0,0,0,0,0,0l-79.4,30.9c-0.2,0.1-0.5,0-0.6-0.2l-58.9-140
		c-0.1-0.3-0.3-0.4-0.6-0.4H136.5c-0.3,0-0.4-0.1-0.4-0.4c-4.9-65.8-9.8-131.6-14.6-197.4c-0.1-1.5-0.5-3-1-4.3
		c-6.3-14.4-4.2-30.9,5.7-42.9c8.3-10,21.2-15.3,34.3-14.2c30.7,2.8,47.2,37.6,28.4,62.6c-7,9.3-16.6,15-28.7,17.2
		c-0.2,0-0.3,0.2-0.3,0.3l4.4,79.3c0,0.2,0.2,0.4,0.4,0.4l103,0c0.2,0,0.4,0.2,0.4,0.4c0,0,0,0,0,0V198c0,0.2-0.1,0.4-0.4,0.4h-98.7
		C168.8,198.4,168.7,198.4,168.7,198.5C168.7,198.5,168.7,198.5,168.7,198.5z"/>
	<path d="M75.9,262.4c-10.5,26.2-10.8,52.2-0.8,78c21.6,55.7,87,83.5,141.9,59.7c35.1-15.2,59.4-47.7,64.1-85.8
		c0-0.1,0.1-0.1,0.2-0.1c0,0,0.1,0,0.1,0.1l26.3,54c0.1,0.2,0.1,0.5,0,0.7c-19.4,37-53.6,63.9-93.8,74.6
		c-24.5,6.5-50.9,6.8-75.6,0.2c-35.6-9.5-64-29.3-85-59.5c-10.7-15.3-18.1-32.7-22.3-52.2C16.5,264.2,53,197.8,115,168.8
		c0.1-0.1,0.2,0,0.3,0.1c0,0,0,0.1,0,0.1l2.9,42.1c0,0.3-0.1,0.5-0.3,0.6C98.3,224.8,84.3,241.6,75.9,262.4z"/>
</g>
</svg>
