<?xml version="1.0" encoding="utf-8"?>
<!-- Generator: Adobe Illustrator 28.0.0, SVG Export Plug-In . SVG Version: 6.00 Build 0)  -->
<svg version="1.1" id="Layer_1" xmlns="http://www.w3.org/2000/svg" xmlns:xlink="http://www.w3.org/1999/xlink" x="0px" y="0px"
	 viewBox="0 0 450 450" style="enable-background:new 0 0 450 450;" xml:space="preserve">
<style type="text/css">
	.st0{fill:#1E191A;}
</style>
<g>
	<path class="st0" d="M178.3,91.9c-0.1,0.1-0.1,0.1,0,0.1l269.1,74.8c0.1,0,0.1,0.1,0.1,0.2L428,240c0,0.1-0.1,0.2-0.2,0.1
		c0,0,0,0,0,0c-90.2-24.9-180.2-49.7-269.9-74.5c-7.7-2.1-16.6-5.4-26.7-9.9c-9.1-4.1-17.7-9.1-25.7-15C89,128.4,76.7,112,72.1,92
		c-2.1-9.2-2.4-19.3-0.4-28.6c0-0.1,0.1-0.2,0.2-0.1l88.4,24.4c0.1,0,0.3,0,0.4-0.1l49-34.5c0.1-0.1,0.2-0.1,0.3-0.1l16.8,4.1
		c0.2,0,0.2,0.1,0,0.2L178.3,91.9z"/>
	<path class="st0" d="M195.2,219.4c-64.4-17.7-128.7-35.5-193.1-53.2c-0.1,0-0.2-0.1-0.2-0.2v-16c0-0.1,0.1-0.1,0.2-0.1
		c0.5,0.1,1.2,0.3,2,0.5c67.8,18.7,135.7,37.5,203.5,56.2c0.1,0,0.1,0.1,0.2,0.2c0,0.1,0,0.2-0.2,0.2c-0.1,0-0.1,0-0.2,0.1
		c-4.2,3.6-7.9,7.8-11.2,12.4c-0.1,0.1-0.1,0.1-0.2,0.1C195.8,219.5,195.5,219.5,195.2,219.4z"/>
	<path class="st0" d="M243.2,299.9l204.4,56.4c0.1,0,0.2,0.1,0.2,0.2l0.3,40.3c0,0.1-0.1,0.2-0.2,0.2c-7.8,0-15.4-1.4-22.8-4.2
		c-1-0.4-2.8-1.1-5.4-2.3c-16.2-7.1-33.7-7.6-50.3-1.7c-3.5,1.2-6.9,3-10.5,4.3c-14.9,5.2-29.8,5.2-44.7-0.1c-1.6-0.6-3.6-1.4-6-2.5
		c-2-0.9-4-1.7-6.1-2.3c-15.8-5.2-31.5-4.6-46.9,1.7c-1.3,0.5-2.6,1.1-4.1,1.7c-1.7,0.7-3.1,1.3-4.1,1.6c-14.8,5.1-29.6,5-44.3-0.2
		c-3.1-1.1-6.1-2.6-9.1-3.8c-15.3-5.7-30.6-6-46-0.8c-3.8,1.3-7.7,3.3-11.4,4.6c-15.1,5.4-30.3,5.3-45.5-0.2c-2.9-1-6.2-2.7-8.6-3.6
		c-16.1-5.9-32-6-47.8-0.1c-1.5,0.6-3.5,1.4-5.9,2.4c-8.1,3.6-16.7,5.4-25.9,5.5c-0.2,0-0.2-0.1-0.2-0.2L1.9,233.4
		c0-0.1,0-0.1,0.1-0.1l224.5,62c0,0,0.1,0,0.1,0l0-0.1c0,0,0,0,0,0c-0.3-0.1-0.6-0.2-0.8-0.3c-10-5.4-17.1-13.2-21.5-23.3
		c-3.2-7.6-4.3-15.7-3.1-24.2c1.3-9.2,5-17.3,11.2-24.3c9.9-11.1,24.3-16.8,39.3-15.3c20.3,2,37.2,17.6,40.8,37.6
		c5.1,28-15.7,53.8-44.2,54.7c-1.6,0.1-3-0.2-4.6-0.3C243.6,299.8,243.4,299.8,243.2,299.9C243.2,299.9,243.2,299.9,243.2,299.9z
		 M267.2,253.8c0-11.1-9-20.1-20.1-20.1c0,0,0,0,0,0c-11.1,0-20.1,9-20.1,20.1c0,11.1,9,20.1,20.1,20.1S267.2,264.9,267.2,253.8
		C267.2,253.8,267.2,253.8,267.2,253.8z"/>
	<path class="st0" d="M424.1,282.7l-115.7-32.1c-0.1,0-0.2-0.1-0.2-0.2c-0.3-5.8-1.4-11.5-3.4-17.1c0,0,0-0.1,0.1-0.1c0,0,0,0,0,0
		l123.1,34.3c0.1,0,0.2,0.1,0.1,0.3l-3.9,14.9C424.3,282.7,424.2,282.8,424.1,282.7C424.1,282.7,424.1,282.7,424.1,282.7z"/>
</g>
</svg>
