<?xml version="1.0" encoding="utf-8"?>
<!-- Generator: Adobe Illustrator 28.0.0, SVG Export Plug-In . SVG Version: 6.00 Build 0)  -->
<svg version="1.1" id="Layer_1" xmlns="http://www.w3.org/2000/svg" xmlns:xlink="http://www.w3.org/1999/xlink" x="0px" y="0px"
	 viewBox="0 0 132 119.2" style="enable-background:new 0 0 132 119.2;" xml:space="preserve">
<g>
	<path d="M72.7,1.4c8.9,0.9,17.4,3.7,25.1,8.4c0.2,0.1,0.3,0.4,0.1,0.6c0,0,0,0,0,0L94,15.9c-0.1,0.2-0.3,0.2-0.5,0.1
		c-6-3-11.9-5.6-18.6-6.6c-13.1-2-25.7,0.2-37,7.1c-0.2,0.1-0.4,0.1-0.5-0.1L34,11.1c-0.2-0.3-0.1-0.6,0.2-0.8
		C45.3,2.7,59.5,0.1,72.7,1.4z"/>
	<path d="M5.7,75.3C2.1,53.9,9.1,32.8,24.8,17.9c0.2-0.2,0.5-0.2,0.7,0c0,0,0,0,0,0l4.1,4.8c0.1,0.1,0.1,0.3,0,0.5
		c-9.9,9.8-16.3,23.3-17,37.3c-0.2,4.3,0.1,9.2,0.9,14.7c0,0.2,0,0.2-0.2,0.2l-7.4,0C5.8,75.5,5.7,75.4,5.7,75.3z"/>
	<path d="M25.8,84.2c0.2,0,0.3-0.2,0.3-0.3c0,0,0-0.1,0-0.1c-1.6-2.8-2.7-5.7-3.3-8.8c-3.1-17.3,3-35.1,16.4-46.3
		c3-2.5,6.6-4.6,10.9-6.4c10.4-4.2,20.8-4.4,31.3-0.5c24,9,35.9,38.5,25.5,62c-0.1,0.2,0,0.3,0.2,0.4c0,0,0.1,0,0.1,0
		c6.7,0.5,13.3,3.3,14.6,10.7c0,0.1-0.1,0.3-0.2,0.3c0,0-0.1,0-0.1,0c-2.7-0.9-5.4-1.7-8.3-2.2c-6.7-1.2-13.4-2-20-2.5
		c-0.4,0-0.5-0.2-0.1-0.4c2.7-2,4.9-4.6,6.5-7.7c4.6-8.5,5.7-18.3,0.6-26.8c-3.2-5.3-9.4-10.2-16-9.3c-0.2,0-0.3,0.1-0.5,0.2
		c-0.3,0.3-0.3,0.7,0.1,1.1c4.6,4.4,7.7,10.4,6.7,16.8c-0.1,0.5-0.3,0.9-0.6,1.1c-0.3,0.2-0.7,0.2-0.9,0c-1-0.8-1.8-1.6-2.5-2.4
		c-1.9-2.2-3.7-4.4-5.4-6.7c-2.9-4.1-4.7-8.8-6.1-13.6c-2.1-7.4-8.3-16.1-16.4-17.9c-0.3-0.1-0.6,0.1-0.7,0.4c0,0.1,0,0.3,0.1,0.4
		c2.6,4.7,3.5,10.3,2.9,15.6c-0.8,7.2-5.6,12.3-10.5,18.1c-0.5,0.6-1.2,1.6-1.9,2.8c-3.3,5.8-3.3,12.1,0,18c0,0.1,0,0.2-0.1,0.2
		l-4,2.4c-0.2,0.1-0.4,0.1-0.5-0.1c-6.2-7.2-6.3-17.4-0.5-25c3.6-4.7,9.1-9.7,6.8-16.2c-1-2.8-4.7-7.6-8.2-7
		c-0.3,0.1-0.5,0.4-0.5,0.7c0,0,0,0.1,0,0.1c4.7,11-4.1,13.4-9,21.3c-2,3.2-3.1,6.7-3.2,10.6c-0.4,9.4,4,17.4,11,23.2
		c0.2,0.2,0.2,0.3-0.1,0.3c-7.5,0.4-15,1.3-22.5,2.8c-2.4,0.5-4.7,1.1-7,1.9c-0.1,0-0.1,0-0.1-0.1c0,0,0,0,0-0.1
		c0.8-4.4,3.3-7.4,7.3-9.2C20.8,84.5,22.9,84.5,25.8,84.2z"/>
	<path d="M115.8,27.3C126.3,40.3,130,58.9,127,75.1c0,0.2-0.2,0.3-0.4,0.4l-7.1,0c-0.1,0-0.2-0.1-0.2-0.2c0,0,0,0,0,0
		c0.4-2.4,0.6-4.9,0.8-7.3c1-12.4-2.7-25.1-9.7-35.2c-0.2-0.3-0.1-0.7,0.1-0.9l5.1-4.5C115.7,27.2,115.8,27.2,115.8,27.3
		C115.8,27.3,115.8,27.3,115.8,27.3z"/>
	<path d="M53.8,76.5c0.2-2.6,1.3-5.1,2.8-7.2c3.1-4.4,6.6-8.4,8.4-13.6c0.1-0.1,0.2-0.2,0.4-0.2c0,0,0,0,0,0
		c0.1,0.1,0.3,0.2,0.3,0.4c1,3.2,2.3,5.7,3.9,7.6c2.5,3,4,4.9,4.7,5.7c5.2,6.6,4,16.3-4.2,19.8C61.8,92.5,53.1,85.3,53.8,76.5z"/>
	<path d="M1.3,113.5c0.5-4.8,3.8-9.5,7.6-12.1c5.7-3.9,13.5-4.2,19.5-0.9c5.2,2.8,8.3,7.1,9.3,13c0,0.1-0.1,0.2-0.1,0.2c0,0,0,0,0,0
		l-36-0.1C1.4,113.7,1.3,113.7,1.3,113.5z"/>
	<path d="M95.2,111c6.2-17.9,33.1-16.9,36,2.6c0,0.1,0,0.1-0.1,0.1c0,0,0,0,0,0l-36.2,0c-0.1,0-0.2-0.1-0.2-0.2c0,0,0,0,0,0
		C94.8,112.7,94.9,111.9,95.2,111z"/>
	<path d="M66.1,103.2c7.7,0,14.5,3.7,17.8,10.8c0.6,1.3,1,2.7,1.1,4.1c0,0.1-0.1,0.2-0.2,0.2c0,0,0,0,0,0l-37.4-0.1
		c-0.1,0-0.2-0.1-0.2-0.2C48.7,108.8,57.2,103.2,66.1,103.2z"/>
</g>
</svg>
