<?xml version="1.0" encoding="utf-8"?>
<!-- Generator: Adobe Illustrator 28.0.0, SVG Export Plug-In . SVG Version: 6.00 Build 0)  -->
<svg version="1.1" id="Layer_1" xmlns="http://www.w3.org/2000/svg" xmlns:xlink="http://www.w3.org/1999/xlink" x="0px" y="0px"
	 viewBox="0 0 450 450" style="enable-background:new 0 0 450 450;" xml:space="preserve">
<path d="M13.4,301.1l-0.4-1.1c0-0.9,0.6-1.7,1.6-1.7l45.6,0.1c2.3,0,4.1-1.9,4.1-4.3c0-1.8-0.8-3-2.5-4l-41.4-20.9
	c-0.7-0.6-1.3-1.4-1.3-2.5c0-0.8,0.3-1.6,0.7-2c0,0,108.6-102.1,348.8-3.1l66-34.3c0.6-0.3,1.4-0.6,2.2-0.6c2.7,0,5.1,2.5,5.1,5.4
	c0,1.1-0.3,2-0.8,2.8l-38.9,51.5l38.9,51.5c0.4,0.8,0.8,1.8,0.8,2.8c0,3-2.3,5.5-5.1,5.5c-0.8,0-1.6-0.2-2.2-0.6l-66-34.4
	C368.6,311.3,138.9,408.4,13.4,301.1L13.4,301.1z M86.6,280.1c8.7,0,15.6-7.4,15.6-16.6c0-9.4-6.9-16.7-15.6-16.7
	c-8.6,0-15.5,7.4-15.5,16.7C71.1,272.7,78,280.1,86.6,280.1z M290.6,107.8v56.2h132.8c14.6,0,26.5-12.6,26.5-28.1
	c0-15.7-11.9-28.1-26.5-28.1H290.6L290.6,107.8z M45.9,148.3L58,143l7.6,13.8l12.2-9.4l8.7,13l11.7-10.1l9.5,12.3l11.1-10.7l10,11.7
	l10.6-11.3l10.6,11.3l10.6-11.3l10.5,11.3l10.6-11.3l10.6,11.3l10.6-11.3l10.6,11.3l10.5-11.3l10.6,11.3l10.6-11.3l10.6,11.3
	l12.4-11.3l12.6,11.3v-55.7H0v0.3C9.4,124.4,28.3,138.2,45.9,148.3L45.9,148.3z"/>
</svg>
