<?xml version="1.0" encoding="utf-8"?>
<!-- Generator: Adobe Illustrator 28.0.0, SVG Export Plug-In . SVG Version: 6.00 Build 0)  -->
<svg version="1.1" id="Layer_1" xmlns="http://www.w3.org/2000/svg" xmlns:xlink="http://www.w3.org/1999/xlink" x="0px" y="0px"
	 viewBox="0 0 449.4 449.4" style="enable-background:new 0 0 449.4 449.4;" xml:space="preserve">
<style type="text/css">
	.st0{fill:#151515;}
</style>
<g>
	<path class="st0" d="M270.9,83.6c0.3,1.9,0.6,3.8,0.6,5.7c-0.7,19.7-6.9,36.9-18.6,51.4c-3,3.8-7.2,7.8-12.6,12
		c-22.6,18-53.7,20.5-79.5,8c-13.8-6.7-24.8-17.1-33.1-31.1c-8.7-14.7-12.2-30.2-10.5-46.4c0-0.4-0.1-0.4-0.3-0.1
		c-0.9,0.9-1.6,1.8-2.2,2.8c-7.8,12.1-15.4,24.4-23.6,36.3c-2.6,3.7-7.2,6.7-11.6,4.6c-5.1-2.4-5.8-5.8-7.6-11.8
		c-3.4-11.3-7-23.5-10.9-36.5c-0.7-2.4-1.3-4.5-1.6-6.5C58,66.2,64.4,61.2,68,57.4c13.1-14,25.2-27.6,39.6-43.7
		c2-2.2,3.5-3.6,4.5-4.3c4.3-2.9,10.3-3.1,15.1-1.6c6.2,1.9,10.9,3.5,14,5c2.4,1.1,4.7,2.1,7.2,3.1c0.3,0.1,0.5,0.1,0.7-0.1
		C165.6,5.6,184.7,0.6,204,3c12.3,1.6,23.7,5.6,34.1,12c0.5,0.3,1,0.3,1.5,0.1c4.8-1.8,9.6-3.6,14.4-5.4c6.3-2.4,13.9-4.6,19.8-0.9
		c2.2,1.4,4.5,3.3,6.7,5.8c12,13.5,23.9,26.9,35.7,40.4c4.6,5.2,13.2,11.5,10.8,19.5c-4.1,13.7-8.5,28.5-13.2,44.2
		c-0.5,1.7-1.2,3.2-2.2,4.6c-2.7,4-8.4,5.6-12.5,2.7c-2.3-1.6-3.4-3.6-4.9-6c-5.5-8.7-10.9-17.5-16.6-26.1
		c-2.2-3.3-4.2-6.7-6.2-10.4C270.9,82.6,270.7,82.6,270.9,83.6z M169.2,78.2c0-6.1-4.9-11.1-11.1-11.1l0,0
		c-6.1,0-11.1,4.9-11.1,11.1l0,0c0,6.1,4.9,11.1,11.1,11.1C164.2,89.2,169.2,84.3,169.2,78.2z M239.9,78.2c0-6.1-5-11.1-11.1-11.1
		c-6.1,0-11.1,5-11.1,11.1l0,0c0,6.1,5,11.1,11.1,11.1l0,0C234.9,89.2,239.9,84.3,239.9,78.2z M175.7,119.5c-2.4,2.9-1.2,7,1.2,9.6
		c3.8,4.2,7.1,7.4,9.8,9.7c4.9,4.2,9.9,4,15-0.6c3.3-2.9,6.4-6.2,9.4-9.8c4.1-4.9,0.6-11.9-5.6-11.9c-7.6,0-15.1,0.1-22.5,0.1
		C179.9,116.5,177.6,117.2,175.7,119.5z"/>
	<path class="st0" d="M99.8,412.4c0.9-4.4,1.6-8.7,2.3-12.8c4.9-29.3,9.9-58.8,15.2-88.5c0.2-1,0.3-2.5,0.1-3.5
		c-2.2-12.1-4.3-23.9-6.5-35.5c-1.2-6.3-2-12.4-2.4-18.2c-0.1-1.7-0.1-3.7,0.1-6.2c0.8-9.5,3.1-19.1,6.9-28.8
		c4.9-12.7,9.7-25,14.3-37c2-5.3,4.2-10.6,6.5-15.9c0.4-1,1.1-1.1,1.9-0.4c18.3,15.8,43,22.1,67.4,19.8c16.8-1.6,33-9.5,46-20.3
		c0.3-0.2,0.6-0.2,0.9,0.1c0,0,0,0,0,0.1c1.7,2.5,3.2,5.1,4.6,7.6c23.4,41.4,46.9,84.3,67.5,123.4c5.2,9.8,10,20.1,14.9,30.1
		c8.5,17.3,14.3,34.4,17.6,51.3c2.3,11.8,2.3,25.6-0.8,37.4c-4.6,17.1-17.2,29.3-34.7,32.6c-3.4,0.6-7.9,0.9-13.5,0.9
		c-20.3-0.2-41.5-0.2-63.6-0.1c-8.7,0-14.5-6.7-14.9-15.2c-0.3-5.7,3.5-12.2,7.9-15.5c5-3.7,10.4-5.6,16.3-5.7
		c12.1-0.2,25.4-0.2,39.8-0.2c6,0,11.1-5.4,8.3-11.3c-2.4-5-7.1-5-11.9-5.4c-7.7-0.6-15.2-2.6-22.5-6c-6.3-2.9-11.6-7.2-15.9-12.6
		c-10.2-13-12.3-28.5-3.9-43.2c4.5-7.8,10.7-12.8,18.7-14.9c3.1-0.8,6-2.8,6.7-6.1c0.6-3-0.2-5.4-2.5-7.5c-3.2-2.8-7.6-2.9-11.6-1.5
		c-20.4,7.5-30.3,23.1-33.4,44c-0.7,4.5-1.3,9.2-2,14c-3.2,22.5-6.4,45.2-9.7,68.2c-1.2,8.1-4.9,15.2-12.8,17.9
		c-2.1,0.7-4.8,1-8.2,0.9c-8.5-0.2-17-0.2-25.3-0.1c-2.8,0.1-5.1-0.3-7-1c-8.1-3.1-11.5-13.1-8.2-20.8c3.3-7.6,9.1-12.1,17.5-13.6
		c2-0.3,4-0.2,6-0.2c0.3,0,0.5-0.2,0.5-0.5c0.2-37.6,0.3-75.6,0.2-113.8c0-4.4-3-7.6-7.5-7.9c-5.6-0.4-8.8,4.2-8.9,9.4
		c-0.1,15.6-0.2,31.7-0.2,48.1c0,2-0.1,3.9-0.3,5.8c-0.3,2.6-1.8,4.6-2.5,7c-7.6,24.6-14.9,48.9-21.9,72.8
		c-1.7,5.7-6.1,11.2-11.7,13.5c-2.2,0.9-4.9,1.3-8.1,1.3c-9.1-0.1-17.9-0.1-26.6,0c-2.5,0-4.6-0.3-6.4-1.1
		c-7.4-3.1-11.7-11.4-9.1-19.3c3.6-10.9,15-17,26.1-15.2C99.6,412.8,99.8,412.7,99.8,412.4z"/>
	<path class="st0" d="M375.6,354.7c-2.5,5.4-5.4,10.5-8.6,15.3c-0.6,0.9-1,0.8-1-0.3c-0.2-2-0.5-4.1-0.9-6.3
		c-4.7-22.6-13.2-43.9-25.4-63.8c-0.2-0.3-0.2-0.5,0-0.8c4.4-8.1,7-17.5,7.8-28c0.9-13-0.3-25.5-3.6-37.4
		c-2.1-7.4-5.3-14.6-8.5-21.7c-0.8-1.9-0.7-3.8,0.3-5.5c3.1-5.2,9.6-4.7,13.8-1.2c12.1,10.2,21.4,22.4,28.1,36.4
		c6.4,13.6,10.1,27.5,11.2,41.9C390.5,308.3,386.2,332.1,375.6,354.7z"/>
</g>
</svg>
