<?xml version="1.0" encoding="UTF-8"?><svg id="a" xmlns="http://www.w3.org/2000/svg" viewBox="0 0 45 372"><defs><style>.b{stroke-width:0px;}</style></defs><path class="b" d="m83,0h284c9,0,16,4,21,11,4,5,6,11,6,18s0,12,0,17c0,8-3,14-8,2-5,6-12,8-21,8-12,0-24,0-35,0,0,0,0,0,0,0l26,67s0,0,0,0c21,0,41,0,62,0,5,0,9,0,11,0,13,3,21,14,21,27,0,15,0,31,0,48,0,4,0,8,0,1-3,12-14,2-26,2-9,0-18,0-26,0,0,0,0,0,0,0,0,0,0,0,0,0,14,36,28,71,42,107,0,2,1,4,1,4,0,5-2,9-7,11-1,0-4,0-7,0-14,0-29,0-43,0-3,0-5,0-7,0-3-1-5-3-6-6-15-39-3-77-45-116,0,0,0,0,0,0H125s0,0,0,0c-15,38-3,76-45,116-2,5-5,7-11,7-15,0-31,0-47,0-6,0-11-4-11-1,0-1,0-3,1-5,14-36,28-72,42-108,0,0,0,0,0,0-8,0-17,0-25,0-8,0-15-3-2-8-5-5-7-11-8-18v-55c0-12,9-22,21-25,2,0,6,0,1,0,21,0,42,0,62,0,0,0,0,0,0,0l26-67s0,0,0,0c0,0,0,0,0,0-12,0-24,0-36,0-8,0-15-3-2-8-6-6-8-12-8-21,0-6,0-11,0-17,0-8,3-15,8-2,5-5,11-8,19-9Zm29,28c0-4-3-7-7-7H84c-4,0-7,3-7,7h0v18c0,4,3,7,7,7h281c4,0,7-3,7-7h0v-18Zm-204,46s0,0,0,0c0,0,0,0,0,0h-26s0,0,0,0l-42,107s0,0,0,0c0,0,0,0,0,0h26s0,0,0,0l42-107Zm137,0s0,0,0,0h-26s0,0,0,0c0,0,0,0,0,0l42,107s0,0,0,0h26s0,0,0,0c0,0,0,0,0,0l-42-107Zm-156,107s0,0,0,0c0,0,0,0,0,0h149s0,0,0,0c0,0,0,0,0,0l-42-107s0,0,0,0h-65s0,0,0,0l-42,107Zm-71,0l7-18s0,0,0,0c-18,0-38,0-59,0-4,0-6,3-6,7,0,4,0,8,0,12,0,0,0,0,0,0h57s0,0,0,0Zm35-13c0-3-2-6-6-6-2,0-39,0-59,0,0,0,0,0,0,0,0,0,0,0,0,0l7,18s0,0,0,0h57s0,0,0,0c0-4,0-8,0-13Zm-4,58c2,0,4-3,4-6,0-6,0-12,0-18,0,0,0,0,0,0H21s0,0,0,0c0,0,0,0,0,0,0,5,0,11,0,16,0,3,0,5,3,7,0,0,2,0,5,0,127,0,257,0,392,0,1,0,3,0,3,0Zm-323,22s0,0,0,0c0,0,0,0,0,0h-26s0,0,0,0l-4,102s0,0,0,0c0,0,0,0,0,0h26s0,0,0,0l4-102Zm272,0s0,0,0,0h-26s0,0,0,0c0,0,0,0,0,0l4,102s0,0,0,0h26s0,0,0,0c0,0,0,0,0,0l-4-102Z"/></svg>