<?xml version="1.0" encoding="utf-8"?>
<!-- Generator: Adobe Illustrator 28.0.0, SVG Export Plug-In . SVG Version: 6.00 Build 0)  -->
<svg version="1.1" id="Layer_1" xmlns="http://www.w3.org/2000/svg" xmlns:xlink="http://www.w3.org/1999/xlink" x="0px" y="0px"
	 viewBox="0 0 450 450" style="enable-background:new 0 0 450 450;" xml:space="preserve">
<g>
	<path d="M224.8,3.4h0.5l6.2,3.2l22.9,11l38,18.5l15.7,7.6l2.9,1.5l22.7,11l37.5,18.3l42.1,20.5L446,111c0.4,0.2,0.6,0.5,0.6,0.9
		l0.1,7.7l0,45.8c0,0.6-0.3,0.8-0.9,0.5l-33.6-16.4c-0.2-0.1-0.4-0.2-0.5-0.2l-8.4-4l-30-14.6l-40-19.5l-38.7-18.8l-20.2-9.9
		l-1.6-0.7L254.3,73l-19.5-9.4l-9.1-4.5c-0.5-0.2-1-0.2-1.5,0l-11.8,5.7L195.8,73l-17.8,8.7l-2.3,1L156.4,92l-39.9,19.4l-39.7,19.3
		L38,149.6l-34,16.5c-0.2,0.1-0.5,0-0.6-0.2c0-0.1,0-0.1,0-0.2L3.4,161l-0.1-3.3l0.1-36.6l0-9.3c0-0.3,0.2-0.6,0.5-0.8l30.5-14.8
		l43.8-21.3l35.5-17.3l42.8-20.9l37.9-18.4L224.8,3.4z"/>
	<path d="M189.7,122.4l4.4,3.5c4.3,4.2,7.2,9.3,8.7,15.2c1.2,6,0.9,11.8-1,17.4c-1.9,4.3-4.1,8-6.8,10.9c-5.6,5.3-12,8.4-19,9.3
		c-7.6,0.5-14.5-1.3-20.7-5.4c-4.6-3.2-8-7.3-10.3-12.2c-2.8-6.2-3.6-12.8-2.3-19.6c3.2-12.5,11.2-20.4,23.9-23.8
		C175.1,116.4,182.8,117.9,189.7,122.4z"/>
	<path d="M233.8,168.3c4.2,2.2,8.1,4.9,11.8,8c8.5,7.1,15.7,15.3,21.8,24.5l5.8,9.9l5,10.4l6.4,16.9l5.8,21.4l2.6,13.4l0.8,6.6
		l1.7,19.5c0.3,6.9,0.4,11.9-3.2,17.6l-0.7,1.1c-5.3,7.3-12.6,9.4-21.4,9l-15.9,0l-23.5,0c-0.3,0-0.5,0.2-0.5,0.4c0,0.1,0,0.1,0,0.2
		l3.7,11l6.1,18.4c1.9,5.6,3.8,11.2,5.6,16.8c0.3,1.1,0.6,2.6,0.6,4.7c0.3,7.7-3,14-9.8,19.1l25.5,0.4l0.4,19.4l0,20.5l-0.7,8.3
		c0,0.5-0.4,0.8-0.9,0.8l-6.9,0.1h-17.9l-21.9,0l-18.2,0l-21.4,0l-18,0l-21.5,0h-18l-21.3,0l-18.1,0l-21.6,0l-17.4,0l-22.3,0
		l-12.6,0c-0.4,0-0.7-0.3-0.7-0.7l0-10.1v-17.9l0-20.3l14.2-0.2l31.5-0.1l8.1,0.1l33.2-0.1l6.3,0.1l31.1-0.1l5.6,0l34.7-0.1l3.7,0
		l41,0c0.3,0,0.4-0.1,0.2-0.4c-0.7-0.9-1.7-1.6-2.7-2.3c-5-4.7-6.3-10.7-8.4-17l-5.4-16l-1.2-3.6l-6.6-19.7l-6.5-19.7
		c-2.3-7.2-4.8-12.7-2.1-20.7c1.6-4.3,4.3-7.7,7.9-10.4c3.9-2.5,7.8-3.8,11.6-3.8c5.6,0,11,0,16.2,0l18.5,0l16,0
		c0.3,0,0.6-0.3,0.6-0.6c0,0,0-0.1,0-0.1l-0.7-4.1l-4.1-19.4c-1.9-7.1-4.2-13.8-6.9-20l-3.6-7.4c-2.4-4.6-5.4-9.2-9.1-14
		c-0.2-0.3-0.6-0.3-0.9-0.1c0,0-0.1,0.1-0.1,0.1l-45.5,62.7c-0.9,1.4-2.1,2.7-3.8,3.9c-3.4,2.4-7.1,2.8-11.1,1.3
		c-3.8-1.5-6.3-4.3-7.5-8.5c-0.7-3.1-0.3-6.1,1.2-8.9c1.4-2.6,2.8-5.4,4.3-8.3l20.8-39.7l20.5-39.2c1.3-2.4,2.1-4,2.6-4.8
		c2.3-3.7,5.4-6.4,9.3-8.1C222.1,165.9,227.9,165.9,233.8,168.3z"/>
	<path d="M365.9,397.3l75.9-0.1l4.8,0.3l0.1,20.3l0.1,18.8l0.1,9.2c0,0.4-0.3,0.7-0.7,0.7l-13,0l-22.4,0l-17.3,0l-21.3,0l-17.1,0
		c-0.3,0-0.6-0.3-0.6-0.6l-0.1-7.6l0.1-40.4c0-0.4,0.3-0.7,0.7-0.7L365.9,397.3z"/>
</g>
</svg>
