<?xml version="1.0" encoding="utf-8"?>
<!-- Generator: Adobe Illustrator 28.0.0, SVG Export Plug-In . SVG Version: 6.00 Build 0)  -->
<svg version="1.1" id="Layer_1" xmlns="http://www.w3.org/2000/svg" xmlns:xlink="http://www.w3.org/1999/xlink" x="0px" y="0px"
	 viewBox="0 0 450 450" style="enable-background:new 0 0 450 450;" xml:space="preserve">
<path d="M450,128.5v6.3c-2.3,10.4-11.9,17.7-22.5,15.2c-1.8-0.4-4.5-1.6-8.3-3.6C354.6,112,290,77.6,225.5,43.3
	c-0.3-0.1-0.6-0.1-0.8,0c-65.5,34.9-130.9,69.7-196,104.3c-7.3,3.9-14.2,3.5-20.7-1c-7.6-5.3-9.8-15.9-5.3-24.1
	c2.8-5.2,6.5-6.9,12.6-10.1C85.1,75,155,37.8,224.7,0.5c0.2-0.1,0.4-0.1,0.7,0C297.1,38.8,368.8,77,440.5,115.3
	C445.5,117.9,448.6,122.3,450,128.5z"/>
<path d="M365.6,450h-18c-5.3-2-9.6-5.1-12.9-9.3c-2-2.5-3.9-6.4-5.9-11.6c-9.1-24.3-18.3-48.4-27.5-72.4c0-0.1-0.1-0.2-0.2-0.2
	H149.2c-0.2,0-0.4,0.1-0.5,0.3c-9.2,24-18.7,49-28.6,75.2c-3.3,8.6-9.1,14.7-17.8,17.9h-18c-12.1-4.5-19.7-15.5-19-28.4
	c0.2-2.9,1-6.4,2.6-10.5c6.9-18,13.8-36,20.6-54.1c0.1-0.3,0-0.4-0.3-0.4c-2.7-0.1-5.6-0.1-8.8,0c-3.5,0.1-6.2-0.1-8.3-0.5
	c-6.7-1.5-11.3-5.6-13.8-12.2c-3.6-9.4,2-20.1,11.1-23.6c2.5-0.9,5.7-1.4,9.6-1.3c8.4,0.1,16.7,0.1,24.7,0c0.1,0,0.2-0.1,0.3-0.2
	l28.4-74.4c0-0.1,0-0.2-0.1-0.3c0,0,0,0-0.1,0c-20.3,0-38.9,0-55.9,0c-5.6,0-10.3-2-14.2-6.1c-3.9-4.1-5.1-9.2-5-14.9
	c0.1-5,0.1-10.3,0.1-15.7c-0.1-6.5,2.4-11.7,7.3-15.5c5.3-4.1,10.5-4,16.9-4c99.5,0.1,197.6,0.1,294.4,0c10.3,0,18.7,8.1,18.8,18.5
	c0,5,0.1,9.9,0.1,14.9c0,4.6-0.3,7.9-0.9,9.8c-2.1,6.2-6.9,10.9-13.2,12.5c-1.9,0.5-4.7,0.7-8.3,0.7c-16.8-0.1-34.3-0.1-52.6,0
	c-0.1,0-0.2,0.1-0.2,0.2c0,0,0,0.1,0,0.1l28.3,74.4c0.1,0.2,0.2,0.3,0.4,0.3c9.5,0,18.7,0,27.8,0c7.3,0,14.2,4.5,17,11.1
	c4.4,10.4-0.6,21.8-11.4,25.5c-2,0.7-5,1-9.1,1c-3.1,0-6.3,0-9.7-0.1c-0.2,0-0.4,0.2-0.4,0.4c0,0,0,0.1,0,0.1
	c6.9,18.2,13.9,36.5,21,55.1c1.3,3.4,2,6.5,2.2,9.5C385.6,434.3,377.7,445.7,365.6,450z M191.9,244.1c-0.1,0-0.2,0.1-0.3,0.2
	l-28.3,74.4c-0.1,0.1,0,0.3,0.2,0.4c0,0,0.1,0,0.1,0h122.9c0.2,0,0.3-0.1,0.3-0.3c0,0,0-0.1,0-0.1l-28.3-74.4c0-0.1-0.1-0.2-0.3-0.2
	L191.9,244.1z"/>
</svg>
