<?xml version="1.0" encoding="utf-8"?>
<!-- Generator: Adobe Illustrator 28.0.0, SVG Export Plug-In . SVG Version: 6.00 Build 0)  -->
<svg version="1.1" id="Layer_1" xmlns="http://www.w3.org/2000/svg" xmlns:xlink="http://www.w3.org/1999/xlink" x="0px" y="0px"
	 viewBox="0 0 450 450" style="enable-background:new 0 0 450 450;" xml:space="preserve">
<path d="M448.7,129.6v28.2c-1.9,20.6-12.2,35.2-30.9,43.7c-0.3,0.1-0.4,0.3-0.4,0.7c0,64.9,0,129,0,192.3c0,8.9-6.6,15.5-15.4,15.5
	c-115.9,0-234,0-354.4,0c-6.2,0-11.5-3.7-14-9.4c-0.8-1.8-1.2-5.5-1.1-11.1c0.1-62.7,0.1-125.1,0-187.3c0-0.3-0.1-0.5-0.4-0.6
	c-18.8-8.7-29.1-23.3-30.9-43.9v-28c1.4-5.1,3.7-7.2,6.2-10.8c16.9-24.1,33.6-47.9,50.1-71.6c3.3-4.8,7.9-7.1,13.6-7.1
	c105.6,0,211.2,0,316.8,0c4,0,7.3,1.2,10.1,3.5c1.6,1.4,3.5,4,5.7,7.6c13,22.5,25.9,44.7,38.8,66.5c0.9,1.4,1.8,3,2.9,4.7
	C446.9,124.6,448,127,448.7,129.6z M45.5,116.7c-0.1,0.1-0.1,0.3,0.1,0.4c0.1,0,0.1,0.1,0.2,0.1l31.8,0c0.1,0,0.2-0.1,0.3-0.1
	l28.1-46.6c0.1-0.1,0-0.3-0.1-0.4c0,0-0.1,0-0.2,0l-27.3,0c-0.1,0-0.2,0-0.2,0.1L45.5,116.7z M112.5,117.1c-0.1,0.1,0,0.3,0.1,0.4
	c0,0,0.1,0,0.2,0l54.7,0c0.1,0,0.2-0.1,0.3-0.2l13.9-47.1c0-0.1,0-0.3-0.2-0.3c0,0-0.1,0-0.1,0l-40.2,0c-0.1,0-0.2,0-0.2,0.1
	L112.5,117.1z M198.9,117.2c0,0.1,0,0.3,0.2,0.3c0,0,0,0,0.1,0h51.8c0.1,0,0.3-0.1,0.3-0.3c0,0,0,0,0-0.1l-13.9-47.1
	c0-0.1-0.1-0.2-0.3-0.2h-24c-0.1,0-0.2,0.1-0.3,0.2L198.9,117.2z M282.3,117.3c0,0.1,0.1,0.2,0.3,0.2l57,0c0.2,0,0.3-0.1,0.3-0.3
	c0,0,0-0.1,0-0.1L316.3,70c0-0.1-0.1-0.2-0.3-0.2l-47.3,0c-0.2,0-0.3,0.1-0.3,0.3c0,0,0,0.1,0,0.1L282.3,117.3z M373.1,116.9
	c0,0.1,0.2,0.2,0.3,0.2l33.7,0c0.2,0,0.3-0.1,0.3-0.3c0-0.1,0-0.1,0-0.1L380.1,70c-0.1-0.1-0.2-0.2-0.3-0.1l-29.8,0
	c-0.2,0-0.3,0.1-0.3,0.3c0,0,0,0.1,0,0.1L373.1,116.9z M70.4,147.4l-38.9,0.1c-0.3,0-0.5,0.2-0.5,0.5c0,0,0,0,0,0l0,7.4
	c0,11,8.9,19.9,19.8,19.9h0.3c10.9,0,19.7-9,19.7-20c0,0,0,0,0,0l0-7.4C70.9,147.6,70.7,147.4,70.4,147.4z M418.5,147.5l-38.9-0.1
	c-0.2,0-0.4,0.2-0.4,0.4v0l0,7.7c0,10.9,8.7,19.7,19.5,19.8c0,0,0,0,0,0h0.6c10.8,0,19.5-8.8,19.6-19.7l0-7.7
	C418.9,147.6,418.7,147.5,418.5,147.5z M163.4,147.7l-61.7-0.1c-0.3,0-0.5,0.2-0.5,0.5l0,13.9c0,17.9,14,32.5,31.3,32.5h0.1
	c17.3,0,31.4-14.5,31.4-32.4c0,0,0,0,0,0l0-13.9C163.9,147.9,163.7,147.7,163.4,147.7L163.4,147.7z M255.9,147.6h-61.7
	c-0.2,0-0.4,0.2-0.4,0.4v14.3c0,17.8,14,32.2,31.2,32.2h0.2c17.2,0,31.2-14.4,31.2-32.2c0,0,0,0,0,0v-14.3
	C256.4,147.8,256.2,147.6,255.9,147.6L255.9,147.6z M348.8,147.7l-61.6-0.1c-0.3,0-0.6,0.2-0.6,0.6c0,0,0,0,0,0l0,14.1
	c0,17.9,14,32.4,31.2,32.4h0.1c17.3,0,31.3-14.4,31.4-32.3c0,0,0,0,0,0l0-14.1C349.3,147.9,349.1,147.7,348.8,147.7L348.8,147.7z
	 M178.4,203.7c-17.1,19.6-44.6,25.9-68.6,16.3c-11.9-4.7-21.5-12.8-29-24.2c-0.2-0.3-0.5-0.4-0.8-0.1c-5.1,3.7-10.7,6.3-17.1,7.9
	c-0.3,0.1-0.5,0.3-0.5,0.6v175.4c0,0.3,0.1,0.4,0.4,0.4h173.5c0.3,0,0.6-0.3,0.6-0.6v0c0-37.9,0-75.6,0-113.1
	c0-9,6.5-15.5,15.3-15.5c17.7-0.1,44.8-0.1,81.3,0c5.1,0,8.5,0.3,10.4,1c4,1.5,6.9,4.3,8.7,8.4c0.7,1.7,1.1,5.5,1.1,11.3
	c-0.1,36.2-0.1,72.2,0,108c0,0.3,0.2,0.5,0.5,0.5c0,0,0,0,0,0l33,0c0.1,0,0.2-0.1,0.2-0.2l0,0l0-175.9c0-0.2-0.1-0.3-0.3-0.3
	c-6.2-1.5-11.8-4.1-17-7.7c-0.3-0.2-0.5-0.2-0.7,0.1c-11.7,17.9-31.3,29-52.8,28.4c-17.8-0.5-32.8-7.5-44.9-21
	c-0.2-0.3-0.4-0.3-0.7,0c-24.9,27.9-67,28.1-92,0.3C178.9,203.4,178.6,203.4,178.4,203.7z M324,281c0-0.2-0.1-0.3-0.3-0.3l0,0h-56.6
	c-0.2,0-0.3,0.1-0.3,0.3l0,0v98.3c0,0.2,0.1,0.3,0.3,0.3l0,0h56.6c0.2,0,0.3-0.1,0.3-0.3l0,0V281z"/>
<path d="M208.6,329.3c0,8.3-6.7,15.1-15.1,15.1l0,0h-81.7c-8.3,0-15.1-6.7-15.1-15.1l0,0v-63.3c0-8.3,6.7-15.1,15.1-15.1l0,0h81.7
	c8.3,0,15.1,6.7,15.1,15.1l0,0V329.3z M178.7,281.1c0-0.2-0.2-0.4-0.4-0.4l0,0h-51.5c-0.2,0-0.4,0.2-0.4,0.4l0,0v33.1
	c0,0.2,0.2,0.4,0.4,0.4l0,0h51.5c0.2,0,0.4-0.2,0.4-0.4l0,0V281.1z"/>
</svg>
