<?xml version="1.0" encoding="utf-8"?>
<!-- Generator: Adobe Illustrator 28.0.0, SVG Export Plug-In . SVG Version: 6.00 Build 0)  -->
<svg version="1.1" id="Layer_1" xmlns="http://www.w3.org/2000/svg" xmlns:xlink="http://www.w3.org/1999/xlink" x="0px" y="0px"
	 viewBox="0 0 132 96" style="enable-background:new 0 0 132 96;" xml:space="preserve">
<path d="M97.4,39.9C89.5,38,84,30.5,85.1,22.4c0.2-1.8,0.6-3.7,1.4-5.4c2-4.4,5.8-7.4,10.5-8.6c12-3,22.7,6.9,20.2,19.2
	c-0.8,3.7-3.1,7.6-6.4,9.7C106.6,39.9,102.1,41,97.4,39.9z"/>
<path d="M62,37.3L51.3,26.5c-0.1-0.1-0.2-0.1-0.4-0.1c-7.7,2.9-15.4,5.8-23.1,8.8c-1.3,0.5-2.6,0.6-3.9,0.3
	c-1.9-0.4-3.4-1.5-4.4-3.1c-2.1-3.5-0.2-7.9,3.5-9.3c2.2-0.8,4.4-1.7,6.6-2.5c3.6-1.3,7.8-3,10.5-4c2.9-1.1,5.8-2.2,8.7-3.3
	c1.9-0.7,3.2-1.1,3.9-1.2c1.6-0.2,3.2,0.2,4.6,1.2c0.9,0.6,1.8,1.6,2.6,2.4c12.3,12.2,24.6,24.6,36.8,37c1.3,1.3,2.7,2.8,3.5,4.4
	c0,0.1,0.1,0.2,0,0.2c0,0.1-0.1,0.1-0.2,0.1c0,0,0,0,0,0c-3.1-1.1-7-1.2-10,0.4c-1.3,0.6-3.1,1.9-4.6,2.3c-2.3,0.8-4.7,0.7-6.9-0.4
	c-1.1-0.6-2.2-1.1-3.3-1.7c-3.6-1.8-7.1-1.9-10.8-0.2c-0.5,0.2-1.5,0.7-3.1,1.6c-2.7,1.5-5.9,1.6-8.6,0c-3.8-2.1-7.2-3.8-11.4-2.3
	c-0.5,0.2-0.5,0.1-0.2-0.3c0.6-0.6,1.2-1.3,1.9-2c5.4-5.2,10.9-10.3,16.2-15.5c0.8-0.8,1.6-1.5,2.5-2.2C62,37.4,62,37.3,62,37.3
	C62,37.3,62,37.3,62,37.3z"/>
<path d="M99.7,72.1c-2.2-1.3-5.2-1.4-7.4-0.3c-1.4,0.7-2.7,1.4-4,2.2c-1.7,1-3.3,1.6-5.2,1.7c-3.6,0.1-6.1-1.9-9-3.5
	c-2.7-1.6-5.5-1.6-8.3,0c-1.9,1.1-4.1,2.5-5.9,3.1c-2.6,0.8-5.1,0.5-7.6-0.8c-3.1-1.7-6.3-4.3-10.1-3.1c-2.9,0.9-5.2,3.2-8.2,4
	c-2.6,0.7-5,0.4-7.4-0.9c-2.3-1.2-4.8-3.2-7.4-3.4c-2.2-0.2-3.9,0.6-5.9,1.6c-1,0.5-1.8,0.8-2.2,0.8c-1.5,0.2-3.3-0.6-3.9-2.2
	c-1.1-3,0.6-4.6,3.2-5.7c1.2-0.5,2.3-1,3.5-1.6c2-1.1,5-1.3,7.3-0.7c2.6,0.7,4.8,2.6,7.3,3.6c4.1,1.5,6.7-0.3,10.1-2.2
	c1.2-0.7,2.2-1.1,2.9-1.3c2.5-0.7,5.4-0.5,7.5,0.7c3.1,1.8,5.8,3.7,9.2,3.3c3.3-0.4,5.8-3,8.9-4c2.5-0.8,5-0.6,7.4,0.5
	c0.5,0.2,1.6,0.9,3.4,2c2.7,1.6,5.9,2.1,8.8,0.5c1.1-0.6,2.3-1.2,3.4-1.9c3.7-2,7.3-2.3,11-0.2c1,0.6,2,1.1,3,1.7
	c3.1,1.6,5.7,1.9,8.9,0.3c2.8-1.4,5.4-2.7,7.9-3.8c1.1-0.5,2.1-0.6,3.2-0.2c2.3,0.8,4,3.5,2.6,5.8c-0.9,1.5-2.7,1.9-4.3,2.5
	c-2.8,1-5.4,2.2-8,3.6c-1.1,0.6-1.9,0.9-2.6,1.1C107,76.7,103.8,74.4,99.7,72.1z"/>
<path d="M70.7,86.1c-2.3-0.3-4.2,0.6-6.1,1.8c-2.3,1.5-4.4,2.7-7.2,2.8c-3.9,0.1-6.8-2.3-10-3.9c-2-1-4.1-1-6.3,0
	c-1.8,0.8-4.2,2.5-5.9,3.2c-2.4,1-4.9,1-7.3,0.2c-3.9-1.4-6.7-4.9-11.2-3.8c-1.5,0.4-3.3,1.6-4.7,2.1c-1.1,0.4-2.1,0.4-3.2-0.2
	c-1.5-0.8-2.2-2.1-2.1-3.9c0.2-1.8,1.6-2.8,3.1-3.5c1.9-0.8,4.1-2,5.8-2.5c2.4-0.6,4.6-0.4,6.9,0.6c2.3,1.1,4.5,2.8,7.1,3.4
	c1.9,0.5,3.9,0,5.6-0.9c2.4-1.3,4.1-2.1,4.8-2.5c2.9-1.5,6.4-1.1,9.1,0.5c2,1.2,4.1,2.6,6.4,3c4.7,0.9,7.7-3,11.9-4.1
	c1.7-0.4,3.5-0.4,5.2,0.1c0.7,0.2,1.6,0.6,2.7,1.3c2.9,1.6,5.8,3.6,9.4,2.5c0.6-0.2,1.4-0.5,2.4-1.1c1.3-0.7,2.6-1.4,3.9-2
	c2.5-1.3,5.4-1.4,8-0.5c0.5,0.2,1.4,0.6,2.5,1.2c2.8,1.6,5.5,3.4,8.8,2.5c0.8-0.2,1.7-0.6,2.8-1.1c1.8-0.9,3.6-1.7,5.4-2.6
	c1.5-0.7,2.6-1.2,3.2-1.3c0.8-0.2,1.7,0,2.7,0.4c1.8,0.8,2.9,2.8,2.2,4.7c-0.8,2.2-2.8,2.5-4.8,3.3c-2.7,1.1-5.2,2.3-8.4,3.8
	c-2.4,1.2-5.1,1.4-7.8,0.6c-2.1-0.6-3.9-1.9-5.9-3c-1.1-0.6-2.1-1-2.8-1.1c-4.5-0.9-7.4,2.8-11.3,4.1c-1.8,0.6-3.6,0.6-5.5,0.2
	C76.8,89.5,74.1,86.5,70.7,86.1z"/>
</svg>
