<?xml version="1.0" encoding="utf-8"?>
<!-- Generator: Adobe Illustrator 28.0.0, SVG Export Plug-In . SVG Version: 6.00 Build 0)  -->
<svg version="1.1" id="Layer_1" xmlns="http://www.w3.org/2000/svg" xmlns:xlink="http://www.w3.org/1999/xlink" x="0px" y="0px"
	 viewBox="0 0 800 807" style="enable-background:new 0 0 800 807;" xml:space="preserve">
<g>
	<path d="M731.4,387.4c15.3,0,30.4,0,45.4,0c4.3,0,8.7,1.6,13,4.9c5.6,4.2,8.7,10.2,9.5,18c0.1,0.8-0.3,1.2-1.1,1.2
		c-92.3,0-184.7,0-277.3-0.1c-1,0-2.1,0.1-3.2,0.3c-0.5,0.1-1-0.2-1.1-0.7c0,0,0-0.1,0-0.1c-1.3-22.4-13.4-43.2-30.2-58.3
		c-16.6-15-38.7-25.1-61.2-27.3c-39.1-3.9-79.9,17-99.8,51.1c-6.3,10.8-9.9,22.3-10.9,34.7c0,0.3-0.2,0.5-0.5,0.5
		c-39.6-0.1-80.1-0.1-121.7,0c-8.5,0-15.4-0.4-20.9-1.4c-35.6-6.2-63-34-69.6-69.7c-1-5.4-1.5-12.7-1.4-21.8
		c0.2-50.4,0.2-98.2,0-143.4c-0.2-58.2,42.9-108.1,100.4-116c5.4-0.7,11.3-1.1,17.9-1.1c132.5,0.1,263.5,0.1,393,0
		c6.6,0,12.8,0.4,18.6,1.2c20.6,2.8,38.8,10.3,54.5,22.6c25.8,20.2,40.9,46.1,45.1,77.7c0.7,5.4,1.1,12.7,1.1,22
		c-0.1,68.7,0,137.1,0.2,205.2C731,387.2,731.2,387.4,731.4,387.4z M419.6,156.1c0-13.3-10.8-24.1-24.1-24.1H214.2
		c-13.3,0-24.1,10.8-24.1,24.1l0,0v40.4c0,13.3,10.8,24.1,24.1,24.1l0,0h181.3c13.3,0,24.1-10.8,24.1-24.1V156.1z M659.2,156.4
		c0-13.4-10.9-24.2-24.2-24.2l0,0h-83.4c-13.4,0-24.2,10.9-24.2,24.2c0,0,0,0,0,0v39.8c0,13.4,10.9,24.2,24.2,24.2l0,0H635
		c13.4,0,24.2-10.9,24.2-24.2c0,0,0,0,0,0V156.4z"/>
	<path d="M401.2,491.8c-25.9-6.4-44.9-27.5-49.3-53.5c-6.8-39.4,23.1-76.1,63.7-77.2c39.8-1.1,70.8,31.8,68.1,71.2
		c-1.8,26.6-18.7,48.1-43.5,57.6c-1.6,0.6-3.2,1.1-4.9,1.5c-3,0.7-2.9,1.1,0.1,1.1l363.7,0c0.2,0,0.4,0.1,0.4,0.4
		c-0.1,74.4-0.2,149.9-0.2,226.3c0,4.6,0.1,9.3-1,13.7c-2.5,10.3-10.8,18.9-21.1,21.9c-3.2,0.9-7.2,1.4-12.1,1.4
		c-241.1-0.1-484.3-0.1-729.8,0c-6.1,0-10.6-0.5-13.7-1.7c-12.8-4.6-21-16.2-21-29.8c0-77.2,0.1-154.3,0.1-231.2
		c0-0.4,0.3-0.7,0.7-0.7c0,0,0,0,0,0l161.3,0.1c0.3,0,0.6,0.3,0.6,0.6l0,37.9c0,0.5-0.2,0.7-0.7,0.7c-36.4-0.1-72.3-0.1-107.9,0.1
		c-6.2,0-12.2,3.5-12.2,10.3c-0.2,71.3-0.2,122.7-0.1,154.1c0.1,11.6,9.6,20.6,21.1,20.6c99.5,0.1,199,0.1,298.5,0.1
		c9.6,0,18.2-0.1,25.9-0.2c8.7-0.2,15.5-4.8,19.1-12.8c1-2.3,1.5-6.1,1.5-11.3c-0.1-49.5-0.1-99.1,0-148.8c0-6.6-4.2-11.8-11.1-11.9
		c-41.8-0.3-82.4-0.4-121.8-0.3c-0.4,0-0.7-0.3-0.7-0.7l0,0l0-38.4c0-0.4,0.2-0.6,0.6-0.6c38.5,0.1,77.4,0.1,116.6,0
		c3,0,6,0.4,9-0.1C402.1,492.2,402.1,492,401.2,491.8z M446.3,427.4c0-15.9-12.9-28.8-28.8-28.8c-15.9,0-28.8,12.9-28.8,28.8
		c0,15.9,12.9,28.8,28.8,28.8c0,0,0,0,0,0C433.4,456.2,446.3,443.3,446.3,427.4C446.3,427.4,446.3,427.4,446.3,427.4z"/>
	<path d="M232.9,597.3c0,0.2,0.1,0.3,0.3,0.3c9.4,0,18.9,0,28.5-0.1c2.9,0,5.1,0.5,6.7,1.5c4.2,2.9,6.1,9,2.6,13.3
		c-14.3,17.5-27.9,34.1-40.7,49.9c-2.6,3.2-4.7,5.2-6.4,6c-5.8,2.8-10.5-0.5-14.2-5c-13.8-16.7-28-33.7-42.6-51
		c-1.2-1.4-1.7-3.1-1.8-5.3c-0.1-5.3,4.2-9.4,9.3-9.4c10.1,0,20.1,0,29.9,0.1c0.3,0,0.6-0.3,0.6-0.6c0,0,0,0,0,0l0-149.1
		c0-0.5,0.2-0.7,0.7-0.7l26.4,0c0.4,0,0.7,0.2,0.7,0.7L232.9,597.3z"/>
</g>
</svg>
