<?xml version="1.0" encoding="utf-8"?>
<!-- Generator: Adobe Illustrator 28.0.0, SVG Export Plug-In . SVG Version: 6.00 Build 0)  -->
<svg version="1.1" id="Layer_1" xmlns="http://www.w3.org/2000/svg" xmlns:xlink="http://www.w3.org/1999/xlink" x="0px" y="0px"
	 viewBox="0 0 34.8 50.1" style="enable-background:new 0 0 34.8 50.1;" xml:space="preserve">
<path d="M17.1,1.1h0.8c3.4,0.2,6.4,1.8,8.5,4.4c0.1,0.2,0.3,0.3,0.4,0.5c0,0,0,0,0.1,0c0.6,0,1.3,0,1.8,0c2.5,0.3,4.3,2.4,4.3,4.9
	c0,4.9,0,9.8,0,14.8c0,0,0,0,0,0.1c1.4,0.5,2,2,1.3,3.3c-0.4,0.9-1.1,1.3-2.2,1.4c0,0,0,0-0.1,0.1c-0.3,4.9-3,9.3-7.3,11.8
	c0,0,0,0,0,0.1v6c0,0,0,0,0,0c1,0,2.1,0,3.1,0c1.1,0,1.3,1.3,0.2,1.6H6.7c-1-0.3-0.9-1.6,0.2-1.6c1,0,2.1,0,3.1,0c0,0,0,0,0,0v-6
	c0,0,0-0.1,0-0.1c-4.3-2.5-6.9-6.9-7.3-11.8c0,0,0-0.1-0.1-0.1c-2.7-0.1-3.4-3.7-0.8-4.7c0,0,0,0,0-0.1c0-4.9,0-9.8,0-14.7
	c0-2.5,1.8-4.6,4.3-4.9C6.8,6,7.5,6,8.1,6c0,0,0.1,0,0.1,0C10.3,3.1,13.5,1.3,17.1,1.1z M21.6,3.7c-4.2-2.1-9.4-0.6-12.1,3.2
	c-4.2,5.7-3.4,14.5,2.7,18.7c0,0,0.1,0,0.1,0h10.5c0,0,0.1,0,0.1,0c3.2-2.3,5.2-5.9,5.3-9.9C28.2,10.8,26.1,5.9,21.6,3.7z M3.9,9.5
	c-0.2,0.4-0.3,0.8-0.3,1.2c0,5,0,9.9,0,14.9c0,0,0,0,0,0h5.9c0.1,0,0.1,0,0-0.1C5,21,4.1,14.1,6.7,8.4c0.1-0.2,0.3-0.5,0.4-0.7
	c0,0,0-0.1,0-0.1C5.6,7.6,4.6,8.2,3.9,9.5z M27.9,7.7c3.1,5.8,2.3,13.2-2.5,17.9c0,0,0,0,0,0h5.9c0,0,0.1,0,0.1-0.1
	c0-4.5,0-9,0-13.4c0-1,0-1.7-0.1-1.9C31,8.6,29.5,7.5,27.9,7.7C27.9,7.6,27.9,7.6,27.9,7.7z M33,28c0-0.4-0.4-0.8-0.8-0.8l0,0H2.8
	C2.3,27.2,2,27.6,2,28v0v0c0,0.4,0.4,0.8,0.8,0.8h29.4C32.6,28.8,33,28.5,33,28L33,28z M4.4,30.5c0.5,7.8,7.7,13.4,15.4,12
	c6-1.1,10.2-6,10.7-12c0,0,0,0,0-0.1c0,0,0,0,0,0L4.4,30.5C4.5,30.5,4.4,30.5,4.4,30.5z M12.4,43.4c-0.2-0.1-0.4-0.2-0.6-0.2
	c0,0-0.1,0-0.1,0v5.1c0,0,0,0,0,0h11.3c0,0,0,0,0,0v-5.1c0,0,0,0,0,0c0,0,0,0,0,0C19.6,44.7,16,44.7,12.4,43.4z"/>
<path d="M17.5,23.9c-4.1,0-7.3-4-7.3-9c0,0,0,0,0,0c0-5,3.3-9,7.3-9c0,0,0,0,0,0c4.1,0,7.3,4,7.3,9S21.5,23.9,17.5,23.9z M17.5,22.3
	c3.2,0,5.7-3.3,5.7-7.3v0c0-4.1-2.6-7.3-5.7-7.3l0,0c-3.2,0-5.7,3.3-5.7,7.3S14.3,22.3,17.5,22.3L17.5,22.3z"/>
</svg>
