<?xml version="1.0" encoding="utf-8"?>
<!-- Generator: Adobe Illustrator 28.0.0, SVG Export Plug-In . SVG Version: 6.00 Build 0)  -->
<svg version="1.1" id="Layer_1" xmlns="http://www.w3.org/2000/svg" xmlns:xlink="http://www.w3.org/1999/xlink" x="0px" y="0px"
	 viewBox="0 0 449.4 449.4" style="enable-background:new 0 0 449.4 449.4;" xml:space="preserve">
<path d="M221.8,3.3h7.2C259.8,5.1,287,19.6,306,43.1c0.9,1.8,2.7,2.7,3.6,4.5c0,0,0,0,0.9,0c5.4,0,11.8,0,16.3,0
	c22.6,2.7,38.9,21.7,38.9,44.3c0,44.3,0,88.7,0,133.9c0,0,0,0,0,0.9c12.7,4.5,18.1,18.1,11.8,29.9c-3.6,8.1-10,11.8-19.9,12.7
	c0,0,0,0-0.9,0.9c-2.7,44.3-27.1,84.1-66,106.8c0,0,0,0,0,0.9v54.3l0,0c9,0,19,0,28,0c10,0,11.8,11.8,1.8,14.5H127.7
	c-9-2.7-8.1-14.5,1.8-14.5c9,0,19,0,28,0l0,0v-54.3V377c-38.9-22.6-62.4-62.4-66-106.8c0,0,0-0.9-0.9-0.9
	c-24.4-0.9-30.8-33.5-7.2-42.5c0,0,0,0,0-0.9c0-44.3,0-88.7,0-133c0-22.6,16.3-41.6,38.9-44.3c6.3-0.9,12.7-0.9,18.1-0.9h0.9
	C160.3,21.4,189.3,5.1,221.8,3.3z M262.5,26.9c-38-19-85-5.4-109.5,29c-38,51.6-30.8,131.2,24.4,169.2h0.9h95h0.9
	c29-20.8,47-53.4,48-89.6C322.3,91.1,303.3,46.8,262.5,26.9z M102.4,79.3c-1.8,3.6-2.7,7.2-2.7,10.9c0,45.2,0,89.6,0,134.8l0,0h53.4
	c0.9,0,0.9,0,0-0.9c-40.7-40.7-48.9-103.1-25.3-154.7c0.9-1.8,2.7-4.5,3.6-6.3v-0.9C117.8,62.1,108.7,67.6,102.4,79.3z M319.5,63
	c28,52.5,20.8,119.4-22.6,162l0,0h53.4c0,0,0.9,0,0.9-0.9c0-40.7,0-81.4,0-121.2c0-9,0-15.4-0.9-17.2C347.6,71.2,334,61.2,319.5,63
	C319.5,62.1,319.5,62.1,319.5,63z M365.7,246.7c0-3.6-3.6-7.2-7.2-7.2l0,0h-266c-4.5,0-7.2,3.6-7.2,7.2l0,0l0,0
	c0,3.6,3.6,7.2,7.2,7.2h266C362.1,254,365.7,251.2,365.7,246.7L365.7,246.7z M106.9,269.3c4.5,70.6,69.7,121.2,139.3,108.6
	c54.3-10,92.3-54.3,96.8-108.6c0,0,0,0,0-0.9l0,0L106.9,269.3C107.8,269.3,106.9,269.3,106.9,269.3z M179.3,386
	c-1.8-0.9-3.6-1.8-5.4-1.8H173v46.1l0,0h102.2l0,0v-46.1l0,0l0,0C244.5,397.8,211.9,397.8,179.3,386z"/>
<path d="M225.5,209.6c-37.1,0-66-36.2-66-81.4l0,0c0-45.2,29.9-81.4,66-81.4l0,0c37.1,0,66,36.2,66,81.4S261.6,209.6,225.5,209.6z
	 M225.5,195.1c29,0,51.6-29.9,51.6-66l0,0c0-37.1-23.5-66-51.6-66l0,0c-29,0-51.6,29.9-51.6,66S196.5,195.1,225.5,195.1L225.5,195.1
	z"/>
</svg>
