<?xml version="1.0" encoding="utf-8"?>
<!-- Generator: Adobe Illustrator 28.0.0, SVG Export Plug-In . SVG Version: 6.00 Build 0)  -->
<svg version="1.1" id="Layer_1" xmlns="http://www.w3.org/2000/svg" xmlns:xlink="http://www.w3.org/1999/xlink" x="0px" y="0px"
	 viewBox="0 0 450 450" style="enable-background:new 0 0 450 450;" xml:space="preserve">
<style type="text/css">
	.st0{fill:#393C41;}
</style>
<g>
	<path class="st0" d="M435.6,39.1c-0.2,5-2.2,9.4-5.5,13.1c-4.8,5.2-9.5,10.3-14.1,15.3c-0.4,0.4-1.1,0.5-1.5,0.1c0,0-0.1,0-0.1-0.1
		c-3.5-3.9-7.1-7.8-10.7-11.6c-3.6-3.8-5.9-6.7-6.8-8.5c-7-14.8,4.6-31.4,20.9-29.4C428.4,19.2,436,28.6,435.6,39.1z M426.7,38.2
		c0-6.3-5.1-11.5-11.5-11.5c0,0,0,0,0,0c-6.3,0-11.5,5.1-11.5,11.5s5.1,11.5,11.5,11.5C421.5,49.7,426.7,44.5,426.7,38.2
		C426.7,38.2,426.7,38.2,426.7,38.2z"/>
	<path class="st0" d="M292.9,327.5c-0.3-3.7-1.1-7.6-2.5-11.5c-1.3-3.9-2.9-7.5-4.6-11c-1.2-2.5-2.7-5.2-4.3-8.1
		c-1.6-2.8-3.2-5.5-4.7-7.8c-4.5-7.1-8.7-14-12.8-20.7c-4-6.5-7-12.8-9.2-18.9c-1.1-2.9-1.8-6.1-2.2-9.5c-0.4-3.2-0.3-6.3,0.4-9.3
		c1.2-5.6,4-10.5,8.3-14.4c3.3-3,7.2-5.5,11.7-7.4c4.3-1.8,8.6-3.3,12.9-4.4c3.2-0.8,6.2-1.5,9.1-2c3-0.6,6.1-1,9.3-1.5
		c5.9-0.8,11.6-1.6,17.3-2.3c15.2-2,29.7-4.6,43.7-7.7c7.6-1.7,15.4-3.7,23.3-6c9.1-2.7,18-6,26.7-10.1c7.2-3.3,13.1-7.3,17.8-11.8
		c1.9-1.8,3.4-3.9,4.5-6.2c1.4-2.9,1.6-5.9,0.7-9c-0.4-1.5-1.1-2.9-1.9-4.2c-0.8-1.3-1.6-2.5-2.6-3.6c-2.9-3.5-6.6-6.8-11.2-10.1
		c-4.6-3.2-9-6-13.4-8.2c-3.3-1.7-6.3-3.4-9-5.2c-1.8-1.1-3.5-2.6-5.3-4.3c-2.8-2.8-4.6-6-5.4-9.5c-0.6-3-0.3-5.8,1-8.5
		c1.6-3.3,4.1-6.3,7.5-8.9c4.9-3.8,11-7,18.3-9.8c1.6-0.6,2.8-0.1,3.6,1.4c0,0,0,0.1,0,0.1c0.5,1.7,0,2.9-1.7,3.7
		c-2.5,1.1-5,2.4-7.4,3.7c-4.4,2.4-8.1,5.1-11.2,8c-1.2,1.2-2.1,2.6-2.8,4.2c-0.9,2.2-0.9,4.2-0.1,6c0.7,1.5,1.7,2.8,3,4
		c1.1,1,2.3,2,3.6,2.9c1.4,0.9,2.7,1.7,3.9,2.3c3.9,1.9,7.6,3.7,11,5.5c3.3,1.8,6.7,3.8,10,6c5.8,3.8,10.4,7.8,13.9,12.1
		c3.1,3.7,5.1,7.6,6.1,11.6c0.7,3,0.8,6.1,0.3,9.1c-0.6,3.2-1.8,6.3-3.6,9.1c-1.9,3-4.1,5.7-6.7,8.1c-2.7,2.5-5.5,4.7-8.5,6.7
		c-6.7,4.4-14.5,8.5-23.4,12.1c-12.7,5.2-26.8,9.8-42.2,13.7c-15.3,3.9-30.2,6.9-44.5,9.2c-6.8,1.1-13.2,2.2-19.2,3.2
		c-1.8,0.3-3.6,0.7-5.4,1.1c-6.7,1.5-12.3,3.5-17,6c-2,1-3.8,2.3-5.4,3.8c-1.5,1.4-2.4,3.1-2.7,4.9c-0.3,1.8-0.3,3.8,0.2,5.8
		c0.8,3.2,2,6.3,3.5,9.3c2.3,4.6,4.9,9,7.8,13.3c4.7,7.1,9.3,14.2,13.8,21.2c4.6,7.2,8.5,14.6,11.7,22c2.7,6.2,4.4,12.4,5.2,18.4
		c1.5,11.6-0.6,22.2-6.4,31.8c-3.1,5.1-7,9.8-11.7,14c-6.3,5.5-13.4,10.4-21.4,14.6c-9.4,4.9-19.2,9.1-29.6,12.6
		c-13.9,4.7-28.1,8.7-42.5,11.9c-17.3,3.8-34.2,7-50.7,9.6c-15.5,2.4-29.8,4.3-43,5.8c-2.8,0.3-5.4-0.4-7.9-2
		c-2.4-1.6-3.9-3.7-4.7-6.3c-1.3-4.3-0.6-8.1,2.1-11.6c1.1-1.4,2.4-2.4,4.1-3.2c1.4-0.7,3.2-1.1,5.3-1.3c8.5-0.8,16.8-1.7,24.9-2.7
		c19.9-2.4,38.7-5.2,56.3-8.5c16.4-3,31.9-6.8,46.7-11.3c9.7-3,18.8-6.4,27.2-10.4c7.7-3.7,14.3-7.8,19.7-12.4
		c3.3-2.8,6.1-5.9,8.2-9.3c1.6-2.6,2.8-5.3,3.5-8.2C293,333.9,293.2,330.8,292.9,327.5z"/>
	<path class="st0" d="M309.7,154.5c-1.8,4.2-4.2,7.9-7.2,11.1c-9.8,10.6-19.6,21.3-29.6,32.1c-0.8,0.9-2.2,0.9-3.1,0.1
		c0,0-0.1-0.1-0.1-0.1c-9.7-10.5-19.5-21.1-29.4-31.8c-19.7-21.4-11.9-56.2,15-67.2c11.8-4.9,25.2-4.1,36.4,2.2
		C310.9,111.6,318.4,134.6,309.7,154.5z M297.3,137.4c0-14.4-11.6-26-26-26h0c-14.4,0-26,11.6-26,26s11.6,26,26,26
		C285.7,163.5,297.3,151.8,297.3,137.4C297.3,137.4,297.3,137.4,297.3,137.4z"/>
	<path class="st0" d="M153.3,315.8c-3.4,7.4-7.9,14-13.4,20c-18,19.5-36.5,39.6-55.5,60.1c-1.2,1.3-3.2,1.8-4.7,1
		c-0.6-0.3-1.3-0.9-2-1.7c-16.1-17.4-32.3-35-48.6-52.6c-5.1-5.5-7.8-8.5-8.2-8.9C0.9,310-3.7,276.5,9.4,248.5
		c11.7-24.8,35.1-41.9,62.2-45.1c15-1.8,29.2,0.4,42.7,6.5C154.5,228.2,171.9,275.8,153.3,315.8z M134.2,282.1
		c0-29.2-23.7-52.8-52.8-52.8l0,0c-29.2,0-52.8,23.7-52.8,52.8l0,0c0,29.2,23.7,52.8,52.8,52.8h0C110.6,335,134.2,311.3,134.2,282.1
		L134.2,282.1z"/>
</g>
</svg>
