<?xml version="1.0" encoding="utf-8"?>
<!-- Generator: Adobe Illustrator 28.0.0, SVG Export Plug-In . SVG Version: 6.00 Build 0)  -->
<svg version="1.1" id="Layer_1" xmlns="http://www.w3.org/2000/svg" xmlns:xlink="http://www.w3.org/1999/xlink" x="0px" y="0px"
	 viewBox="0 0 450 450" style="enable-background:new 0 0 450 450;" xml:space="preserve">
<path vector-effect="non-scaling-stroke" d="M333.5,40.3c0-20.3-16.5-36.8-36.8-36.8h0c-20.3,0-36.8,16.5-36.8,36.8
	s16.5,36.8,36.8,36.8C317,77.1,333.5,60.6,333.5,40.3C333.5,40.3,333.5,40.3,333.5,40.3"/>
<path vector-effect="non-scaling-stroke" d="M249.4,145.3c0,38.2,0.1,76.4,0.1,114.8c0,0.4,0,0.9,0,1.4c0,58,0,113,0.2,165.2
	c0,3.6,0.7,6.8,2.2,9.7c4.8,9.2,15.6,12.6,25.3,9.4c8.9-2.9,13.8-11.1,13.8-20.3c0-54.6,0-109,0-163.3c0-0.2,0.1-0.4,0.4-0.4
	l7.6-0.1c0,0,0.1,0,0.1,0.1c0,0,0,0,0,0c0,53.9,0,107.8,0,161.8c0,4,0.2,7,1.5,10.3c4.1,10.8,16.2,15.6,26.9,12.1
	c8.4-2.7,13.5-10.4,13.5-19.2c0.1-98.1,0.1-192.3,0.1-282.7c0-0.2,0.1-0.3,0.3-0.3l6.7,0c0.1,0,0.2,0.1,0.2,0.2
	c0,32.6,0,65.2,0,97.8c0,3.4,0.1,5.8,0.3,7c0.4,2.3,1.3,4.5,2.5,6.5c6.3,10,21.9,9.9,27.7-0.6c1.6-2.9,2.4-6.1,2.4-9.8
	c0-37.9,0-74.7,0-110.3c0-4.5-0.5-8.9-1.6-13.2c-4.8-18.8-20.4-31.9-39.7-33.6c-1.8-0.2-4.1-0.2-7.1-0.2c-21.3,0-41.9,0-61.6,0
	c-10.7,0-20.2,2.6-28.2,9.6c-3.4,2.9-6.2,6-8.4,9.3c-11.1,16.2-22.3,32.5-33.6,48.9c-0.1,0.2-0.3,0.3-0.5,0.3c-19.5,0-38.7,0-57.5,0
	c-6.3,0-12.1,2.9-14.9,8.7c-4.3,9.1-0.1,20.8,10.2,23.5c1.5,0.4,3.5,0.6,5.9,0.6c21.4-0.1,42.7-0.1,63.8,0c1.9,0,3.6-0.1,5.1-0.4
	c4.3-0.8,8.5-3.1,11-6.6c8.4-12,16.8-24,25.2-36C249.3,144.9,249.4,145,249.4,145.3"/>
<path vector-effect="non-scaling-stroke" d="M118.1,200.9c0,0-0.1,0-0.1,0c0,0,0,0,0,0l-19.5,19.5c0,0,0,0.1,0,0.1c0,0,0,0,0,0
	l19.5,19.5c0,0,0.1,0,0.1,0c0,0,0,0,0,0l19.5-19.5c0,0,0-0.1,0-0.1c0,0,0,0,0,0L118.1,200.9"/>
<path vector-effect="non-scaling-stroke" d="M136.4,237.9c0,0-0.1,0-0.1,0c0,0,0,0,0,0l-19.5,19.5c0,0,0,0.1,0,0.1c0,0,0,0,0,0
	l19.5,19.5c0,0,0.1,0,0.1,0c0,0,0,0,0,0l19.5-19.5c0,0,0-0.1,0-0.1l0,0L136.4,237.9"/>
<path vector-effect="non-scaling-stroke" d="M111.1,420.9c-0.1,0-0.2-0.1-0.2-0.2L80.9,261.1c0-0.1-0.1-0.2-0.2-0.2l-25.8,0
	c-0.1,0-0.2,0.1-0.2,0.2c0,0,0,0,0,0l34.2,185.4c0,0.1,0.1,0.2,0.2,0.2h89.1c0.1,0,0.2-0.1,0.2-0.2l34.9-185.5
	c0-0.1-0.1-0.3-0.2-0.3c0,0,0,0,0,0l-25.9,0c-0.1,0-0.2,0.1-0.2,0.2l-30.6,159.7c0,0.1-0.1,0.2-0.2,0.2H111.1"/>
<path vector-effect="non-scaling-stroke" d="M141.3,290.5c0-0.1-0.1-0.2-0.2-0.2h-26.6c-0.1,0-0.2,0.1-0.2,0.2V317
	c0,0.1,0.1,0.2,0.2,0.2h26.6c0.1,0,0.2-0.1,0.2-0.2V290.5"/>
<ellipse transform="matrix(0.331 -0.9436 0.9436 0.331 160.4685 306.8926)" cx="296.7" cy="40.3" rx="36.8" ry="36.8"/>
<path d="M249.4,145.3c0-0.4-0.1-0.4-0.3-0.1c-8.4,12-16.8,24-25.2,36c-2.5,3.5-6.7,5.8-11,6.6c-1.5,0.3-3.2,0.4-5.1,0.4
	c-21.1-0.1-42.4-0.1-63.8,0c-2.4,0-4.4-0.2-5.9-0.6c-10.3-2.6-14.5-14.4-10.2-23.5c2.8-5.8,8.5-8.7,14.9-8.7c18.8,0,38,0,57.5,0
	c0.2,0,0.4-0.1,0.5-0.3c11.2-16.4,22.4-32.7,33.6-48.9c2.2-3.3,5-6.4,8.4-9.3c8-7,17.5-9.6,28.2-9.6c19.7,0,40.2,0,61.6,0
	c3,0,5.3,0.1,7.1,0.2c19.3,1.8,35,14.8,39.7,33.6c1.1,4.3,1.6,8.7,1.6,13.2c0,35.6,0,72.4,0,110.3c0,3.6-0.8,6.9-2.4,9.8
	c-5.8,10.6-21.4,10.7-27.7,0.6c-1.3-2-2.1-4.2-2.5-6.5c-0.2-1.3-0.3-3.6-0.3-7c0-32.6,0-65.2,0-97.8c0-0.1-0.1-0.2-0.2-0.2l-6.7,0
	c-0.2,0-0.3,0.1-0.3,0.3c0,90.4,0,184.7-0.1,282.7c0,8.9-5.1,16.5-13.5,19.2c-10.7,3.5-22.8-1.3-26.9-12.1
	c-1.3-3.3-1.5-6.3-1.5-10.3c0-53.9,0-107.8,0-161.8c0,0,0-0.1-0.1-0.1c0,0,0,0,0,0l-7.6,0.1c-0.2,0-0.4,0.1-0.4,0.4
	c0,54.3,0,108.7,0,163.3c0,9.2-4.8,17.3-13.8,20.3c-9.7,3.2-20.6-0.2-25.3-9.4c-1.5-2.8-2.2-6-2.2-9.7
	c-0.1-52.1-0.2-107.2-0.2-165.2c0-0.5,0-0.9,0-1.4C249.4,221.7,249.4,183.5,249.4,145.3z"/>
<path d="M98.4,220.4l19.5-19.5c0,0,0.1,0,0.1,0l19.5,19.5c0,0,0,0.1,0,0.1L118,240c0,0-0.1,0-0.1,0l-19.5-19.5
	C98.4,220.5,98.4,220.4,98.4,220.4z"/>
<path d="M116.7,257.4l19.5-19.5c0,0,0.1,0,0.1,0l19.5,19.5c0,0,0,0.1,0,0.1L136.4,277c0,0-0.1,0-0.1,0l-19.5-19.5
	C116.7,257.5,116.7,257.4,116.7,257.4z"/>
<path d="M111.1,420.9h45c0.1,0,0.2-0.1,0.2-0.2L186.9,261c0-0.1,0.1-0.2,0.2-0.2l25.9,0c0.1,0,0.2,0.1,0.2,0.2c0,0,0,0,0,0
	l-34.9,185.5c0,0.1-0.1,0.2-0.2,0.2H89.1c-0.1,0-0.2-0.1-0.2-0.2L54.6,261.2c0-0.1,0.1-0.3,0.2-0.3c0,0,0,0,0,0l25.8,0
	c0.1,0,0.2,0.1,0.2,0.2l29.9,159.6C110.9,420.8,111,420.9,111.1,420.9z"/>
<path d="M114.5,290.3h26.6c0.1,0,0.2,0.1,0.2,0.2V317c0,0.1-0.1,0.2-0.2,0.2h-26.6c-0.1,0-0.2-0.1-0.2-0.2v-26.6
	C114.3,290.4,114.4,290.3,114.5,290.3z"/>
</svg>
