<?xml version="1.0" encoding="utf-8"?>
<!-- Generator: Adobe Illustrator 28.0.0, SVG Export Plug-In . SVG Version: 6.00 Build 0)  -->
<svg version="1.1" id="Capa_1" xmlns="http://www.w3.org/2000/svg" xmlns:xlink="http://www.w3.org/1999/xlink" x="0px" y="0px"
	 viewBox="0 0 450 450" style="enable-background:new 0 0 450 450;" xml:space="preserve">
<g>
	<g>
		<g>
			<path d="M359.7,252.4c-6.2,0-12.3-2.4-17-7.1c-65-64.9-170.6-64.9-235.5,0c-9.4,9.4-24.7,9.4-34,0s-9.4-24.7,0-34
				c83.7-83.7,219.9-83.7,303.6,0c9.4,9.4,9.4,24.7,0,34C372,250,365.8,252.4,359.7,252.4z"/>
		</g>
		<g>
			<path d="M294.5,317.5c-6.2,0-12.3-2.4-17-7.1c-14-14-32.8-21.8-52.6-21.8s-38.6,7.7-52.6,21.8c-9.4,9.4-24.7,9.4-34,0
				c-9.4-9.4-9.4-24.7,0-34c23.1-23.1,53.9-35.9,86.6-35.9s63.5,12.7,86.6,35.9c9.4,9.4,9.4,24.7,0,34
				C306.9,315.1,300.7,317.5,294.5,317.5z"/>
		</g>
		<g>
			<circle cx="224.9" cy="363.1" r="32.1"/>
		</g>
		<g>
			<path d="M425.9,186.2c-6.2,0-12.3-2.4-17-7.1c-101.5-101.4-266.4-101.4-367.8,0c-9.4,9.4-24.7,9.4-34,0s-9.4-24.7,0-34
				c58.2-58.2,135.6-90.3,218-90.3s159.7,32,218,90.3c9.4,9.4,9.4,24.7,0,34C438.1,183.9,432,186.2,425.9,186.2z"/>
		</g>
	</g>
</g>
</svg>
