<?xml version="1.0" encoding="utf-8"?>
<!-- Generator: Adobe Illustrator 28.0.0, SVG Export Plug-In . SVG Version: 6.00 Build 0)  -->
<svg version="1.1" id="Layer_1" xmlns="http://www.w3.org/2000/svg" xmlns:xlink="http://www.w3.org/1999/xlink" x="0px" y="0px"
	 viewBox="0 0 32.8 30.6" style="enable-background:new 0 0 32.8 30.6;" xml:space="preserve">
<style type="text/css">
	.st0{fill:#1A1A1A;}
</style>
<path class="st0" d="M17.2,24.9c-0.4-0.3-0.9-0.4-1.3-0.2c-0.2,0.1-0.5,0.3-0.8,0.5c-0.7,0.5-1.3,1-2,1.4c-1.2,0.8-2.4,1.7-3.6,2.5
	c-0.6,0.4-1.1,0.7-1.3,0.9c-0.3,0.2-0.6,0.3-0.9,0.2c-0.6-0.1-1-0.7-0.9-1.2c0-0.1,0.1-0.4,0.2-0.9c0.4-1.1,0.7-2.2,1-3.3
	c0.5-1.6,1.1-3.3,1.6-4.9c0.2-0.8,0.1-1.2-0.6-1.6c-0.6-0.4-1.4-0.9-1.9-1.3c-0.8-0.5-1.5-1-2.3-1.6c-1.2-0.8-2.4-1.7-3.4-2.3
	c-0.3-0.2-0.6-0.5-0.6-0.9c-0.1-0.4,0-0.8,0.4-1c0.3-0.3,0.7-0.3,1.2-0.3c2.9,0,5.8,0,8.7,0c0.4,0,0.7,0,0.8-0.1
	c0.8-0.3,0.9-1.1,1.2-1.8c0.8-2.2,1.5-4.4,2.3-6.6C15,1.9,15.2,1.5,15.3,1c0.2-0.6,0.8-0.9,1.4-0.7c0.6,0.3,0.8,0.9,1,1.5
	c1.2,3.4,2,5.8,2.6,7.5c0.2,0.6,0.4,1.3,1.1,1.5c0.2,0.1,0.5,0.1,1,0.1c2.9,0,5.7,0,8.6,0c0.4,0,0.6,0,0.8,0.1
	c0.8,0.3,1.1,1.5,0.3,2c-0.9,0.7-1.9,1.3-2.8,2c-0.1,0.1-0.3,0.2-0.4,0.3c-1,0.7-2.1,1.4-3.1,2.2c-0.4,0.2-1,0.7-1.5,1
	c-0.3,0.2-0.5,0.5-0.6,0.9c0,0.1,0,0.3,0.1,0.5c0.1,0.4,0.2,0.7,0.3,1.1c0.8,2.5,1.7,5.1,2.5,7.6c0.2,0.7-0.1,1.4-0.8,1.7
	c-0.5,0.2-0.9,0-1.3-0.3c-0.2-0.2-0.5-0.3-0.7-0.5c-0.5-0.3-1-0.7-1.4-1c-1.1-0.8-2.2-1.6-3.4-2.3C18.3,25.7,17.7,25.3,17.2,24.9z"
	/>
</svg>
