<?xml version="1.0" encoding="utf-8"?>
<!-- Generator: Adobe Illustrator 28.0.0, SVG Export Plug-In . SVG Version: 6.00 Build 0)  -->
<svg version="1.1" id="Layer_1" xmlns="http://www.w3.org/2000/svg" xmlns:xlink="http://www.w3.org/1999/xlink" x="0px" y="0px"
	 viewBox="0 0 16.5 30.6" style="enable-background:new 0 0 16.5 30.6;" xml:space="preserve">
<style type="text/css">
	.st0{fill:#1A1A1A;}
</style>
<path class="st0" d="M16.4,24.6c-0.3,0-0.6,0.1-0.9,0.3c-0.5,0.4-1.1,0.8-1.8,1.3c-1.2,0.7-2.3,1.5-3.4,2.3c-0.4,0.3-0.9,0.7-1.4,1
	c-0.2,0.2-0.5,0.3-0.7,0.5c-0.4,0.3-0.8,0.5-1.3,0.3c-0.7-0.3-1-1-0.8-1.7c0.8-2.5,1.7-5.1,2.5-7.6c0.1-0.4,0.2-0.7,0.3-1.1
	C9,19.7,9,19.5,9,19.4c-0.1-0.4-0.3-0.7-0.6-0.9c-0.5-0.3-1.1-0.8-1.5-1c-1-0.8-2.1-1.5-3.1-2.2c-0.1-0.1-0.3-0.2-0.4-0.3
	c-0.9-0.7-1.9-1.3-2.8-2c-0.8-0.5-0.5-1.7,0.3-2c0.2-0.1,0.4-0.1,0.8-0.1c2.9,0,5.7,0,8.6,0c0.5,0,0.8,0,1-0.1
	c0.7-0.2,0.9-0.9,1.1-1.5C13,7.6,13.8,5.2,15,1.8c0.2-0.6,0.4-1.2,1-1.5c0.1,0,0.3-0.1,0.4-0.1V24.6z"/>
</svg>
