<?xml version="1.0" encoding="utf-8"?>
<!-- Generator: Adobe Illustrator 28.0.0, SVG Export Plug-In . SVG Version: 6.00 Build 0)  -->
<svg version="1.1" id="Layer_1" xmlns="http://www.w3.org/2000/svg" xmlns:xlink="http://www.w3.org/1999/xlink" x="0px" y="0px"
	 viewBox="0 0 450 450" style="enable-background:new 0 0 450 450;" xml:space="preserve">
<path d="M304.7,209.7v158.2c0,0.3,0.3,0.6,0.6,0.6c42.5,0,84.5,0,125.9,0c11.9,0,20,11.7,14.8,22.7c-3.8,8.1-10.9,9.3-19.3,9.2
	c-13.9-0.2-28.6-0.2-44.1-0.1c-0.1,0-0.2,0.1-0.2,0.2c0,0,0,0.1,0,0.1c4,6.5,8.3,12.8,12.7,19c6.8,9.6,6.8,21.6-4.9,26.8
	c-8.4,3.7-15.9-0.3-20.6-7.4c-8.6-13-17-25.6-25.2-37.9c-0.3-0.5-0.8-0.8-1.4-0.8h-235c-0.6,0-1.1,0.3-1.5,0.8
	c-8.1,12-16.4,24.4-24.8,37.2c-5.3,8.1-12.9,12.7-22.4,7.9c-9.2-4.6-10.8-15.5-5.3-23.8c7.9-11.8,15.8-23.6,23.6-35.3
	c0.3-0.4,0.2-1-0.1-1.4c-21-21-43.5-43.4-67.4-67.3c-2.4-2.4-4.1-4.8-5.3-7.2c-4-8.6,1.2-18.7,10.3-21.3c7-2,12.4,0.8,17.2,5.7
	c8.4,8.6,16.6,16.7,24.4,24.5c0.4,0.4,1,0.7,1.6,0.7c18.2,0.2,37.2,0.2,57.2,0c17-0.2,30.1,0.7,39.4,2.9c14.7,3.4,28.3,9.7,40.8,19
	c10.7,7.9,21.7,16.3,33,25.1c0.7,0.5,1.5,0.8,2.3,0.8H272c0.7,0,1-0.3,1-1V209.2c0-0.4-0.3-0.6-0.6-0.6c-0.1,0-0.1,0-0.2,0
	c-7.3,2.6-13.6,6.5-18.9,11.6c-6.2,6.1-14.9,7-22,1.8c-23.8-17.4-51.7-22.2-80.4-13.3c-5.9,1.8-11.1,0.6-15.7-3.5
	c-7.3-6.7-4.9-14.3-3.1-22.6c3.7-16.9,6.9-30.2,9.7-39.9c5.7-19.6,17.1-39.7,30.9-55.2c26.2-29.5,59.2-46.6,99.1-51.5
	c0.9-0.1,1.3-0.6,1.3-1.4c0.1-8.7-2-19.6,4.4-26.3c6.4-6.6,16.7-6.6,23,0.1c6.3,6.8,4.1,17.8,4.3,26.5c0,0.7,0.4,1.1,1,1.1
	C365,42.8,413.8,81,434,136.6c5.6,15.5,9.6,36.7,13.4,54.7c1.7,8.2-5,17-13.2,18c-3,0.4-6.2,0-9.7-1.1c-26.6-8.3-54.2-3.3-76.9,13.2
	c-7.4,5.4-16.2,5.6-22.9-1c-5.3-5.2-11.7-9.1-18.6-11.7C305.2,208.4,304.7,208.7,304.7,209.7z M259,70.9c0.1-0.2,0-0.5-0.2-0.6
	c-0.1,0-0.2-0.1-0.3,0c-37.9,10.6-65.1,33.6-81.6,68.9c-4.8,10.2-7.4,21.8-9.9,32.9c-0.1,0.4,0.2,0.9,0.6,1c0.1,0,0.2,0,0.3,0
	c19.9-1.9,39.2,1.3,58,9.4c0.3,0.1,0.7,0,0.9-0.3c0-0.1,0-0.1,0.1-0.2C230.4,143.1,241.1,106.1,259,70.9z M318.8,71.1
	c17.7,34.8,28.4,71.6,32.1,110.5c0.1,0.8,0.5,1.1,1.3,0.8c17.8-7.9,37-11,57.7-9.4c0.4,0,0.8-0.3,0.8-0.7c0-0.1,0-0.2,0-0.2
	c-2.2-8.6-3.9-17.8-7.1-25.9c-15.3-38.8-43.4-64.1-84.2-75.9c-0.3-0.1-0.6,0.1-0.7,0.4C318.8,70.9,318.8,71,318.8,71.1z
	 M175.9,367.5c-13.3-9.4-29.2-14.8-45.3-14.8c-13.7,0-27.5-0.1-41.5-0.3c0,0-0.1,0-0.1,0.1c0,0,0,0,0,0c5.1,5.3,10.2,10.4,15.4,15.5
	c0.3,0.3,0.7,0.5,1.2,0.5l70,0C176.8,368.5,176.9,368.1,175.9,367.5z"/>
</svg>
