<?xml version="1.0" encoding="utf-8"?>
<!-- Generator: Adobe Illustrator 28.0.0, SVG Export Plug-In . SVG Version: 6.00 Build 0)  -->
<svg version="1.1" id="Layer_1" xmlns="http://www.w3.org/2000/svg" xmlns:xlink="http://www.w3.org/1999/xlink" x="0px" y="0px"
	 viewBox="0 0 450 450" style="enable-background:new 0 0 450 450;" xml:space="preserve">
<path d="M449,200.2v1.5c-0.2,1.2-0.6,2.2-1,3c-3.1,5.1-6.7,10.6-10.3,15.6c-1.4,2-2.9,3.9-4.3,5.8c-2.2,3-4.7,5.8-7.1,8.7
	c-1.9,2.3-3.7,4.4-5.5,6.3c-3.4,3.6-6.7,7.2-10.4,10.6c-3.3,3-6.5,6.1-10,8.9c-3.8,3-7.6,6.2-11.4,8.9c-11,7.9-22.6,14.8-34.8,20.6
	c-29.1,13.8-60.1,20.8-92.7,20.8C114.7,311,41.3,311,41.1,311c-5.5-0.1-9.2-0.3-11.2-0.6c-5.9-0.9-11.4-3.3-16.4-7.5
	C6.8,297.4,2.6,290.4,1,281.9v-81.2c0.7-5,4-6.8,8.8-6.7c6.8,0.1,13.4,0.1,19.9,0c0.2,0,0.4-0.1,0.6-0.2
	c23.5-13.9,46.9-27.9,70.3-41.8c2.3-1.4,5.3-1.4,7.6,0.1c2.1,1.4,3.2,3.6,3.2,6.7c0,11.7,0,23.4,0,35c0,0.1,0.1,0.1,0.1,0.1
	c0,0,0,0,0,0h158.8c0.2,0,0.3-0.1,0.2-0.3c-5.5-14-10.8-27.7-16-41c-1.6-4.2-0.9-7.8,2.2-10.9c2.3-2.2,5.1-2.6,8.2-2.6
	c6.6,0,12.9,0,19.1,0c2.8,0,5.1,0.8,6.9,2.5c1,0.9,2,2.4,3.1,4.5c8.2,16.3,16.2,32,24,47.3c0.1,0.2,0.3,0.3,0.5,0.3
	c40.8,0,81.6,0,122.5,0C445.4,193.9,448.1,196,449,200.2z M96.9,170.6l-38.9,23.1c-0.3,0.2-0.3,0.3,0,0.3h38.7
	c0.2,0,0.3-0.1,0.3-0.4v-22.8C97.2,170.6,97.1,170.6,96.9,170.6C97,170.6,97,170.6,96.9,170.6z M340.5,245.3c5.1,0,8.4,5.4,6.4,9.9
	c-1.3,3-3.9,4.2-7,4.2c-108.6,0-216.8,0-324.5,0c-0.1,0-0.2,0.1-0.2,0.2c0,6.1,0,12.5,0,19.2c0,1.3,0.2,2.6,0.7,3.9
	c2.1,5.4,5.6,9.3,10.5,11.7c2.7,1.4,5.9,2.2,8.9,2.2c76.1,0.1,149.4,0.1,219.9,0c3.5,0,7.2-0.1,11.2-0.2c37-1,70.9-11.1,101.8-30.4
	c20.6-12.8,38.1-28.4,52.7-46.8c2.9-3.6,5.6-7.3,8.2-11.1c0.1-0.1,0-0.2-0.1-0.2H15.3c-0.1,0-0.2,0.1-0.2,0.2l0,0v36.8
	c0,0.2,0.1,0.3,0.3,0.3C123.7,245.3,232,245.3,340.5,245.3z"/>
</svg>
