<?xml version="1.0" encoding="utf-8"?>
<!-- Generator: Adobe Illustrator 28.0.0, SVG Export Plug-In . SVG Version: 6.00 Build 0)  -->
<svg version="1.1" id="Layer_1" xmlns="http://www.w3.org/2000/svg" xmlns:xlink="http://www.w3.org/1999/xlink" x="0px" y="0px"
	 viewBox="0 0 450 450" style="enable-background:new 0 0 450 450;" xml:space="preserve">
<g>
	<circle cx="188.3" cy="116.9" r="32.2"/>
	<path d="M448.6,342.4v2.2c-0.5,3.9-2,7-4.6,9.5c-5.9,5.6-13.1,9.1-21.5,10.5c-11.6,1.9-22.3-0.5-32.2-7.3c-1.4-1-2.7-2.1-4-3.4
		c-4.9-4.9-12.7-4.9-17.8-0.2c-8.3,7.7-18.2,11.6-29.7,11.6c-8.9,0-17.1-2.7-24.7-8.1c-2.7-1.9-4.7-4.6-7.8-5.9
		c-5.2-2.3-10.4-0.9-14.5,2.9c-2.2,2.1-4.4,3.7-6.4,4.9c-9.6,5.8-20.1,7.5-31.4,5.2c-5.1-1.1-11-3.4-15.2-6.7
		c-3.1-2.4-6.2-5.8-10-6.8c-4.7-1.2-8.9-0.2-12.4,3c-8,7.4-17.4,11.2-28.2,11.5c-9.1,0.2-17.7-2.4-25.7-7.8
		c-2.2-1.5-3.9-3.6-6.2-5.1c-5.2-3.4-11.3-2.7-15.9,1.3c-3.1,2.7-6.1,5.3-9.9,7.2c-10.5,5.4-21.5,6.2-33.1,2.5
		c-2.4-0.8-4.3-1.9-6.5-3.1c-3.3-1.7-6-4.2-8.8-6.6c-5.8-5-12.4-4.7-18,0.4c-8.5,7.7-18.3,11.4-29.4,11.1
		c-11.2-0.3-20.7-4-28.3-11.2c-2.5-2.4-4-5.6-4.5-9.5v-2.2c0.9-5.7,3.7-9.7,8.4-11.9c4.4-2,9.3-1.7,13.4,0.7
		c2.2,1.3,3.8,3.3,6.1,4.4c4.7,2.2,9.8,1.4,13.8-1.9c3-2.5,5.9-5.3,9.4-7c2.1-1,3.9-2.2,6.2-2.9c11.7-3.9,22.9-3.1,33.7,2.5
		c2.1,1.1,4.1,2.4,5.8,3.9c2.3,1.9,4.7,4.3,7.4,5.5c3.2,1.4,6.5,1.5,9.8,0.3c4-1.5,6.8-5.4,10.4-7.6c9.9-6.2,20.7-8.1,32.3-5.7
		c1.8,0.4,3.6,1.1,5.4,1.6c0.3,0.1,0.6,0,0.8-0.3l52.2-112.6c0.2-0.4,0.1-0.5-0.3-0.3c-2.4,1.3-4.9,2.6-7.6,4
		c-3.6,1.9-7.2,2.3-10.8,1.3c-2.3-0.7-5.1-2.3-8.4-4.9c-5.3-4.3-10.8-8.5-16.3-12.7c-0.1-0.1-0.3-0.1-0.4,0.1c0,0,0,0,0,0.1
		l-17.3,46c-0.1,0.2,0,0.5,0.2,0.5c0,0,0.1,0,0.1,0l27,3.6c0.1,0,0.2,0.1,0.2,0.3c0,0,0,0,0,0.1l-27,58.2c-0.1,0.2-0.3,0.4-0.6,0.3
		c-0.7,0-1.4,0-2.1-0.1c-16.3-1.2-30.4,3.4-42.2,13.7c-0.3,0.3-0.6,0.3-0.9,0c-2.1-1.7-4.3-3.6-6.6-5.1c-14-9-29.3-11.4-45.9-7.2
		c-0.4,0.1-0.8,0-1.1-0.2c-21.6-14.8-41.7-35.6-46.8-62.1c-2.6-13.2-1.3-25.9,3.9-38.3c3.7-8.9,13.5-11.3,21.6-6.4
		c19.5,11.9,40.7,21.5,63.4,29c0.1,0,0.2,0,0.3-0.1c7.6-20,14.7-39.2,21.5-57.6c2.5-6.8,4.6-11.3,6.3-13.5c7.9-10,20.7-14.2,32.7-10
		c7,2.4,12.1,6.6,15.3,12.3c0.7,1.2,1.5,2.2,2.4,2.9c8.4,6.5,17,13.2,25.6,19.9c0.1,0.1,0.3,0.1,0.5,0l33.1-17.5
		c0.3-0.1,0.4-0.3,0.6-0.6c8.1-17.4,16.2-34.8,24.3-52.4c0.9-1.9,1.9-3.4,3.1-4.2c2.8-2.1,6.9-1.7,9.3,0.8c2.9,3,2.3,6.4,0.6,9.9
		c-7.3,15.6-14.2,30.4-20.7,44.5c-0.1,0.2,0,0.5,0.2,0.6c6,4.1,8.1,9.6,6.5,16.3c-0.9,3.9-3.5,6.9-7.7,9.1c-4.7,2.5-9.4,5-14.3,7.6
		c-0.3,0.1-0.5,0.3-0.6,0.6l-61,131.6c-0.1,0.3-0.1,0.6,0.1,0.8c4,4.1,8.6,5.4,13.8,3.9c4.2-1.2,6.9-5.1,10.6-7.5
		c5-3.2,9.9-5.2,14.7-6.1c14.7-2.7,27.4,0.9,38.2,10.7c3.3,3,7.8,4.2,12.1,2.9c3.8-1,6.6-4.2,9.7-6.6c14.8-11.5,36.9-11.1,51.1,1.1
		c2.1,1.9,4.5,4.1,7.1,5.1c5.1,2,9.6,0.7,13.7-2.9c10.4-9.2,22.4-12.8,35.8-10.7c8,1.3,14.9,4.4,20.5,9.5c2.2,2,4.2,3.4,5.7,4
		c3.5,1.4,6.9,1.3,10.4-0.3c2.6-1.2,4.4-3.7,6.9-4.9C437.2,326.1,447.2,331.9,448.6,342.4z"/>
	<path d="M248.6,312.3c-15-6.4-30.4-6.5-46.1-0.2c-0.5,0.2-0.6,0.1-0.4-0.4l28.1-60.5c0.1-0.2,0.3-0.3,0.5-0.3
		c6.1-0.3,12.1-0.5,17.9-0.7c5.4-0.2,10.9-0.6,16.5-1.2c7.4-0.8,14.9-1.4,22.1-2.6c8.7-1.4,17.9-2.8,26.6-4.9
		c8.1-1.9,16.1-3.6,23.9-6c3.9-1.2,7.8-2.4,11.6-3.6c7.5-2.3,14.8-5.3,22.1-8c6.7-2.6,13.2-5.8,19.7-8.8c8.4-3.9,16.2-8.7,24.3-13.2
		c4.1-2.3,8.2-2.7,12.2-1.4c5.4,1.8,8,6,9.8,11.3c4.9,14.3,5.1,28.6,0.6,42.7c-7.2,23.1-25.7,41.7-45.4,54.8
		c-0.3,0.2-0.5,0.2-0.8,0.1c-16.5-4.1-35.1-1.5-48.6,9c-1.3,1-2.5,2-3.6,3c-0.3,0.3-0.6,0.3-0.9,0c-22.1-19.6-53.2-19.2-75.3,0.1
		c-0.3,0.2-0.5,0.2-0.8,0C258.2,317.4,253.5,314.4,248.6,312.3z"/>
</g>
</svg>
