<?xml version="1.0" encoding="utf-8"?>
<!-- Generator: Adobe Illustrator 28.0.0, SVG Export Plug-In . SVG Version: 6.00 Build 0)  -->
<svg version="1.1" id="Layer_1" xmlns="http://www.w3.org/2000/svg" xmlns:xlink="http://www.w3.org/1999/xlink" x="0px" y="0px"
	 viewBox="0 0 450 450" style="enable-background:new 0 0 450 450;" xml:space="preserve">
<path d="M382.2,124.3H336V21.8c0-9.8-8.3-17.8-18.5-17.8S299,11.9,299,21.8v102.5H151V21.8c0-9.8-8.3-17.8-18.5-17.8
	C122.3,4,114,11.9,114,21.8v102.5H67.8c-5.1,0-9.2,8-9.2,12.9v44.4c0,53.3,92.5,115.1,92.5,200.7V411h37v37h74v-37h37v-28.7
	c0-85.6,92.5-147.4,92.5-200.7v-44.4C391.5,132.3,387.4,124.3,382.2,124.3 M214.9,275.8c0.6-1.9-0.6-3.6-2.7-3.6h-35.9
	c-2.1,0-2.7-1.2-1.4-2.8c0,0,74-94,75.5-95.8c1.1-1.7,2.3-1.1,1.9,0.9c-0.6,2.5-16.4,66.6-16.4,66.6c-0.8,1.9,0.3,3.3,2.4,3.3h36
	c2.1,0,2.8,1.4,1.5,3c0,0-74.2,96.2-75.5,97.8c-1.3,1.6-2.6,1.1-1.9-1.6C199,341,214.9,275.8,214.9,275.8"/>
</svg>
