<?xml version="1.0" encoding="utf-8"?>
<!-- Generator: Adobe Illustrator 28.0.0, SVG Export Plug-In . SVG Version: 6.00 Build 0)  -->
<svg version="1.1" id="Layer_1" xmlns="http://www.w3.org/2000/svg" xmlns:xlink="http://www.w3.org/1999/xlink" x="0px" y="0px"
	 viewBox="0 0 450 450" style="enable-background:new 0 0 450 450;" xml:space="preserve">
<g>
	<g>
		<g>
			<g>
				<path d="M323.2,210.4c2.3,4.8,5.5,8.4,9.5,10.2c1.8,0.9,3.8,1.4,6.1,1.4c1.3,0,2.3-0.2,3.4-0.5c11.4-2.7,16.8-19.1,18.1-36.1
					c0.4-3.2,0.4-6.3,0.4-9.5c0-3-0.2-6.3-0.4-9.5c-1.4-16.8-6.6-33.3-18.1-35.9c-1.1-0.2-2.1-0.5-3.4-0.5c-2.3,0-4.1,0.5-6.1,1.4
					c-3.9,1.8-7.2,5.5-9.5,10.2c-3.4,6.8-5.4,15.7-6.1,24.9c-0.4,3.2-0.4,6.3-0.4,9.5c0,3,0.2,6.3,0.4,9.5
					C318,194.6,319.8,203.6,323.2,210.4z M336.2,166.7c0.5-5.5,1.4-10,2.5-13.1c1.1,3,2,7.5,2.5,13.1c0.4,2.9,0.5,5.9,0.5,9.5
					c0,3.6-0.2,6.6-0.5,9.5c-0.5,5.5-1.6,10-2.5,13.1c-1.1-3-2-7.5-2.5-13.1c-0.4-2.9-0.5-5.9-0.5-9.5S335.9,169.6,336.2,166.7z"/>
				<path d="M56.6,151.7c0,5.9,4.8,10.7,10.7,10.7h163.6c5.9,0,10.7-4.8,10.7-10.7s-4.8-10.7-10.7-10.7H67.3
					C61.4,141,56.6,145.8,56.6,151.7z"/>
				<path d="M44.6,270.1c10.2,11.4,23.6,11.4,23.6,11.4h167c-9.5,16.1-15,34.7-15,54.7c0,59.5,48.5,107.8,108,107.8
					S436,395.6,436,336.1c0-39-20.9-73.1-52-92.1c6.1-15.4,10.4-37.2,10.9-67.9v-9.5h-0.2c-2.3-52.4-24.5-92.6-52.8-95.7v-0.4h-3.4
					h-87.4V34.8c0-0.2,0-0.4,0-0.5c0-0.4,0-0.7-0.2-1.1c0-0.4-0.2-0.7-0.2-0.9c0-0.4-0.2-0.7-0.4-1.1c0-0.4-0.2-0.7-0.4-0.9
					c-0.2-0.4-0.4-0.7-0.5-0.9c-0.2-0.2-0.4-0.5-0.5-0.9c-0.2-0.4-0.5-0.5-0.7-0.9c-0.2-0.4-0.5-0.5-0.7-0.7
					c-0.2-0.2-0.4-0.4-0.4-0.4L224.6,8.3c-0.7-0.5-1.3-0.9-2-1.3c-0.2,0-0.2,0-0.4-0.2c-0.5-0.2-1.3-0.5-1.8-0.7
					c-0.2,0-0.5,0-0.7-0.2c-0.5,0-1.1-0.2-1.6-0.2c-0.2,0-0.2,0-0.4,0H146c-4.8,0-9.1,3.2-10.4,7.9l-15.9,56.9H68.2H68
					c-0.7,0-1.4,0.2-2.1,0.2C38.1,73.4,14,121.3,14,176C14,216.1,26.9,252.4,44.6,270.1z M328.2,422.4c-47.6,0-86.4-38.8-86.4-86.4
					c0-20.7,7.3-39.7,19.7-54.5c4.3-5.4,9.3-10,14.8-14.1c2.1-1.8,4.5-3.4,7-4.8c5.5-3.4,11.4-6.1,17.7-8.2c0.9-0.4,1.6-0.5,2.5-0.9
					c5.5-1.6,11.3-2.9,17.2-3.2c1.1-0.2,2.3-0.2,3.6-0.2c1.4,0,2.9-0.2,4.3-0.2c9.1,0,17.9,1.4,26.1,4.1c3,1.1,6.1,2.1,8.9,3.4
					c3.6,1.6,7.2,3.6,10.5,5.7c24.3,15.4,40.6,42.4,40.6,73.1C414.4,383.8,375.7,422.4,328.2,422.4z M332.6,90.9L332.6,90.9
					c2.1-0.9,4.1-1.4,6.1-1.4c1.1,0,2.3,0.2,3.4,0.5c15.6,3.9,31.8,34,33.8,76.7c0.2,3,0.2,6.3,0.2,9.5s0,6.3-0.2,9.5
					c-0.9,19.7-5,36.7-10.4,49.5c-11.6-4.3-24.1-6.8-37.4-6.8c-4.6,0-9.3,0.4-13.8,0.9c-1.4,0.2-3,0.5-4.5,0.7
					c-4.5-12.2-7.7-27.2-8.4-44.3c-0.2-3-0.2-6.3-0.2-9.5c0-3.2,0-6.3,0.2-9.5c1.6-31.6,10.7-56.1,21.6-68.5
					C326.2,94.9,329.4,92.4,332.6,90.9z M229.6,70.5h-15.6l9.8-35.2l5.7,4.6V70.5L229.6,70.5L229.6,70.5z M139,81.8l15.2-54.4h49.5
					l-13.6,48.5c-1.6,5.7,1.8,11.6,7.5,13.4c1.1,0.2,2,0.4,2.9,0.4c1.1,0,2-0.2,3-0.5v0.4h35.2c0.5,0,1.1,0.2,1.8,0.2s1.3,0,1.8-0.2
					h64c-13.2,17.2-22.2,44.9-23.6,77.1c-0.2,3-0.2,6.3-0.2,9.5c0,2.7,0,5.4,0.2,8.2c-0.4,0-0.9-0.2-1.3-0.2H117.7
					c-5.9,0-10.7,4.8-10.7,10.7c0,5.9,4.8,10.7,10.7,10.7h163.6c1.1,0,2.1-0.2,3.2-0.5c1.6,10.7,3.9,20.6,7.2,29.7
					c-16.3,5.9-30.8,15.6-42.4,27.9h-181l0,0h-0.2l0,0c-1.4,0-2.9-0.5-4.6-1.4c-2.9-1.6-6.1-4.6-9.5-8.8c-0.9-1.1-1.8-2.3-2.5-3.6
					h157.9c5.9,0,10.7-4.8,10.7-10.7c0-5.9-4.8-10.7-10.7-10.7H45.8c-1.6,0-2.9,0.4-4.3,0.9c-5-13.9-8.6-31.5-8.6-52
					c0-52.6,22.9-86.2,35.2-86.5l0,0h0.2l0,0h58.1v-0.2C131.8,90.6,137.4,87.4,139,81.8z"/>
				<path d="M361.8,330.9c-4.1-3-11.1-6.4-21.5-10.2c-0.4-0.2-1.1-1.1-1.1-1.4v-20.4c1.6,0.7,2.7,1.6,3.4,3c0.4,0.7,1.1,2.3,1.4,5
					c0.5,3.8,3.9,6.6,7.7,6.6h12.5c2,0,3.9-0.9,5.2-2.3c1.3-1.4,2-3.2,1.8-5.2c-1.1-11.3-5.9-19.7-14.3-24.9c-0.9-0.7-2.1-1.4-3.2-2
					c-3.9-2.1-8.6-3.6-14.5-4.6v-3c0-3.9-3.2-7.2-7.2-7.2s-7.2,3.2-7.2,7.2l-0.4,3c-3.6,0.4-6.4,1.1-8.6,1.6
					c-3.6,1.1-6.8,2.9-9.8,5.2c-1.3,0.9-2.3,2-3.4,3c-3,3-5.5,6.8-7.2,10.9c-1.8,4.1-2.5,8.9-2.5,13.9c0,7.9,2.3,14.7,6.6,20.2
					c4.3,5.5,11.8,9.8,22,12.9l2.9,0.9c0.2,0,0.5,0.5,0.5,1.1v23.8c-2.3-0.9-3.8-2.1-4.6-3.6c-0.5-0.7-1.3-2.7-2-7.7
					c-0.5-3.8-3.8-6.6-7.7-6.6h-13.1c-2,0-3.9,0.7-5.2,2.3c-1.4,1.4-2,3.2-2,5.2c0.7,13.1,5.4,22.7,14.1,28.4
					c4.8,3.2,11.3,5.2,20.4,7v7.7c0,3.9,3.2,7.2,7.2,7.2l0,0c3.9,0,7.2-3.2,7.2-7.2l0.5-8.2c6.8-0.9,12.7-3,17.9-6.3
					c10.4-6.4,15.6-16.6,15.6-30.4C373.1,345.2,369.3,336.8,361.8,330.9z M324.8,298.7v17c-0.9-0.5-1.6-0.9-2.3-1.4
					c-2.3-1.8-3.4-4.1-3.4-7.2c0-2.9,0.7-5,2.1-6.6C322.3,299.6,323.3,299.1,324.8,298.7z M345.2,358.1c0,4.3-1.1,7.5-3.2,8.9
					c-0.5,0.4-1.3,0.7-2.7,1.3v-19.5c1.6,0.7,2.3,1.4,2.9,1.8C344.3,352.5,345.2,354.9,345.2,358.1z"/>
			</g>
		</g>
	</g>
</g>
</svg>
