<?xml version="1.0" encoding="utf-8"?>
<!-- Generator: Adobe Illustrator 28.0.0, SVG Export Plug-In . SVG Version: 6.00 Build 0)  -->
<svg version="1.1" id="Layer_1" xmlns="http://www.w3.org/2000/svg" xmlns:xlink="http://www.w3.org/1999/xlink" x="0px" y="0px"
	 viewBox="0 0 450 450" style="enable-background:new 0 0 450 450;" xml:space="preserve">
<path d="M436.1,380.6c-2.3-2-5.1-3.5-7.1-5.7c-5.6-6-5.7-12.2-5.4-19.8c0,0,0,0,0,0c0-0.2,0.2-0.4,0.4-0.3c7.4,0.7,14-1.4,16.7-8.8
	c3.2-8.6-3.5-17.9-12.9-17.6c-1.3,0-2.5,0-3.7,0c-0.4,0-0.5-0.2-0.5-0.6c0-104.5,0-208.9,0-313.4c0-8-3.9-12.8-11.7-14.5h-3
	c-3.1,0.5-5.9,2.1-8.5,4.6c-93.6,93.6-187.2,187.2-280.8,280.8c-0.1,0.1-0.4,0.1-0.5,0c-2.6-2.5-5.3-5.2-8.2-8.2
	c-4.5-4.7-10.2-6.6-16.2-3.8c-1.4,0.6-3.7,2.5-6.7,5.6c-25.2,25.2-50.4,50.4-75.6,75.6c-7.3,7.2-11.3,16-12.2,26.4v4.8
	c2.7,34.5,43.7,50.7,68.6,25.9c12.7-12.7,25.5-25.5,38.4-38.4c0,0,0.1-0.1,0.1-0.1c0.2,0,0.3,0.1,0.4,0.2c2.2,8.5,6.2,16,12.2,22.5
	c10.7,11.6,24,17.4,39.8,17.6c29.4,0.3,53.6-24,53.7-53.3c0.1-14.9-5.2-27.8-15.9-38.9c-0.2-0.3-0.2-0.5,0.1-0.6
	c3.2-1.8,6.3-3.8,9.1-6c25-19,40.2-48.2,36.7-79.7c0-0.4,0.1-0.5,0.5-0.5c36.4,4.2,70.2-17,87.2-48.6c8-14.8,11.1-30.6,9.4-47.4
	c0-0.4,0.2-0.6,0.6-0.6c3.5,0.5,6.6,0.6,9.3,0.4c17.8-1.2,33.3-7.8,46.4-19.5c0,0,0.1-0.1,0.2-0.1c0.1,0,0.2,0.1,0.2,0.2V328
	c0,0.3-0.2,0.5-0.5,0.5c-1.5,0-2.9,0-4.3,0c-10.5-0.1-16.5,11.5-11.2,20.1c3.6,5.7,8.9,6.5,15.3,6.2c0.4,0,0.6,0.2,0.6,0.6
	c-0.2,5.1,0,9.5,0.5,12.9c2,13,8.6,23.5,20,31.5c8.5,5.9,7.7,18.6-2.1,22.8c-5.8,2.5-12.5,0.5-16-4.8c-1.6-2.4-1.8-5.3-3.5-7.7
	c-7.7-11.3-24.6-5.5-24.2,7.9c0.1,3,1.7,7.3,3.1,10.1c6.9,13.1,17.9,20.4,33,22h5.1c20-1.8,35-16.9,36.8-36.9v-5
	C449,396.9,444.4,387.8,436.1,380.6z M119.3,323.8l-69.1,69.1c-5.5,5.5-14.3,5.6-19.6,0.3l-0.1-0.1c-5.3-5.3-5.2-14.1,0.3-19.6
	l69.1-69.1c0.2-0.2,0.6-0.2,0.8,0l18.7,18.7C119.5,323.2,119.5,323.5,119.3,323.8z M159.6,387.1c-15.2,0-27.5-12.3-27.5-27.5
	s12.3-27.5,27.5-27.5s27.5,12.3,27.5,27.5S174.8,387.1,159.6,387.1z M211.2,269.7c-7.8,14.7-19.2,25.3-34.1,31.7
	c-11.5,4.9-24.9,5.8-36.7,1.4c-0.5-0.2-0.5-0.5-0.2-0.8l74-74c0,0,0.1,0,0.1-0.1c0.1-0.1,0.3,0,0.3,0.1
	C219.9,241.6,217.9,257.1,211.2,269.7z M237.3,205.7c0,0-0.1,0-0.1-0.1c-0.1-0.1-0.1-0.4,0-0.5l74-74c0.3-0.3,0.5-0.2,0.7,0.1
	C327.5,172.2,278.1,221.4,237.3,205.7z M397,50c-0.7,29.5-12.5,57.3-45.6,61.6c-6,0.8-11.8-0.1-17.4-2.8c-0.3-0.2-0.4-0.4-0.1-0.6
	l62.6-62.6c0.4-0.4,0.5-0.3,0.6,0.2C397.1,47.2,397,48.6,397,50z"/>
</svg>
