<?xml version="1.0" encoding="utf-8"?>
<!-- Generator: Adobe Illustrator 28.0.0, SVG Export Plug-In . SVG Version: 6.00 Build 0)  -->
<svg version="1.1" id="Layer_1" xmlns="http://www.w3.org/2000/svg" xmlns:xlink="http://www.w3.org/1999/xlink" x="0px" y="0px"
	 viewBox="0 0 450 450" style="enable-background:new 0 0 450 450;" xml:space="preserve">
<path d="M146.9,1.8h0.8c3.2,0.2,6,1.1,8.3,2.6c60,39.6,120.1,79.1,180.1,118.7c2.7,1.8,4.6,3.2,5.7,4.4c4.2,4.4,6.1,10.4,4.4,16.3
	c-1.4,4.9-4.3,8.5-8.8,10.8c-1.5,0.8-5,1.7-10.5,2.6c-25.8,4.6-52.1,9.3-79,14.2c-0.2,0-0.3,0.2-0.3,0.4c0,0,0,0,0,0
	c10.7,42.4,21.3,84.7,31.9,127c0.8,3.1,1.3,5.5,1.5,7.2c0.3,2.8,0.4,5.2,0.1,7.4c-4.8,38.2-9.6,76.4-14.4,114.6
	c-0.4,3.6-1,6.1-1.7,7.7c-2.5,5.8-6.8,9.6-12.8,11.5c-1.5,0.5-2.9,0.5-4.3,0.8h-2.8c-7.8-0.9-13.3-4.7-16.6-11.4
	c-0.9-1.8-1.5-3.9-1.8-6.2c-0.2-1.6-0.1-3.4,0.1-5.3c4.9-38.4,9.7-76.5,14.4-114.5c0.1-0.4,0-0.8-0.1-1.2l-4.8-19.1
	c0-0.1-0.1-0.1-0.1-0.1c0,0-0.1,0-0.1,0c-31.4,47.4-62.8,94.8-94.3,142.1c-1.7,2.6-3.4,5.4-5.6,7.4c-4.4,3.9-9.5,5.6-15.4,5.1
	c-6.9-0.6-13.5-5.2-16.3-11.6c-2-4.7-2.3-9.3-0.7-13.9c0.6-1.9,1.9-4.2,3.8-7.1c29.9-44.8,59.8-89.6,89.7-134.5c0,0,0-0.1,0-0.2
	c-9.4-36.5-18.9-73-28.3-109.6c-0.5-2-0.5-4.2-0.1-6.6c0.4-2.2,1.3-4.3,2.6-6.1c2.8-4,6.7-6.5,11.8-7.4
	c43.2-7.8,86.3-15.6,129.5-23.4c0.4-0.1,0.4-0.2,0.1-0.4L149.7,16.1c-0.1-0.1-0.2,0-0.3,0.1c0,0,0,0,0,0c-1.9,4.4-3.8,9.2-5.8,14.4
	c-0.8,2-1.7,3.6-2.7,4.8c-1.3,1.6-3,2.7-5,3.4c-3,1.1-5.9,0.6-8.6-1.6c-4.5-3.6-5.8-9.8-2.5-14.8c3.4-5.2,6.5-9.8,9.3-13.6
	C137.2,4.5,141.4,2.2,146.9,1.8z"/>
<ellipse transform="matrix(1 -3.490651e-03 3.490651e-03 1 -0.3636 0.6194)" cx="177.3" cy="104.5" rx="33.4" ry="33"/>
</svg>
