<?xml version="1.0" encoding="utf-8"?>
<!-- Generator: Adobe Illustrator 28.0.0, SVG Export Plug-In . SVG Version: 6.00 Build 0)  -->
<svg version="1.1" id="Layer_1" xmlns="http://www.w3.org/2000/svg" xmlns:xlink="http://www.w3.org/1999/xlink" x="0px" y="0px"
	 viewBox="0 0 450 450" style="enable-background:new 0 0 450 450;" xml:space="preserve">
<ellipse transform="matrix(1.745241e-02 -0.9998 0.9998 1.745241e-02 190.3676 284.985)" cx="240.2" cy="45.6" rx="43.5" ry="42.9"/>
<path d="M98.5,95.5c5.9-9.5,11.3-17.6,16.1-24.3c5.2-7.3,13.8-6.5,20.3-1.7c9.3,7,18.1,13.6,26.4,19.7c8.9,6.5,10.6,16.6,7.7,26.6
	c-12.3,42.1-23.7,82.1-34.3,119.8c-1.2,4.4-3,8-5.4,10.6c-9.3,10.3-32.6,9.4-33.4-8.6c-1.7-40.8-3.2-79.6-4.6-116.2
	C91,112.7,94,102.8,98.5,95.5z"/>
<path d="M238.8,172.8l-20,77.2c-0.2,1,0,1.8,0.7,2.5c19.5,19.5,39.3,39.2,59.3,59.1c5.1,5,7.6,11.3,7.6,18.8c0,32.4,0,63.9-0.1,94.6
	c-0.1,31.5-47.8,32.2-47.8-1.5c0-27.2,0-54.5,0-81.8c0-0.8-0.4-1.5-1-2c-24.4-19.5-49.4-39.5-75-59.9c-11.1-8.8-12.3-18.6-11.9-32.2
	c0.1-4.6,0.8-9.1,2-13.7c9.1-35.1,18-69.1,26.5-102c1.4-5.3,4.1-10.8,8.1-16.7c10.5-15.3,25.8-17.4,41.2-7.7
	c42.8,26.7,87.2,54.3,133.5,83c13.8,8.6,13.1,26.4-2,32.7c-0.8,0.3-1.2,0.9-1.2,1.8c-4.1,69.3-8.4,140.3-12.7,212.9
	c-0.4,6.7-4,10.4-10.7,10.9c-0.2,0-0.3,0-0.5,0c-6.6-1.6-9.6-5.7-9.2-12.3c4-66.7,8.3-138.9,13-216.7c0-0.6-0.3-1.1-0.8-1.3l-98-46
	c-0.3-0.2-0.7,0-0.9,0.3C238.8,172.7,238.8,172.7,238.8,172.8z"/>
<path d="M174.5,338.5c-15.1,32.9-30.8,65.6-46.2,98c-2.5,5.2-7.2,8.9-14.3,10.9c-9.4,2.7-17.4,0.3-24.2-7.2c-7.3-8-7.2-17.9-3-27.6
	c14.2-32.9,28.2-65.8,42.2-98.7c11.2-26.4,49.2-21.1,50.3,7.6C179.5,325.5,177.9,331.2,174.5,338.5z"/>
</svg>
