<?xml version="1.0" encoding="utf-8"?>
<!-- Generator: Adobe Illustrator 28.0.0, SVG Export Plug-In . SVG Version: 6.00 Build 0)  -->
<svg version="1.1" id="Layer_1" xmlns="http://www.w3.org/2000/svg" xmlns:xlink="http://www.w3.org/1999/xlink" x="0px" y="0px"
	 viewBox="0 0 450 450" style="enable-background:new 0 0 450 450;" xml:space="preserve">
<style type="text/css">
	.st0{fill:#231F20;}
</style>
<path class="st0" d="M0.2,0h79.6C79.9,0,80,0.1,80,0.2v64.5c0,0.1-0.1,0.2-0.2,0.2H0.2c-0.1,0-0.2-0.1-0.2-0.2V0.2
	C0,0.1,0.1,0,0.2,0z"/>
<path class="st0" d="M117.6,98.7V0.4c0-0.2,0.1-0.4,0.4-0.4l11,0c0.2,0,0.4,0.1,0.4,0.4v98.1c0,0.2,0.1,0.3,0.2,0.4
	c15.7,6.3,15.6,27.4,0,33.8c-0.2,0.1-0.3,0.2-0.3,0.4c0,35.4,0,70.8,0,106.2c0,4.8-0.2,8.3-0.6,10.6c-2.9,18-18.6,31.5-37.1,31.4
	c-10.4-0.1-20.1-4.4-27.1-12c-5.8-6.3-9.1-13.9-9.9-22.9c-0.6-6.8,0.5-13.2,3.1-19.4c4.9-11.3,9.8-22.6,14.7-33.9
	c0.2-0.4,0.3-0.4,0.3,0l5.6,49.4c0,0.3-0.1,0.4-0.3,0.2l-9.4-8.6c-0.2-0.2-0.4-0.2-0.5,0.1c-2.3,6.5-2.4,12.6-0.2,18.5
	c3,7.8,8.4,13.1,16.3,15.6c14,4.6,29-3.8,32.7-18.2c0.5-2.1,0.8-5.2,0.8-9.3c0-35.9,0-71.8,0-107.7c0-0.1-0.1-0.2-0.1-0.2
	c-15.7-6.4-16.3-27.6-0.2-33.9C117.5,99.1,117.6,98.9,117.6,98.7z"/>
<path class="st0" d="M165.8,0h284.1c0.1,0,0.2,0.1,0.2,0.2v63.7c0,0.1-0.1,0.2-0.2,0.2H165.8c-0.1,0-0.2-0.1-0.2-0.2V0.2
	C165.6,0.1,165.7,0,165.8,0z"/>
<path class="st0" d="M164.6,293.6c-1.4-0.7-2.8-1.4-4.4-2.1c-2.4-1.2-3.3-4.6-1.8-6.9c0.4-0.7,1-1.3,1.6-1.8
	c5.3-4.2,10.4-7.9,15.3-11.1c20.7-13.5,43.2-24.5,66.3-33.4c32.1-12.4,65.6-21.1,99.4-26.6c35.6-5.8,71.9-8.4,108.7-7.9
	c0.2,0,0.3,0.1,0.3,0.3v229.5c0,0.1-0.1,0.1-0.1,0.1h0c-37.1,0.7-73.6-1.6-109.5-7.1c-3.4-0.5-7-1.1-10.7-1.8
	c-46.8-8.2-91.5-22.6-132.5-45c-17.7-9.7-34.3-20.8-50-33.3c-0.3-0.2-0.5-0.6-0.7-1.1c-0.6-1.9,0.9-3.7,2.8-3.7
	c28.1,0,55.9,0,83.3,0.1c4.5,0,8-3.1,7.9-7.7c-0.1-3.6-2.2-5.4-5.4-6.9C211.2,315.8,187.6,304.6,164.6,293.6z M290,286.3
	c0-9.9-8-17.9-17.9-17.9c-9.9,0-17.9,8-17.9,17.9s8,17.9,17.9,17.9C282,304.3,290,296.2,290,286.3z"/>
</svg>
