<?xml version="1.0" encoding="utf-8"?>
<!-- Generator: Adobe Illustrator 28.0.0, SVG Export Plug-In . SVG Version: 6.00 Build 0)  -->
<svg version="1.1" id="Capa_1" xmlns="http://www.w3.org/2000/svg" xmlns:xlink="http://www.w3.org/1999/xlink" x="0px" y="0px"
	 viewBox="0 0 450 450" style="enable-background:new 0 0 450 450;" xml:space="preserve">
<g id="XMLID_136_">
	<path id="XMLID_137_" d="M245.7,380.2c0,13.4,10.9,24.3,24.3,24.3s24.3-10.9,24.3-24.3c0-8.8-9-19.1-16.1-29.5
		c-3.9-5.7-12.3-5.7-16.2,0C254.8,361.1,245.7,371.5,245.7,380.2z"/>
	<path id="XMLID_138_" d="M312.8,323.5c0,13.4,10.9,24.3,24.3,24.3s24.3-10.9,24.3-24.3c0-8.8-9-19.1-16.1-29.5
		c-3.9-5.7-12.3-5.7-16.2,0C321.9,304.4,312.8,314.8,312.8,323.5z"/>
	<path id="XMLID_139_" d="M178.6,323.5c0,13.4,10.9,24.3,24.3,24.3s24.3-10.9,24.3-24.3c0-8.8-9-19.1-16.1-29.5
		c-3.9-5.7-12.3-5.7-16.2,0C187.8,304.4,178.6,314.8,178.6,323.5z"/>
	<path id="XMLID_140_" d="M244.6,107.4c-50.5,9.1-88.7,44.8-91.2,88.1c-0.1,1.1,0.3,2.3,1.1,3.1c0.8,0.8,1.9,1.3,3,1.3h224.9
		c1.1,0,2.2-0.5,3-1.3c0.8-0.8,1.2-2,1.1-3.1c-2.5-44.5-42.8-81-95.5-88.8C282,48.2,231.5,3.3,170.5,3.3
		C103,3.3,48.2,58.2,48.2,125.7v298.2c0,12.6,10.2,22.8,22.8,22.8c12.6,0,22.8-10.2,22.8-22.8V125.7c0-42.3,34.4-76.7,76.7-76.7
		C206.2,48.9,236.1,73.6,244.6,107.4z"/>
	<path id="XMLID_141_" d="M386.6,221.5H153.4c-8.4,0-15.2,6.8-15.2,15.2c0,8.4,6.8,15.2,15.2,15.2h233.2c8.4,0,15.2-6.8,15.2-15.2
		C401.8,228.3,395,221.5,386.6,221.5z"/>
</g>
</svg>
