<?xml version="1.0" encoding="utf-8"?>
<!-- Generator: Adobe Illustrator 28.0.0, SVG Export Plug-In . SVG Version: 6.00 Build 0)  -->
<svg version="1.1" id="Layer_1" xmlns="http://www.w3.org/2000/svg" xmlns:xlink="http://www.w3.org/1999/xlink" x="0px" y="0px"
	 viewBox="0 0 450 450" style="enable-background:new 0 0 450 450;" xml:space="preserve">
<circle cx="362.8" cy="49" r="41.7"/>
<path d="M450,109.9v2.4c-0.5,4.5-1.8,7.8-4,10c-17.8,17.9-35.5,35.8-53.3,53.7c-6.7,6.8-15.4,10.6-24.7,6.2c-2.1-1-4.8-3.3-8.4-6.8
	c-9.6-9.8-19.3-19.6-29.2-29.4c-0.1-0.1-0.3-0.1-0.4,0c0,0,0,0,0,0l-50.9,58.8c-0.1,0.2-0.1,0.4,0,0.6
	c14.2,14.2,29.4,29.3,45.6,45.6c6.5,6.5,8.3,15.6,6.3,24.5c-8.9,39.4-17.8,79.1-26.7,119c-1,4.4-2.2,7.8-3.6,9.9
	c-7.8,12.3-24.9,14.4-35.1,3.7c-3.7-3.9-5.8-8.5-6.2-13.9c-0.2-2.5,0.4-6.6,1.7-12.4c6.9-30.4,13.7-60.7,20.4-90.7
	c0.1-0.3,0-0.7-0.3-0.9L228.7,239c-0.1-0.1-0.3-0.1-0.5,0c0,0,0,0,0,0c-28.9,32.2-43.5,48.5-43.8,48.8c-1.9,2.2-3.7,3.9-5.5,5.1
	c-6.9,4.5-14.7,5.6-23.4,5.6c-28.5,0-57.4,0-86.6,0.2c-7,0-11.8-0.4-14.4-1.3c-7.6-2.8-12.5-8.1-14.5-15.9c-2-7.5,0.4-16,6.1-21.3
	c4.5-4.1,9.9-6.2,16.4-6.2c26.4,0.1,52.9,0.2,79.6,0.2c0.2,0,0.4-0.1,0.5-0.2l118.1-137c0.1-0.1,0.1-0.2,0-0.3c0,0-0.1-0.1-0.1-0.1
	l-30.1-0.1c-0.3,0-0.7,0.1-0.9,0.4c-17.6,20.4-35.4,40.9-53.3,61.6c-6.1,7-16,8.6-23.6,3.3c-6.3-4.4-9.1-12.9-6.4-20
	c0.8-2,2.3-4.3,4.5-6.9c20.4-23.4,39.7-45.7,58-66.9c2.5-2.8,5.4-4.8,8.7-5.8c2.1-0.6,5.3-0.9,9.9-0.9c25.1,0.1,51.3,0.1,78.7,0
	c8.2,0,13.6,3.6,19.6,9.6c16.2,16.3,32.9,33,50,50c0.2,0.2,0.5,0.2,0.7,0c12.8-12.7,26.9-26.9,42.5-42.4
	C430.3,87.4,448.4,94,450,109.9z"/>
<path d="M0,252.6v-1.5c0.7-3.8,2.5-6.2,5.5-7.3c3.5-1.2,6.3-0.8,8.7,1.4c1.3,1.2,2.6,3.3,3.8,6.4c6.6,17,13.4,34.2,20.2,51.5
	c3.2,8.1,7.7,15.3,14.9,20.2c1.2,0.8,2.2,1.1,3.6,0.6c5.2-2.1,10.3-4.1,15-5.9c7.3-2.8,14.2,4.1,11.2,11.4c-1.2,2.8-3.6,4.2-6.4,5.3
	c-4.6,1.8-9.4,3.7-14.4,5.5c-4.9,1.8-9.7,1.7-14.4-0.4c-4-1.8-7.4-4-10.1-6.6c-6.7-6.5-11.9-14.2-15.5-23.2
	C14.5,290.9,7.1,271.7,0,252.6z"/>
<path d="M330.5,437.2c-8.3,3.9-17.9,5.5-27.1,5.6c-18.2,0-37.5,0.1-57.6,0c-3.9,0-7.3-1.5-8.9-5.1c-2.1-4.7,0.2-10,5.1-11.6
	c1.3-0.4,2.9-0.6,4.8-0.6c21.2,0.1,39.8,0.1,55.8,0c8.8,0,17.3-1.4,24.6-6.3c1-0.7,2-1.6,2-3c0-5,0-9.9-0.1-14.6
	c0-2.4,0.3-4.3,0.9-5.7c1.9-4.2,6.7-6.1,10.9-4.4c4.7,1.9,5.6,5.8,5.6,10.6c0,5,0,9.6-0.1,13.8c0,2.8-0.6,5.5-1.6,7.9
	C342.2,429.9,336.5,434.4,330.5,437.2z"/>
</svg>
