<?xml version="1.0" encoding="utf-8"?>
<!-- Generator: Adobe Illustrator 28.0.0, SVG Export Plug-In . SVG Version: 6.00 Build 0)  -->
<svg version="1.1" id="Layer_1" xmlns="http://www.w3.org/2000/svg" xmlns:xlink="http://www.w3.org/1999/xlink" x="0px" y="0px"
	 viewBox="0 0 450 450" style="enable-background:new 0 0 450 450;" xml:space="preserve">
<style type="text/css">
	.st0{fill:#231F20;}
</style>
<g>
	<circle class="st0" cx="311.5" cy="36.6" r="36.2"/>
	<path class="st0" d="M237.8,113.1l-42.5,24.4c-0.8,0.4-1.4,1-1.8,1.8c-7.6,14.6-15.7,30.7-24.4,48.2c-2.4,4.8-4.8,8.2-7.2,10.1
		c-12.7,10.5-32.4-5.3-24.6-21.4c12.5-25.6,22.3-45.1,29.2-58.5c3.1-5.9,8-10.2,14.1-13.5c20.8-11.2,41.6-22.6,62.4-34.1
		c8.3-4.6,17.2-5.2,26.8-1.7c14.1,5.1,28.5,10.6,42.9,16.3c8.9,3.6,13.5,9.1,16.3,18.4c7,23.6,14.3,46.8,21.7,69.6
		c0.1,0.4,0.4,0.6,0.8,0.8c13.9,5,27.7,9.8,41.3,14.5c6.2,2.1,10.4,4.3,12.4,6.4c11.6,12.4-1.6,32.3-17.8,26.2
		c-18.9-7.1-37.3-14.1-55.1-20.9c-5.5-2.1-9.3-6-11.3-11.6c-4.5-12.9-8.7-25-12.5-36.4c-0.4-1.3-0.9-1.3-1.3,0l-18.9,52.1
		c-0.3,0.7-0.1,1.4,0.4,1.9c18.4,19.3,36.7,38.3,54.8,57c7,7.3,10.3,17.6,10.3,27.5c0,27.8,0,55.3,0,82.6c0,0.8,0.4,1.2,1.2,1.3
		c23,1.6,40,20.8,36.3,43.9c-2.7,16.8-16.9,31-34.1,31.9c-5,0.3-10.5-0.3-16.4-1.6c-39.4-8.9-79-17.8-119-26.5
		c-0.9-0.2-1.4-0.8-1.4-1.8l0-15.7c0-0.9,0.4-1.4,1.3-1.6l90.9-20.2c0.8-0.2,1.2-0.7,1.2-1.5l0-75.1c0-0.8-0.3-1.4-0.8-2l-61.6-61.5
		c-0.2-0.1-0.4-0.1-0.5,0c-0.1,0.1-0.1,0.1-0.1,0.2c-3.1,21.6-6.3,43.2-9.6,64.9c-0.9,5.7-3.8,11.5-8.7,17.4
		c-14.9,17.7-29.9,35.1-45,52.3c-0.5,0.6-0.5,1.2,0.1,1.8c18.8,16.7,18.5,44.9-2.1,59.8c-14.7,10.7-29.5,8.2-45.9,0.2
		c-36.8-18.1-72.5-35.5-107.1-52.2c-0.7-0.3-1-0.9-0.8-1.6l3.7-15.6c0.2-0.8,0.7-1.2,1.6-1.2l102.9,1.5c0.7,0,1.4-0.3,1.9-0.8
		l48.5-56c0.5-0.6,0.9-1.4,1-2.2c4.6-33.8,9.3-68.4,14-103.6c0.8-6,2.3-11.8,4.4-17.5c9.9-26,19.5-51.4,28.8-76
		C239,112.8,238.7,112.6,237.8,113.1z M70.6,386.5c26.6,13,54,25.4,80.7,39c8.7,4.4,17,5.3,24.8-0.7c11-8.4,11.1-23.8,0.7-32.8
		c-0.7-0.6-1.3-0.5-1.9,0.1c-5.6,6.4-10,13.5-19,15.4c-12.6,2.7-23.2-6.8-23.4-19.4c0-0.9-0.5-1.4-1.4-1.4l-60.3-1.1
		C69.5,385.7,69.4,385.9,70.6,386.5z M353.8,392.6c2.3,24.7-31.1,32.4-39,7.8c-0.2-0.6-0.8-1-1.4-0.8l-54.7,12.1
		c-1.5,0.3-1.5,0.7,0,1c25.1,5.5,53.7,11.8,86,19c10.5,2.3,19.3,1.9,25.9-7.2c10-13.7,1.2-31.2-15.5-33.2c-0.7-0.1-1.3,0.4-1.4,1.1
		C353.8,392.5,353.8,392.6,353.8,392.6z"/>
</g>
</svg>
