<?xml version="1.0" encoding="utf-8"?>
<!-- Generator: Adobe Illustrator 28.0.0, SVG Export Plug-In . SVG Version: 6.00 Build 0)  -->
<svg version="1.1" id="Layer_1" xmlns="http://www.w3.org/2000/svg" xmlns:xlink="http://www.w3.org/1999/xlink" x="0px" y="0px"
	 viewBox="0 0 450 450" style="enable-background:new 0 0 450 450;" xml:space="preserve">
<path d="M339.1,189.6c-29.3-7.1-49.8-35-46.1-65.2c0.9-6.9,2.4-13.8,5.2-20.1c7.6-16.6,21.8-27.7,39.3-32.1
	c44.8-11.4,85.1,26,75.5,71.8c-2.9,14-11.6,28.4-24.1,36.2C373.7,189.9,356.8,193.8,339.1,189.6z"/>
<path d="M206.7,179.9l-39.8-40.1c-0.4-0.4-0.9-0.5-1.4-0.3c-28.9,10.8-57.7,21.8-86.6,32.9c-4.9,1.9-9.7,2.3-14.4,1.2
	c-7-1.6-12.7-5.5-16.5-11.7c-8-13.2-0.8-29.5,13-34.9c8.1-3.1,16.3-6.2,24.5-9.2c13.3-4.8,29.3-11.3,39.4-15
	c10.9-4,21.8-8.1,32.6-12.2c7-2.7,11.9-4.1,14.7-4.4c6.1-0.6,11.8,0.9,17.2,4.4c3.4,2.2,6.7,6,9.9,9.1
	c46.2,45.8,92,92.1,137.6,138.5c4.8,4.8,10,10.6,13.3,16.6c0.2,0.3,0.2,0.6,0.2,0.9c-0.1,0.3-0.3,0.4-0.6,0.4c0,0,0,0-0.1,0
	c-11.8-4.2-26.1-4.4-37.3,1.4c-4.7,2.4-11.6,6.9-17.1,8.7c-8.6,2.8-17.4,2.5-25.7-1.6c-4.2-2.1-8.3-4.2-12.5-6.3
	c-13.3-6.8-26.7-7-40.3-0.7c-1.7,0.8-5.5,2.8-11.5,6c-10.2,5.5-22.1,5.9-32.3,0.1c-14.2-8-27-14.1-42.8-8.6c-1.7,0.6-2,0.2-0.7-1.1
	c2.1-2.3,4.5-4.8,7.3-7.3c20.4-19.3,40.6-38.6,60.7-58.2c2.9-2.8,6-5.5,9.2-8.1C206.8,180.3,206.9,180,206.7,179.9
	C206.7,179.9,206.7,179.9,206.7,179.9z"/>
<path d="M347.9,310c-8.2-4.7-19.4-5.2-27.8-1c-5.1,2.5-10,5.3-14.9,8.2c-6.4,3.9-12.2,6.2-19.6,6.5c-13.3,0.5-22.7-7-33.5-13.2
	c-10.3-5.9-20.6-5.9-30.9,0c-7,4-15.2,9.4-22,11.5c-9.6,3-19.1,2-28.5-3.1c-11.6-6.3-23.7-16-37.8-11.6c-11,3.4-19.6,12.1-30.8,15.1
	c-9.6,2.5-18.9,1.4-27.9-3.4c-8.7-4.6-17.8-11.8-27.8-12.7c-8.4-0.7-14.5,2.3-22.2,6.1c-3.8,1.9-6.6,2.9-8.4,3.1
	c-5.7,0.7-12.4-2.4-14.6-8.2c-4.2-11.2,2.4-17.4,11.8-21.3c4.4-1.8,8.8-3.9,13-6.1c7.7-4,18.6-4.9,27.2-2.6
	c9.8,2.6,17.9,9.9,27.4,13.4c15.2,5.6,25.1-1.1,37.7-8.1c4.6-2.6,8.2-4.2,10.8-4.9c9.2-2.6,20.1-2,28.2,2.8
	c11.5,6.8,21.6,13.8,34.4,12.2c12.2-1.5,21.6-11.2,33.2-14.9c9.4-3,18.6-2.4,27.7,2c1.9,0.9,6.1,3.3,12.8,7.3
	c10.3,6.1,21.9,7.9,32.8,2c4.3-2.3,8.6-4.7,12.9-6.9c13.7-7.3,27.3-8.5,41.2-0.7c3.8,2.1,7.6,4.2,11.4,6.2c11.5,6.1,21.3,7,33.2,1
	c10.6-5.4,20.4-10.1,29.4-14.2c4-1.8,8-2.1,11.9-0.9c8.7,2.8,14.8,13.1,9.7,21.8c-3.3,5.5-10.1,7.2-15.9,9.3
	c-10.3,3.7-20.3,8.4-30,13.5c-4,2.1-7.2,3.5-9.6,4.2C375,327.3,363.3,318.8,347.9,310z"/>
<path d="M239.4,362.6c-8.5-1-15.9,2.4-22.8,6.9c-8.6,5.6-16.5,10.2-26.9,10.5c-14.6,0.4-25.3-8.7-37.3-14.7
	c-7.5-3.7-15.4-3.7-23.7,0c-6.7,3-15.5,9.2-21.9,11.8c-9.1,3.7-18.2,3.9-27.5,0.6c-14.6-5.2-25-18.5-42-14.1
	c-5.5,1.4-12.5,5.9-17.4,7.8c-4,1.6-7.9,1.3-11.9-0.8c-5.7-3.1-8.3-7.9-7.7-14.6c0.6-6.7,5.9-10.3,11.6-12.9
	c7-3.2,15.3-7.6,21.8-9.3c8.8-2.3,17.4-1.5,25.6,2.3c8.7,4,17,10.6,26.4,12.8c7.2,1.7,14.6,0,21-3.4c9.1-4.8,15.2-8,18.1-9.5
	c10.7-5.5,24-4.2,34.1,1.7c7.5,4.4,15.4,9.6,24.1,11.3c17.5,3.3,29-11.4,44.5-15.3c6.5-1.6,13-1.5,19.4,0.4
	c2.5,0.7,5.9,2.3,10.1,4.7c10.9,6.2,21.7,13.6,35.4,9.5c2.4-0.7,5.3-2,8.9-4c4.8-2.6,9.6-5.2,14.5-7.6c9.4-4.8,20.2-5.4,30-1.9
	c2,0.7,5.1,2.2,9.2,4.5c10.4,5.8,20.5,12.6,33.1,9.4c2.9-0.8,6.4-2.1,10.5-4c6.8-3.2,13.6-6.5,20.3-9.8c5.6-2.8,9.6-4.4,11.9-4.9
	c3-0.6,6.4-0.1,10.3,1.7c6.6,3,10.8,10.5,8.3,17.6c-2.9,8.1-10.6,9.5-17.8,12.4c-10.2,4.1-19.6,8.6-31.5,14.3
	c-9.1,4.4-19.2,5.2-29,2.3c-8-2.4-14.8-7.2-22.1-11c-4.3-2.3-7.8-3.7-10.6-4.2c-16.9-3.3-27.9,10.4-42.5,15.2
	c-6.7,2.2-13.6,2.4-20.6,0.6C262.2,375.3,252.2,364.1,239.4,362.6z"/>
</svg>
