<?xml version="1.0" encoding="utf-8"?>
<!-- Generator: Adobe Illustrator 28.0.0, SVG Export Plug-In . SVG Version: 6.00 Build 0)  -->
<svg version="1.1" id="Layer_1" xmlns="http://www.w3.org/2000/svg" xmlns:xlink="http://www.w3.org/1999/xlink" x="0px" y="0px"
	 viewBox="0 0 450 450" style="enable-background:new 0 0 450 450;" xml:space="preserve">
<circle cx="257" cy="63.3" r="61.3"/>
<path d="M0,381.6v-1c0.1-5.3,1.7-9.9,4.7-13.9c26.2-34.7,52.3-69.4,78.5-104c0.2-0.2,0.2-0.4,0-0.6c-7.6-8.4-10.8-19-8.4-30.1
	c1.3-6.2,4.1-11.9,8.3-17c1.4-1.6,2.6-3.2,3.8-4.7c12.9-16.6,25.9-32.8,39.1-48.6c8.7-10.5,16.2-19.3,22.5-26.3
	c5.2-5.9,12.2-11.2,19.7-14.2c23.2-9.5,48.8,1.7,68.6,14.6c7.9,5.2,15.5,10.8,22.8,16.9c31.3,26.2,62.5,52.3,93.7,78.4
	c2.7,2.3,4.8,5.1,6.4,8.6c5.5,11.9-0.4,26.3-12.6,31c-5.8,2.2-11.7,2.2-17.5-0.1c-1.8-0.7-4.9-2.6-9.1-5.6
	c-32.8-23.3-65.5-46.5-98.3-69.7c-0.2-0.1-0.5-0.1-0.7,0.1l-50.7,61.9c-0.1,0.1-0.1,0.3,0,0.5c15.5,18.9,31.6,38.5,48.4,58.9
	c2.7,3.2,4.5,5.9,5.4,7.9c3.5,7.5,3.7,15,0.9,22.4c-1.3,3.4-3.3,6.5-5.9,9.3c-27.9,30.1-54.1,58.3-78.6,84.6
	c-5.5,5.9-13.7,8.6-21.8,6.7c-13.3-3.1-20.7-17.3-15.7-30c0.7-1.7,1.8-3.7,3.4-6c17.2-24.8,33.8-48.7,49.7-71.6
	c0.1-0.1,0.1-0.3,0-0.4l-28.4-30c-0.1-0.1-0.2-0.1-0.2,0l0,0c-30,28.6-59.7,57.5-89.5,86.4c-1.4,1.4-3.1,2.6-4.9,3.7
	c-7.5,4.4-16.7,3.9-23.6-0.7C4.1,395,0.7,389.2,0,381.6z"/>
<path d="M450,188.2v4.3c-1.5,24.9-19.2,44.7-43.7,48.5c-11.4,1.8-23.3-0.5-33.3-6.4c-10.3-6-17.7-14.6-22-25.8
	c-1.4-3.6-2.4-7.2-2.9-10.8c-3.9-25.8,12.2-50.2,37.2-57.1c3.8-1,7.5-1.6,11.1-1.7c12-0.4,22.8,2.8,32.3,9.7
	C441.6,158,449,172.3,450,188.2z M389.2,165.2c7.3-5.1,15.5-8.2,24.5-9.6c0.6-0.1,0.6-0.3,0.1-0.5c-11-4.7-23.4-3.9-33.8,2
	c-0.1,0.1-0.2,0.2-0.2,0.3c0.6,4.5,1.6,8.8,2.9,13c0,0.1,0.1,0.1,0.2,0.1c0,0,0,0,0.1,0C384.8,168.6,386.9,166.8,389.2,165.2z
	 M370.2,165c-3,3.4-5.2,7-6.9,11c-0.1,0.2-0.1,0.3,0,0.5c4.7,12.1,12.6,24,24.1,29.8c2.8,1.4,6.2,2.4,10.3,3.1
	c0.2,0,0.3-0.1,0.3-0.3c-0.5-3.6-1.4-7-2.8-10.4c-0.1-0.2-0.3-0.4-0.5-0.4c-7.8-1.9-13.5-7.4-17.5-14.4c-3.1-5.5-5.3-11.8-6.7-18.8
	C370.5,165,370.4,164.9,370.2,165C370.3,164.9,370.2,164.9,370.2,165z M414.7,176.3c5.7-2,11.5-3.1,17.6-3.4c0.3,0,0.3-0.1,0.2-0.4
	c-1.5-2.7-3.1-5.1-5-7.2c-0.1-0.2-0.4-0.3-0.6-0.3c-15-0.5-29.8,3.9-39.4,15.4c-0.1,0.1-0.1,0.3,0,0.5c2.2,3.3,5.1,5.7,8.7,7
	c0.2,0.1,0.4,0,0.5-0.1c3.3-3.5,7.1-6.4,11.5-8.7C410.4,178.2,412.5,177.1,414.7,176.3z M431,210.9c5.2-8.3,7-17.5,5.3-27.5
	c0-0.1-0.2-0.3-0.3-0.3c-3.6,0-7.3,0.4-11.2,1.1c-0.1,0-0.2,0.1-0.2,0.2c0,0,0,0,0,0.1c4.1,8.2,6,17.1,5.7,26.6
	c0,0.4,0.1,0.5,0.4,0.2C430.8,211.1,430.9,211,431,210.9z M416.5,191.2c-0.5-1.1-1-2.2-1.7-3.3c-0.1-0.2-0.4-0.3-0.6-0.2
	c-3.6,1.7-6.7,3.9-9.3,6.6c-0.2,0.2-0.2,0.4-0.1,0.7c4.3,10.7,5.2,21.4,2.9,32.2c-0.1,0.2,0,0.3,0.3,0.3c3.5-0.9,6.9-2.3,10.1-4.2
	c0.2-0.1,0.3-0.2,0.3-0.4C421,212.1,420.7,201,416.5,191.2z M361.1,194.8c0-0.1-0.1-0.1-0.1-0.1c-0.2-0.1-0.3-0.1-0.3,0.2
	c1.9,12.8,8.4,22.4,19.3,28.8c4.7,2.7,10.1,4.3,16.4,4.8c0.2,0,0.4-0.1,0.4-0.3c0.8-2.8,1.4-5.5,1.6-8.1c0-0.3-0.1-0.4-0.4-0.4
	C382.1,218.4,369.5,208.4,361.1,194.8z"/>
</svg>
