<?xml version="1.0" encoding="utf-8"?>
<!-- Generator: Adobe Illustrator 28.0.0, SVG Export Plug-In . SVG Version: 6.00 Build 0)  -->
<svg version="1.1" id="Layer_1" xmlns="http://www.w3.org/2000/svg" xmlns:xlink="http://www.w3.org/1999/xlink" x="0px" y="0px"
	 viewBox="0 0 450 450" style="enable-background:new 0 0 450 450;" xml:space="preserve">
<g>
	<path d="M279.5,14.7L291.2,28c0.4,0.5,1,0.8,1.7,0.8l55.4,0c5.8-0.4,11.4,2.6,11.2,8.8c-0.2,5.3-0.1,10.6,0.1,16
		c0.2,5.9-1.8,11.5-8.4,11.5c-18.1,0.1-37,0-56.9-0.2c-0.9,0-1.5,0.4-1.9,1.2c-3.5,7.4-8.6,13.2-15.3,17.3c-0.7,0.4-1.1,1.2-1.1,2
		v25.7c0,0.8,0.4,1.3,1.2,1.5l6.1,1.5c8.1,3.7,12.9,9.9,14.2,18.4c0.4,2.6,0.8,5.4,1.2,8.4c2.9,9.7,10.6,14.1,20.6,14
		c20.5-0.2,40.6,0.5,60.6-0.5c19.6-1,38.3,5.1,51.8,19.2c11.2,11.8,17.3,24.9,18.2,39.5c0.3,4.7,0.3,16.3,0.1,34.8l0,53
		c0.8,9.6-2.5,15.1-10.1,16.5l-5.9,0c-0.9,0-1.3,0.5-1.3,1.4c0.5,12.9-2.4,19.6-16.6,19.6c-6.2,0-12.7-0.1-19.3-0.2
		c-3.6-0.1-6.9-2.9-9.8-8.5l-0.6-11.1c0-0.8-0.5-1.2-1.2-1.2c-3.9-0.1-8.5,0.8-12-1c-4.9-2.5-7-7.3-6.3-14.2
		c0-8.2-0.1-16.8-0.1-25.7c0-8-0.7-13.6-2.2-16.8c-5.4-11.8-19.6-10.7-32.4-10.4c-7-0.1-14.8,0-23.2,0.2
		c-10.2,0.3-13.6,6.9-19.3,13.2c-2.6,2.8-6.7,4.5-12.3,5.1c-16.3,0.8-32.5,0.5-48.4-1c-4-2.9-8-6.7-11.9-11.5
		c-3-3.7-7.4-5.6-13.2-5.7c-11.8-0.2-22.8-0.3-32.9-0.2l-53,0c-11,0.4-18.8,5.6-23.6,15.5c-1.2,2.5-1.9,5.1-2.2,7.7
		c-0.3,3.4-0.2,7.7-1.8,10.8c-5.4,10.6-13.9,15.8-25.4,15.7c-9.7-0.1-20.7,0-32.9,0.2c-12.9,0.3-22.6-2.7-28.9-14.3
		c-1.9-3.4-2.9-9.5-2.9-18.2c0-6,0-12.2,0-18.7v-53l0-54.7c0-8.4,0-13.7,0.1-15.9c0.3-7,3.9-14.3,11-21.8
		c15.2-3.1,31.4-4.4,48.5-3.8c9.3,0.3,15.9,1.7,19.6,4.2c6.6,4.5,10.6,10.9,12,19.4c0.9,5.5,0.4,11.1,2.5,16.3
		c4.8,11.7,14.5,16.5,27,16.5c25.4-0.1,50.6-0.2,75.8-0.1c6.6,0,13-4.3,16.1-10.1c2.7-5.2,1.4-11.1,3.4-16.5c3-7.9,8.7-13,16.9-15.1
		c0.7-0.2,1.2-0.8,1.2-1.6V86.3c0-1-0.4-1.7-1.2-2.2c-7.1-4.6-12.5-10.6-16-17.8c-0.4-0.8-1-1.1-1.8-1.1l-50,0.1
		c-4.7,0-8.5-3.8-8.5-8.4c0-0.1,0-0.2,0-0.3c0.2-5.8,0.2-11.7,0-17.8c-0.3-7.6,5.4-10.7,12.7-9.7l46.9-0.1c0.7,0,1.3-0.3,1.7-0.9
		l5-7.3C240.7,4.2,259.5,2.2,279.5,14.7z"/>
	<path d="M409,350.1c10.1,17.7,21.4,37.1,26.8,55.7c1.7,5.8,1.3,11.9-1.1,18.2c-8.6,19.5-30.3,25.6-47.5,12.4
		c-10.8-10.1-13.4-21.9-8-35.5c6.1-15,15-31.5,26.8-49.3C407.3,349.2,408.3,348.7,409,350.1z M419.1,424.5c0-4.3-3.5-7.9-7.9-7.9
		c-4.3,0-7.9,3.5-7.9,7.9l0,0c0,4.3,3.5,7.9,7.9,7.9l0,0C415.6,432.3,419.1,428.8,419.1,424.5z"/>
</g>
</svg>
